<svg width="40" height="40" viewBox="0 0 40 40" fill="none" xmlns="http://www.w3.org/2000/svg">
<path d="M33.3844 15.8844L20.8844 28.3844C20.7683 28.5006 20.6304 28.5928 20.4787 28.6557C20.3269 28.7186 20.1643 28.751 20 28.751C19.8357 28.751 19.6731 28.7186 19.5213 28.6557C19.3696 28.5928 19.2317 28.5006 19.1156 28.3844L6.61563 15.8844C6.44062 15.7096 6.32141 15.4867 6.2731 15.2441C6.22478 15.0015 6.24954 14.75 6.34423 14.5215C6.43892 14.293 6.59929 14.0977 6.80503 13.9603C7.01077 13.823 7.25264 13.7498 7.50001 13.75H32.5C32.7474 13.7498 32.9892 13.823 33.195 13.9603C33.4007 14.0977 33.5611 14.293 33.6558 14.5215C33.7505 14.75 33.7752 15.0015 33.7269 15.2441C33.6786 15.4867 33.5594 15.7096 33.3844 15.8844Z" fill="#5C5C5C"/>
</svg>
