<svg width="849" height="289" viewBox="0 0 849 289" fill="none" xmlns="http://www.w3.org/2000/svg">
<g clip-path="url(#clip0_1_1602)">
<path d="M849.859 0H-0.859161V289H849.859V0Z" fill="#E9F1FB"/>
<path d="M738.269 55H110.731C103.7 55 98 60.4055 98 67.0736V182.926C98 189.594 103.7 195 110.731 195H738.269C745.3 195 751 189.594 751 182.926V67.0736C751 60.4055 745.3 55 738.269 55Z" fill="white"/>
<path fill-rule="evenodd" clip-rule="evenodd" d="M110.549 56.4468C104.514 56.4468 99.6223 61.1021 99.6223 66.8447V183.155C99.6223 188.898 104.514 193.553 110.549 193.553H738.451C744.486 193.553 749.378 188.898 749.378 183.155V66.8447C749.378 61.1021 744.486 56.4468 738.451 56.4468H110.549ZM96 66.8447C96 59.1985 102.514 53 110.549 53H738.451C746.486 53 753 59.1985 753 66.8447V183.155C753 190.802 746.486 197 738.451 197H110.549C102.514 197 96 190.802 96 183.155V66.8447Z" fill="#0F0F0F"/>
<path d="M596.889 76.3021H251.516L267.831 55.2364L251.516 30.7236H596.889L581.045 55.2364L596.889 76.3021Z" fill="#FFFD3A"/>
<path fill-rule="evenodd" clip-rule="evenodd" d="M248.297 29H600.056L583.146 55.1618L600.343 78.0256H248L265.709 55.1603L248.297 29ZM254.734 32.4471L269.953 55.3125L255.032 74.5785H593.435L578.943 55.311L593.722 32.4471H254.734Z" fill="#0F0F0F"/>
<path d="M392.642 152.838C392.538 153.351 392.404 153.983 392.282 154.596C392.864 154.562 393.359 154.527 393.719 154.527C395.532 154.527 396.812 155.332 396.812 157.79C396.812 159.805 396.574 162.574 395.838 164.06C395.275 165.255 394.336 165.631 393.037 165.631C392.385 165.631 391.565 165.512 390.986 165.393L390.626 163.137C391.278 163.325 392.266 163.497 392.711 163.497C393.293 163.497 393.719 163.325 393.991 162.762C394.455 161.789 394.692 159.721 394.692 158.032C394.692 156.664 394.095 156.477 393.033 156.477C392.761 156.477 392.331 156.511 391.837 156.546C391.186 159.143 389.921 163.191 388.349 165.704L386.126 164.815C387.786 162.578 388.963 159.127 389.595 156.787C388.978 156.856 388.434 156.925 388.123 156.959C387.629 157.044 386.74 157.166 386.207 157.25L386 154.926C386.632 154.975 387.196 154.941 387.828 154.926C388.357 154.91 389.162 154.857 390.032 154.772C390.27 153.489 390.427 152.244 390.392 151.168L392.941 151.425C392.837 151.869 392.719 152.417 392.634 152.842L392.642 152.838ZM399.889 153.11L399.05 153.47C400.077 155.06 401.357 157.913 401.836 159.434L399.663 160.426C399.219 158.53 398.004 155.523 396.793 154.018L398.33 153.351C397.988 152.7 397.559 151.881 397.168 151.337L398.517 150.774C398.947 151.406 399.56 152.482 399.886 153.114L399.889 153.11ZM401.925 152.325L400.575 152.907C400.215 152.206 399.671 151.199 399.192 150.548L400.56 150C401.005 150.647 401.637 151.724 401.928 152.325H401.925Z" fill="black"/>
<path d="M642.602 161.728L642.936 162.062L639.142 165.853L642.936 169.645L642.602 169.978L638.808 166.187L635.002 169.99L634.669 169.657L638.475 165.853L634.68 162.062L635.014 161.728L638.808 165.52L642.602 161.728ZM635.531 166.715C635.06 166.715 634.669 166.325 634.669 165.853C634.669 165.382 635.06 164.992 635.531 164.992C636.003 164.992 636.394 165.382 636.394 165.853C636.394 166.325 636.003 166.715 635.531 166.715ZM637.946 162.579C637.946 162.108 638.337 161.717 638.808 161.717C639.28 161.717 639.67 162.108 639.67 162.579C639.67 163.05 639.28 163.44 638.808 163.44C638.337 163.44 637.946 163.05 637.946 162.579ZM639.67 169.128C639.67 169.599 639.28 169.99 638.808 169.99C638.337 169.99 637.946 169.599 637.946 169.128C637.946 168.657 638.337 168.266 638.808 168.266C639.28 168.266 639.67 168.657 639.67 169.128ZM642.085 164.992C642.556 164.992 642.947 165.382 642.947 165.853C642.947 166.325 642.556 166.715 642.085 166.715C641.614 166.715 641.223 166.325 641.223 165.853C641.223 165.382 641.614 164.992 642.085 164.992Z" fill="black"/>
<path d="M645.063 169.599C647.535 167.14 648.926 165.67 648.926 164.325C648.926 163.394 648.42 162.728 647.374 162.728C646.684 162.728 646.086 163.165 645.626 163.705L645.017 163.119C645.707 162.372 646.431 161.878 647.501 161.878C649.007 161.878 649.95 162.831 649.95 164.279C649.95 165.819 648.547 167.347 646.604 169.392C647.041 169.358 647.547 169.312 647.983 169.312H650.364V170.22H645.063V169.599Z" fill="black"/>
<path d="M352.517 149.363H165.868V155.932H352.517V149.363Z" fill="#FFFD3B"/>
<path d="M279.673 166.726H273.694V147.97L270.126 150.165V144.623L274.415 141.888H279.673V166.73V166.726Z" fill="black"/>
<path d="M293.543 168.132L287.925 172.92V160.391H293.543V168.132Z" fill="black"/>
<path d="M305.325 151.751C306.153 151.425 306.8 151.318 307.774 151.318C311.522 151.318 314.726 154.451 314.726 158.806C314.726 164.853 310.618 167.086 305.827 167.086C301.036 167.086 296.859 164.853 296.859 158.806C296.859 156.753 297.579 154.34 299.415 151.03L304.386 141.884H310.725L305.321 151.747L305.325 151.751ZM305.831 162.119C307.885 162.119 308.747 160.859 308.747 159.131C308.747 157.404 307.881 156.144 305.831 156.144C303.78 156.144 302.841 157.404 302.841 159.131C302.841 160.859 303.742 162.119 305.831 162.119Z" fill="black"/>
<path d="M323.913 156.251H318.544V141.888H333.422V147.143H324.415V150.31C325.063 149.805 326.071 149.158 327.945 149.158C331.367 149.158 334.322 151.823 334.322 157.94C334.322 164.057 331.62 167.086 326.289 167.086C321.966 167.086 318.183 164.892 317.716 160.066H323.626C323.951 161.36 324.672 162.119 326.113 162.119C327.554 162.119 328.347 160.786 328.347 158.304C328.347 155.676 327.661 154.416 326.113 154.416C324.998 154.416 324.384 155.064 323.917 156.251H323.913Z" fill="black"/>
<path d="M346.142 167.086C341.317 167.086 337.208 164.853 337.208 158.806V149.805C337.208 143.397 341.317 141.524 346.142 141.524C350.968 141.524 355.076 143.397 355.076 149.767V158.802C355.076 164.85 350.968 167.083 346.142 167.083V167.086ZM343.153 158.12C343.153 160.786 343.873 162.115 346.142 162.115C348.411 162.115 349.097 160.782 349.097 158.12V150.487C349.097 147.821 348.377 146.492 346.142 146.492C343.908 146.492 343.153 147.825 343.153 150.487V158.12Z" fill="black"/>
<path d="M198.912 162.747V163.501H204.78V165.669H190.614V163.501H196.191V162.747H193.209V161.644C192.343 162.36 191.388 162.969 190.377 163.39C190.009 162.785 189.235 161.847 188.683 161.349C189.898 160.928 191.093 160.265 192.048 159.472H188.847V157.3H192.289V152.022H189.898V149.889H192.289V148.713H194.976V149.889H200.257V148.732H202.997V149.889H205.389V152.022H202.997V157.3H206.328V159.472H203.331C204.27 160.188 205.393 160.797 206.512 161.199C205.941 161.678 205.151 162.632 204.764 163.26C203.806 162.82 202.852 162.195 202.005 161.441V162.747H198.916H198.912ZM196.191 160.671V159.733H198.912V160.671H201.192C200.824 160.284 200.476 159.882 200.161 159.476H195.267C194.953 159.897 194.623 160.284 194.255 160.671H196.187H196.191ZM194.976 152.03V152.582H200.257V152.03H194.976ZM194.976 154.953H200.257V154.401H194.976V154.953ZM194.976 157.304H200.257V156.772H194.976V157.304Z" fill="black"/>
<path d="M219.903 154.841C221.302 157.377 223.491 159.733 225.993 161.092C225.33 161.644 224.376 162.766 223.916 163.521C222.904 162.858 221.965 162.069 221.103 161.15V163.264H218.324V166.186H215.473V163.264H212.568V161.372C211.759 162.218 210.858 162.973 209.9 163.597C209.44 162.935 208.559 161.904 207.949 161.372C210.433 159.974 212.568 157.511 213.928 154.845H208.72V152.126H215.473V148.725H218.324V152.126H225.131V154.845H219.907L219.903 154.841ZM215.469 160.541V157.434C214.825 158.557 214.108 159.606 213.315 160.541H215.469ZM220.547 160.541C219.719 159.583 218.983 158.518 218.32 157.377V160.541H220.547Z" fill="black"/>
<path d="M243.01 161.276V166.167H240.507V161.736L235.686 162.601L235.318 160.303L233.808 162.253C233.57 161.72 233.183 161.019 232.777 160.322V166.133H230.313V160.196C229.78 161.778 229.136 163.283 228.435 164.352C228.212 163.524 227.645 162.31 227.258 161.556C228.105 160.525 228.914 158.798 229.446 157.308H227.626V154.826H230.313V148.832H232.777V153.98C233.107 152.766 233.475 150.965 233.643 149.678L235.87 150.138C235.391 151.682 234.858 153.447 234.417 154.57L232.781 154.129V154.826H235.337V157.308H232.781V157.381C233.333 157.84 234.858 159.514 235.337 160.085L240.507 159.166V148.706H243.01V158.725L244.739 158.411L245.126 160.893L243.01 161.28V161.276ZM228.254 154.677C228.235 153.482 227.925 151.643 227.519 150.264L229.358 149.786C229.818 151.165 230.148 152.949 230.224 154.144L228.254 154.677ZM236.606 154.072C237.656 154.642 239.051 155.542 239.714 156.224L238.373 158.358C237.767 157.66 236.403 156.649 235.356 155.987L236.606 154.075V154.072ZM238.978 153.758C238.426 153.041 237.138 152.03 236.127 151.348L237.414 149.544C238.426 150.15 239.752 151.069 240.358 151.751L238.978 153.754V153.758Z" fill="black"/>
<path d="M261.426 160.889C260.782 161.789 260.138 162.728 259.586 163.425H263.338V165.704H247.755V163.425H251.047C250.733 162.636 250.2 161.605 249.667 160.813L251.028 160.242H248.728V157.963H253.991V156.492H250.825V155.684C249.997 156.274 249.131 156.806 248.249 157.285C247.92 156.661 247.145 155.669 246.574 155.117C249.721 153.608 252.626 150.831 253.952 148.644H256.75C258.754 151.513 261.606 153.754 264.549 154.895C263.886 155.577 263.281 156.477 262.783 157.304C261.901 156.825 260.997 156.255 260.115 155.63V156.496H256.842V157.967H262.158V160.246H259.636L261.422 160.889H261.426ZM252.063 160.246C252.653 161.092 253.258 162.103 253.496 162.839L252.155 163.429H253.994V160.25H252.063V160.246ZM258.264 154.179C257.141 153.206 256.148 152.195 255.466 151.256C254.784 152.214 253.849 153.225 252.745 154.179H258.264ZM256.846 160.246V163.425H258.206L257.233 163.019C257.747 162.264 258.375 161.161 258.758 160.242H256.846V160.246Z" fill="black"/>
<path d="M377.156 163.314C377.156 164.578 376.899 165.244 376.113 165.654C375.328 166.064 374.266 166.114 372.744 166.114C372.641 165.413 372.216 164.267 371.855 163.635C372.744 163.704 373.871 163.685 374.197 163.685C374.523 163.685 374.642 163.582 374.642 163.275V159.756H364.934V166.094H362.438V150.923H377.156V163.31V163.314ZM364.934 157.3H368.421V153.39H364.934V157.3ZM374.642 157.3V153.39H370.897V157.3H374.642Z" fill="black"/>
<path d="M521.476 145.802C520.947 146.3 520.456 146.76 519.931 147.143C518.912 146.109 516.727 144.347 515.447 143.504C518.613 141.513 521.591 138.142 523.174 134.733L528.562 136.342C528.187 137.108 527.807 137.836 527.355 138.563H549.404V143.428H546.051V147.411H550.761V152.352H546.051V156.297H550.198V161.238H517.103V156.297H521.476V152.352H516.463V147.411H521.476V145.802ZM516.011 169.013C517.594 167.404 519.215 164.378 520.043 161.582L525.393 162.885C524.6 165.872 523.055 169.051 521.323 171.158L516.007 169.013H516.011ZM526.301 147.411H528.149V143.428H526.301V147.411ZM526.301 156.297H528.149V152.352H526.301V156.297ZM532.031 162.502C532.522 164.876 532.974 167.979 533.012 169.894L527.623 170.698C527.623 168.783 527.359 165.566 526.945 163.115L532.035 162.502H532.031ZM534.557 147.411V143.428H532.671V147.411H534.557ZM532.671 152.352V156.297H534.557V152.352H532.671ZM539.493 162.387C540.398 164.685 541.302 167.711 541.605 169.664L536.101 170.736C535.913 168.821 535.12 165.681 534.331 163.268L539.493 162.387ZM541.038 143.428H539.079V147.411H541.038V143.428ZM541.038 152.352H539.079V156.297H541.038V152.352ZM546.994 161.429C548.615 163.804 550.688 167.06 551.631 169.243L545.978 171.12C545.223 169.013 543.303 165.604 541.72 163.076L546.997 161.429H546.994Z" fill="black"/>
<path d="M590.072 160.897V171.085H584.944V161.854L575.068 163.655L574.312 158.867L571.223 162.927C570.733 161.816 569.943 160.361 569.112 158.905V171.008H564.06V158.637C562.968 161.931 561.649 165.072 560.216 167.293C559.764 165.57 558.595 163.042 557.805 161.471C559.538 159.327 561.197 155.726 562.29 152.624H558.557V147.453H564.06V134.967H569.112V145.691C569.79 143.163 570.545 139.41 570.882 136.729L575.443 137.686C574.462 140.904 573.37 144.581 572.465 146.917L569.112 145.998V147.453H574.351V152.624H569.112V152.777C570.242 153.735 573.37 157.22 574.351 158.407L584.94 156.492V134.699H590.068V155.573L593.61 154.922L594.403 160.093L590.068 160.897H590.072ZM559.844 147.147C559.806 144.657 559.166 140.827 558.338 137.954L562.106 136.959C563.048 139.831 563.727 143.546 563.876 146.036L559.844 147.147ZM576.957 145.883C579.107 147.07 581.97 148.947 583.327 150.364L580.575 154.807C579.329 153.352 576.543 151.245 574.393 149.866L576.957 145.883ZM581.821 145.232C580.69 143.738 578.053 141.631 575.98 140.214L578.617 136.461C580.69 137.725 583.403 139.64 584.649 141.057L581.821 145.232Z" fill="black"/>
<path d="M614.911 164.038C614.911 161.778 616.533 160.207 618.756 160.207C620.979 160.207 622.6 161.778 622.6 164.038C622.6 166.297 620.979 167.944 618.756 167.944C616.533 167.944 614.911 166.297 614.911 164.038ZM615.287 145.193L615.061 138.835H622.446L622.22 145.193L621.09 157.297H616.418L615.287 145.193Z" fill="black"/>
<path fill-rule="evenodd" clip-rule="evenodd" d="M520.219 133.363C520.9 131.896 522.556 131.151 524.106 131.614L529.495 133.223C530.413 133.497 531.163 134.16 531.547 135.037C531.586 135.126 531.621 135.216 531.651 135.308H549.404C551.203 135.308 552.662 136.765 552.662 138.563V143.428C552.662 143.848 552.582 144.25 552.437 144.619C553.385 145.188 554.019 146.226 554.019 147.411V152.352C554.019 153.268 553.64 154.096 553.03 154.688C553.301 155.162 553.455 155.712 553.455 156.297V161.238C553.455 162.218 553.022 163.097 552.336 163.694C553.24 165.183 554.078 166.693 554.622 167.953C554.984 168.79 554.977 169.742 554.604 170.574C554.23 171.407 553.525 172.045 552.658 172.332L547.005 174.209C545.45 174.725 543.777 174.006 543.064 172.576C542.805 172.705 542.525 172.802 542.228 172.86L536.725 173.932C535.824 174.107 534.891 173.895 534.155 173.347C534.032 173.256 533.917 173.157 533.81 173.051C533.706 173.077 533.601 173.098 533.493 173.114L528.105 173.918C527.167 174.058 526.215 173.783 525.497 173.164C525.153 172.868 524.879 172.508 524.687 172.108C524.412 172.499 524.129 172.873 523.839 173.225C522.936 174.324 521.423 174.709 520.103 174.177L514.787 172.032C513.341 171.448 512.511 169.922 512.809 168.392C512.942 167.708 513.283 167.109 513.759 166.656C514.313 166.071 514.935 165.153 515.507 164.077C514.515 163.519 513.845 162.456 513.845 161.238V156.297C513.845 155.731 513.99 155.199 514.244 154.735C513.605 154.141 513.205 153.293 513.205 152.352V147.411C513.205 146.944 513.303 146.501 513.48 146.1C512.661 145.48 512.179 144.506 512.19 143.471C512.201 142.364 512.774 141.339 513.712 140.749C516.348 139.091 518.901 136.2 520.219 133.363ZM524.775 140.551C524.677 140.424 524.588 140.288 524.508 140.146C524.379 139.914 524.281 139.672 524.213 139.423C523.452 140.521 522.592 141.575 521.661 142.552C522.036 142.573 522.41 142.659 522.767 142.814C522.874 142.859 522.977 142.91 523.076 142.966C523.225 141.917 523.874 141.029 524.775 140.551ZM523.598 149.881C523.7 149.793 523.798 149.699 523.889 149.599C523.98 149.699 524.077 149.793 524.179 149.881C524.077 149.97 523.98 150.064 523.889 150.164C523.798 150.064 523.7 149.97 523.598 149.881ZM543.544 150.272C543.661 150.131 543.79 150.001 543.929 149.881C543.79 149.762 543.661 149.631 543.544 149.491C543.427 149.631 543.298 149.762 543.159 149.881C543.298 150.001 543.427 150.131 543.544 150.272ZM536.957 149.881C536.91 149.841 536.863 149.798 536.818 149.755C536.773 149.798 536.726 149.841 536.678 149.881C536.726 149.922 536.773 149.965 536.818 150.008C536.863 149.965 536.91 149.922 536.957 149.881ZM530.549 149.881C530.501 149.841 530.455 149.798 530.41 149.755C530.365 149.798 530.318 149.841 530.27 149.881C530.318 149.922 530.365 149.965 530.41 150.008C530.455 149.965 530.501 149.922 530.549 149.881Z" fill="#0F0F0F"/>
<path fill-rule="evenodd" clip-rule="evenodd" d="M581.686 134.552C581.763 132.822 583.191 131.443 584.94 131.443H590.068C591.868 131.443 593.326 132.901 593.326 134.699V151.679C594.094 151.612 594.865 151.819 595.498 152.269C596.216 152.779 596.696 153.558 596.83 154.428L597.623 159.599C597.89 161.337 596.728 162.973 594.998 163.293L593.33 163.603V171.085C593.33 172.883 591.871 174.341 590.072 174.341H584.944C583.145 174.341 581.686 172.883 581.686 171.085V165.758L575.652 166.857C574.789 167.015 573.898 166.817 573.183 166.31C572.991 166.174 572.816 166.019 572.661 165.849C572.566 165.895 572.468 165.937 572.369 165.974V171.008C572.369 172.806 570.911 174.264 569.112 174.264H564.06C562.261 174.264 560.803 172.806 560.803 171.008V170.496C560.446 170.561 560.074 170.567 559.703 170.508C558.427 170.305 557.393 169.368 557.065 168.119C556.709 166.761 555.686 164.507 554.894 162.933C554.321 161.792 554.468 160.421 555.27 159.427C556.004 158.518 556.775 157.194 557.495 155.703C556.217 155.262 555.299 154.05 555.299 152.624V147.453C555.299 146.47 555.735 145.589 556.424 144.992C556.195 143.043 555.748 140.732 555.208 138.855C554.965 138.014 555.072 137.11 555.504 136.348C555.937 135.587 556.658 135.031 557.505 134.807L560.986 133.887C561.432 132.62 562.64 131.711 564.06 131.711H569.112C570.444 131.711 571.59 132.511 572.095 133.657L576.029 134.483C577.036 133.165 578.885 132.811 580.313 133.681C580.737 133.94 581.201 134.233 581.686 134.552ZM564.851 150.612C564.884 150.655 564.917 150.698 564.948 150.742C565.559 151.604 565.713 152.708 565.363 153.704C565.165 154.265 564.947 154.85 564.711 155.447C565.531 155.614 566.228 156.081 566.695 156.722C566.982 156.404 567.333 156.142 567.731 155.956C567.414 155.636 567.163 155.394 567.005 155.261C566.275 154.642 565.854 153.734 565.854 152.777V152.624C565.854 151.57 566.355 150.634 567.131 150.038C566.93 149.884 566.747 149.706 566.586 149.51C566.148 150.046 565.544 150.44 564.851 150.612ZM586.791 159.172C586.873 159.229 586.953 159.29 587.031 159.354C587.07 159.387 587.109 159.421 587.147 159.456C587.387 158.97 587.747 158.549 588.192 158.235C588.121 158.184 588.051 158.131 587.984 158.075C587.938 158.037 587.893 157.997 587.85 157.957C587.605 158.443 587.24 158.862 586.791 159.172Z" fill="#0F0F0F"/>
<path fill-rule="evenodd" clip-rule="evenodd" d="M612.717 136.575C613.331 135.939 614.177 135.58 615.061 135.58H622.446C623.331 135.58 624.177 135.939 624.791 136.575C625.404 137.21 625.734 138.068 625.702 138.951L625.476 145.309C625.474 145.371 625.47 145.434 625.464 145.496L624.333 157.599C624.285 158.118 624.116 158.599 623.857 159.015C625.101 160.271 625.857 162.021 625.857 164.038C625.857 168.044 622.829 171.2 618.756 171.2C614.682 171.2 611.654 168.044 611.654 164.038C611.654 162.022 612.409 160.274 613.652 159.018C613.392 158.6 613.223 158.119 613.174 157.599L612.043 145.496C612.038 145.434 612.034 145.371 612.031 145.309L611.805 138.951C611.774 138.068 612.103 137.21 612.717 136.575ZM618.754 147.278L618.968 144.984L619.071 142.091H618.437L618.539 144.984L618.754 147.278ZM618.29 163.59C618.272 163.608 618.169 163.711 618.169 164.038C618.169 164.371 618.278 164.51 618.323 164.556C618.364 164.598 618.475 164.689 618.756 164.689C619.036 164.689 619.147 164.598 619.189 164.556C619.233 164.51 619.342 164.371 619.342 164.038C619.342 163.711 619.239 163.608 619.221 163.59C619.198 163.567 619.083 163.463 618.756 163.463C618.429 163.463 618.314 163.567 618.29 163.59Z" fill="#0F0F0F"/>
<path d="M521.476 145.802C520.947 146.3 520.456 146.76 519.931 147.143C518.912 146.109 516.727 144.347 515.447 143.504C518.613 141.513 521.591 138.142 523.174 134.733L528.562 136.342C528.187 137.108 527.807 137.836 527.355 138.563H549.404V143.428H546.051V147.411H550.761V152.352H546.051V156.297H550.198V161.238H517.103V156.297H521.476V152.352H516.463V147.411H521.476V145.802ZM516.011 169.013C517.594 167.404 519.215 164.378 520.043 161.582L525.393 162.885C524.6 165.872 523.055 169.051 521.323 171.158L516.007 169.013H516.011ZM526.301 147.411H528.149V143.428H526.301V147.411ZM526.301 156.297H528.149V152.352H526.301V156.297ZM532.031 162.502C532.522 164.876 532.974 167.979 533.012 169.894L527.623 170.698C527.623 168.783 527.359 165.566 526.945 163.115L532.035 162.502H532.031ZM534.557 147.411V143.428H532.671V147.411H534.557ZM532.671 152.352V156.297H534.557V152.352H532.671ZM539.493 162.387C540.398 164.685 541.302 167.711 541.605 169.664L536.101 170.736C535.913 168.821 535.12 165.681 534.331 163.268L539.493 162.387ZM541.038 143.428H539.079V147.411H541.038V143.428ZM541.038 152.352H539.079V156.297H541.038V152.352ZM546.994 161.429C548.615 163.804 550.688 167.06 551.631 169.243L545.978 171.12C545.223 169.013 543.303 165.604 541.72 163.076L546.997 161.429H546.994Z" fill="#FFFD3A"/>
<path d="M590.072 160.897V171.085H584.944V161.854L575.068 163.655L574.312 158.867L571.223 162.927C570.733 161.816 569.943 160.361 569.112 158.905V171.008H564.06V158.637C562.968 161.931 561.649 165.072 560.216 167.293C559.764 165.57 558.595 163.042 557.805 161.471C559.538 159.327 561.197 155.726 562.29 152.624H558.557V147.453H564.06V134.967H569.112V145.691C569.79 143.163 570.545 139.41 570.882 136.729L575.443 137.686C574.462 140.904 573.37 144.581 572.465 146.917L569.112 145.998V147.453H574.351V152.624H569.112V152.777C570.242 153.735 573.37 157.22 574.351 158.407L584.94 156.492V134.699H590.068V155.573L593.61 154.922L594.403 160.093L590.068 160.897H590.072ZM559.844 147.147C559.806 144.657 559.166 140.827 558.338 137.954L562.106 136.959C563.048 139.831 563.727 143.546 563.876 146.036L559.844 147.147ZM576.957 145.883C579.107 147.07 581.97 148.947 583.327 150.364L580.575 154.807C579.329 153.352 576.543 151.245 574.393 149.866L576.957 145.883ZM581.821 145.232C580.69 143.738 578.053 141.631 575.98 140.214L578.617 136.461C580.69 137.725 583.403 139.64 584.649 141.057L581.821 145.232Z" fill="#FFFD3A"/>
<path d="M614.912 164.038C614.912 161.778 616.533 160.207 618.756 160.207C620.979 160.207 622.6 161.778 622.6 164.038C622.6 166.297 620.979 167.944 618.756 167.944C616.533 167.944 614.912 166.297 614.912 164.038ZM615.287 145.193L615.061 138.835H622.447L622.22 145.193L621.09 157.297H616.418L615.287 145.193Z" fill="#FFFD3A"/>
<path d="M87.4873 246.507C87.4873 246.507 93.8561 249.001 95.6565 251.44C97.326 253.697 96.9587 257.594 96.1803 258.899C93.8452 262.832 88.2438 260.622 87.7419 259.945L73.2183 240.295C72.5818 239.434 73.4147 238.303 74.8514 237.322C75.4952 236.882 76.961 236.206 77.3357 236.711L87.4873 246.507Z" fill="white"/>
<path fill-rule="evenodd" clip-rule="evenodd" d="M76.2776 238.601C76.1048 238.687 75.9648 238.771 75.8815 238.828C75.5863 239.03 75.3452 239.224 75.1603 239.4C75.0836 239.473 75.0213 239.539 74.9711 239.596L89.0783 258.683C89.1882 258.744 89.3618 258.827 89.5937 258.915C90.0882 259.104 90.7402 259.275 91.4242 259.332C92.8073 259.447 93.9391 259.097 94.6097 257.968L94.6116 257.964C94.7554 257.723 95.0276 256.81 95.0103 255.552C94.9935 254.335 94.7082 253.228 94.1878 252.524L94.1868 252.523C93.9212 252.163 93.3888 251.689 92.5947 251.15C91.829 250.631 90.936 250.128 90.0654 249.684C89.1994 249.241 88.3829 248.87 87.7816 248.608C87.4819 248.478 87.2377 248.376 87.0702 248.307C86.9865 248.273 86.9221 248.247 86.8796 248.23C86.8673 248.225 86.8569 248.221 86.8483 248.217C86.8421 248.215 86.8369 248.213 86.8328 248.211L86.8209 248.206C86.8208 248.206 86.821 248.206 86.8209 248.206C86.821 248.206 86.8209 248.206 87.4869 246.507C88.153 244.808 88.1532 244.808 88.1534 244.809L88.1608 244.811L88.1777 244.818C88.192 244.824 88.2123 244.832 88.2381 244.842C88.2898 244.863 88.364 244.893 88.458 244.931C88.4718 244.937 88.486 244.943 88.5006 244.949C88.6854 245.025 88.9371 245.131 89.2387 245.262C89.8879 245.544 90.7761 245.948 91.7274 246.434C92.6741 246.918 93.7108 247.496 94.6456 248.13C95.5521 248.745 96.491 249.497 97.1255 250.357C98.2739 251.91 98.6394 253.88 98.6618 255.501C98.6835 257.081 98.3832 258.767 97.7493 259.831C96.0846 262.634 93.2488 263.145 91.1224 262.969C90.0514 262.88 89.063 262.619 88.2931 262.325C87.9075 262.178 87.5501 262.014 87.2468 261.84C87.0196 261.711 86.5818 261.446 86.2751 261.033L86.2728 261.03L71.7493 241.379C70.8426 240.152 71.1534 238.81 71.6917 237.914C72.1953 237.076 73.0079 236.371 73.8206 235.816M78.6718 235.464C78.0868 234.809 77.3031 234.709 76.8869 234.707C76.4087 234.705 75.9594 234.82 75.6283 234.927C74.9514 235.148 74.269 235.509 73.8206 235.816M88.5006 244.949L78.6718 235.464L88.5006 244.949ZM76.2776 238.601C76.3668 238.556 76.4554 238.515 76.5395 238.48L76.2776 238.601ZM76.5395 238.48L86.2186 247.82C86.3918 247.987 86.5967 248.118 86.8209 248.206M88.9747 258.619C88.9752 258.619 88.9832 258.624 88.9969 258.635C88.9809 258.624 88.9741 258.619 88.9747 258.619Z" fill="black"/>
<path d="M65.9411 244.014C65.9411 244.014 71.7134 247.681 73.0155 250.418C74.2194 252.956 73.1137 256.707 72.1026 257.841C69.0545 261.254 63.9806 258.012 63.6205 257.252L53.1306 235.185C52.6687 234.214 53.7017 233.269 55.3021 232.582C56.0186 232.273 57.5863 231.888 57.8554 232.455L65.9411 244.01V244.014Z" fill="white"/>
<path fill-rule="evenodd" clip-rule="evenodd" d="M56.7368 234.041C56.6482 234.059 56.5543 234.082 56.459 234.109C56.2726 234.161 56.1185 234.217 56.0252 234.258L56.0225 234.259C55.693 234.4 55.4189 234.544 55.2036 234.681C55.1164 234.737 55.0441 234.788 54.9848 234.833L65.175 256.27C65.2707 256.351 65.4246 256.465 65.6346 256.596C66.0833 256.875 66.6899 257.169 67.3502 257.355C68.6855 257.733 69.8643 257.607 70.74 256.626L72.1023 257.841L70.7391 256.627C70.9275 256.416 71.3689 255.57 71.5926 254.332C71.8089 253.135 71.7414 251.993 71.3658 251.201C71.1732 250.797 70.741 250.229 70.0651 249.549C69.4127 248.892 68.6321 248.229 67.8627 247.625C67.0974 247.025 66.3672 246.504 65.8272 246.132C65.5579 245.947 65.3378 245.8 65.1866 245.7C65.1111 245.651 65.0528 245.613 65.0144 245.588C64.9952 245.575 64.9809 245.566 64.972 245.561L64.9625 245.554L64.9612 245.554C64.9611 245.554 64.9613 245.554 64.9612 245.554C64.9613 245.554 64.9612 245.554 65.9408 244.014C65.9416 244.013 65.9424 244.011 65.9431 244.01C65.9438 244.009 65.9444 244.008 65.945 244.007C66.9205 242.474 66.9207 242.474 66.9209 242.474L66.923 242.476L66.9275 242.478L66.9429 242.488C66.9558 242.497 66.9742 242.508 66.9976 242.523C67.0443 242.554 67.1114 242.597 67.1962 242.653C67.21 242.662 67.2244 242.672 67.2392 242.682C67.4055 242.791 67.6307 242.942 67.899 243.127C68.482 243.528 69.2763 244.095 70.1168 244.754C70.9533 245.41 71.8599 246.176 72.6561 246.977C73.4281 247.754 74.2056 248.671 74.6643 249.635L74.6651 249.637C75.4932 251.382 75.4747 253.384 75.1863 254.98C74.9054 256.535 74.2883 258.132 73.4656 259.055L73.4646 259.056C71.2924 261.488 68.4102 261.448 66.3564 260.867C65.3222 260.575 64.4024 260.129 63.7031 259.693C63.353 259.475 63.0338 259.245 62.7693 259.016C62.5717 258.846 62.1915 258.5 61.9702 258.033C61.9701 258.033 61.9702 258.033 61.9702 258.033L51.4815 235.968C51.4814 235.968 51.4813 235.968 51.4812 235.968C50.8266 234.591 51.3834 233.334 52.0874 232.554C52.7428 231.829 53.6766 231.294 54.58 230.906C55.0778 230.692 55.8154 230.467 56.5208 230.379C56.866 230.336 57.329 230.309 57.7982 230.402C58.2061 230.483 58.9579 230.731 59.4065 231.488L67.2392 242.682M64.3962 244.987C64.538 245.212 64.7297 245.407 64.9612 245.554L64.3962 244.987ZM64.3962 244.987L64.4445 245.056L65.9408 244.01H64.1149V244.014C64.1149 244.364 64.2152 244.7 64.3962 244.987ZM64.3962 244.987L56.7368 234.041C56.8209 234.023 56.9003 234.01 56.9718 234.001C57.0817 233.987 57.1306 233.99 57.1306 233.989C57.1306 233.989 57.116 233.987 57.0888 233.982C57.0489 233.974 56.6606 233.891 56.363 233.498C56.3062 233.423 56.2526 233.336 56.2055 233.237C56.2492 233.329 56.3005 233.417 56.3589 233.501L56.7368 234.041M65.0856 256.188C65.0862 256.188 65.0932 256.194 65.1048 256.208C65.0908 256.194 65.085 256.187 65.0856 256.188Z" fill="black"/>
<path d="M124.653 193.26C124.653 193.26 133.696 179.891 138.355 185.1C143.323 190.654 129.924 201.46 129.924 201.46L124.657 193.26H124.653Z" fill="#FFFD34"/>
<path fill-rule="evenodd" clip-rule="evenodd" d="M124.294 194.812H122.293L123.869 192.481L125.107 193.318C123.869 192.481 123.869 192.481 123.869 192.481L123.872 192.477L123.878 192.468L123.901 192.435C123.92 192.407 123.948 192.367 123.983 192.315C124.055 192.213 124.159 192.065 124.292 191.88C124.559 191.511 124.942 190.993 125.417 190.388C126.362 189.185 127.688 187.615 129.183 186.2C130.65 184.811 132.404 183.451 134.213 182.824C135.136 182.504 136.145 182.35 137.164 182.546C138.207 182.746 139.142 183.288 139.923 184.162C141.633 186.073 141.668 188.4 141.015 190.5C140.376 192.559 139.03 194.604 137.622 196.356C136.197 198.129 134.623 199.707 133.414 200.835C132.808 201.401 132.288 201.859 131.918 202.176C131.733 202.335 131.585 202.459 131.483 202.545C131.431 202.587 131.391 202.62 131.363 202.643L131.33 202.67L131.321 202.677L131.318 202.68L131.317 202.68C131.317 202.681 131.317 202.681 130.378 201.518L131.317 202.681L130.02 203.727L124.294 194.812ZM130.706 199.263L126.913 193.359C127.141 193.049 127.43 192.665 127.769 192.233C128.665 191.092 129.891 189.646 131.239 188.369C132.615 187.067 133.995 186.062 135.192 185.647C135.772 185.446 136.234 185.41 136.601 185.48C136.945 185.546 137.311 185.725 137.694 186.153C138.469 187.019 138.622 188.126 138.16 189.614C137.685 191.143 136.612 192.842 135.291 194.485C133.987 196.108 132.522 197.579 131.374 198.651C131.135 198.874 130.911 199.079 130.706 199.263Z" fill="black"/>
<path d="M53.1519 186.106C53.1519 186.106 47.5396 170.978 41.7782 174.933C35.6349 179.153 46.0847 192.827 46.0847 192.827L53.1483 186.11L53.1519 186.106Z" fill="#FFFD34"/>
<path fill-rule="evenodd" clip-rule="evenodd" d="M54.098 185.536C54.0981 185.536 54.0982 185.536 52.6965 186.056L54.0982 185.536L54.4319 186.436L53.7362 187.129L45.4527 195.007L44.4413 193.683L45.6294 192.776C44.4413 193.683 44.4411 193.683 44.4408 193.683L44.44 193.682L44.4378 193.679L44.4306 193.669L44.4052 193.636C44.3835 193.607 44.3523 193.565 44.3125 193.511C44.2329 193.404 44.1188 193.248 43.9768 193.05C43.693 192.654 43.2969 192.086 42.8421 191.393C41.936 190.01 40.781 188.104 39.8179 186.044C38.8661 184.008 38.0448 181.702 37.912 179.55C37.7764 177.355 38.3623 175.103 40.476 173.651L40.4765 173.65C41.4429 172.987 42.4804 172.682 43.5403 172.735C44.577 172.786 45.5202 173.175 46.3414 173.704C47.9493 174.742 49.3307 176.479 50.4263 178.176C51.5425 179.904 52.4583 181.743 53.0908 183.136C53.4087 183.836 53.6584 184.43 53.8295 184.852C53.9151 185.063 53.9812 185.231 54.0264 185.348C54.049 185.406 54.0664 185.452 54.0784 185.483L54.0924 185.521L54.0963 185.531L54.098 185.536ZM45.8465 190.508L50.9336 185.67C50.786 185.315 50.596 184.872 50.3684 184.371C49.7686 183.051 48.9213 181.355 47.9142 179.796C46.8865 178.204 45.7845 176.901 44.7198 176.215C44.2046 175.882 43.7641 175.737 43.3911 175.719C43.0415 175.701 42.6434 175.788 42.1697 176.113M45.8465 190.508C45.691 190.28 45.5219 190.028 45.343 189.755C44.4817 188.441 43.4083 186.665 42.5268 184.779C41.6341 182.87 40.9948 180.965 40.8961 179.366C40.8001 177.811 41.2116 176.771 42.1692 176.113" fill="black"/>
<path d="M100.712 197.375C100.712 197.375 105.036 196.171 114.173 195.157C118.905 194.634 123.714 189.952 125.994 188.724L137.663 202.296C130.188 211.343 121.488 215.051 110.649 213.154L100.708 197.375H100.712Z" fill="black"/>
<path d="M73.7202 199.701C73.7202 199.701 70.1048 197.044 61.9173 192.86C57.6799 190.694 54.8428 184.616 53.1406 182.661L38.5079 190.432C42.287 201.54 48.0194 208.879 58.8293 210.94L73.7202 199.701Z" fill="black"/>
<path d="M119.393 218.144C117.89 240.884 101.977 244.021 82.689 242.745C63.4007 241.473 52.8745 233.778 51.6705 215.974C50.623 200.446 60.8364 182.973 86.5263 184.667C112.216 186.361 120.418 202.612 119.393 218.141" fill="black"/>
<path d="M102.88 199.919L88.8616 226.806L75.1346 200.439L102.88 199.919Z" fill="white"/>
<path fill-rule="evenodd" clip-rule="evenodd" d="M105.208 198.48L89.5668 229.524L73.4694 198.599L105.208 198.48ZM78.1759 201.442L89.5253 223.245L100.553 201.358L78.1759 201.442Z" fill="black"/>
<path fill-rule="evenodd" clip-rule="evenodd" d="M89.7431 202.392L97.9963 210.404L95.4847 212.988L89.7563 207.427L83.8832 213.189L81.3582 210.618L89.7431 202.392Z" fill="black"/>
<path d="M93.002 208.13L91.3179 213.165H87.4988L86.1421 208.127L89.5029 204.466L93.002 208.13Z" fill="#FFFD34"/>
<path fill-rule="evenodd" clip-rule="evenodd" d="M88.5581 202.331L94.807 207.348L92.2614 214.963L86.0968 214.243L84.4162 208.379L88.5581 202.331ZM89.3346 207.575L88.3481 209.016L88.9007 210.944L89.7706 211.046L90.593 208.585L89.3346 207.575Z" fill="black"/>
<path d="M90.5212 212.289L92.9873 217.079L88.7026 225.73L84.5525 217.188L86.7021 212.289H90.5212Z" fill="#FFFD34"/>
<path fill-rule="evenodd" clip-rule="evenodd" d="M86.7503 210.365L92.2883 210.563L95.6846 217.165L88.2844 230.085L83.8277 217.027L86.7503 210.365ZM89.0684 214.052L87.6918 217.19L89.1202 221.375L91.5843 217.073L90.0484 214.087L89.0684 214.052Z" fill="black"/>
<path d="M47.8556 158.456C49.4014 135.094 69.6027 117.411 92.9757 118.952C116.352 120.497 134.048 140.685 132.505 164.043C130.96 187.404 110.758 205.088 87.3853 203.547C64.0086 202.002 46.3134 181.814 47.8556 158.456Z" fill="#FFFD34"/>
<path fill-rule="evenodd" clip-rule="evenodd" d="M51.3575 149.583C44.9131 171.008 57.069 193.598 78.5085 200.038C99.948 206.478 122.552 194.33 128.997 172.905C135.441 151.479 123.285 128.89 101.846 122.45C80.4062 116.009 57.8019 128.157 51.3575 149.583ZM77.4248 203.641C53.9942 196.603 40.7094 171.915 47.7523 148.5C54.7952 125.085 79.4988 111.808 102.929 118.847C126.36 125.885 139.645 150.572 132.602 173.988C125.559 197.403 100.855 210.679 77.4248 203.641Z" fill="black"/>
<path d="M58.1383 116.451C56.0069 106.728 62.1647 97.1208 71.8944 94.9907L79.0671 93.4205C88.6221 91.3304 98.0644 97.2335 100.414 106.655H100.418L100.461 106.851C100.487 106.957 100.516 107.062 100.538 107.168C100.56 107.273 100.578 107.382 100.6 107.487L103.695 121.718L61.35 130.987L58.462 117.712C58.3383 117.298 58.2256 116.88 58.131 116.451" fill="black"/>
<path d="M56.9013 131.965L108.158 120.744C109.321 120.489 110.06 119.341 109.802 118.178C109.547 117.015 108.398 116.277 107.234 116.535L55.9775 127.756C54.8135 128.01 54.0752 129.159 54.3334 130.322C54.588 131.485 55.7374 132.223 56.9013 131.965Z" fill="black"/>
<path d="M99.5886 112.791L61.3325 121.162L62.466 126.335L100.722 117.965L99.5886 112.791Z" fill="#FFFD34"/>
<path d="M154.969 216.109C153.383 217.148 151.248 216.705 150.211 215.12L136.408 194.092C134.127 190.621 135.102 185.943 138.576 183.667C142.049 181.392 146.73 182.362 149.007 185.834L150.848 188.636C151.888 190.221 151.444 192.351 149.858 193.391C148.273 194.43 146.141 193.987 145.101 192.402L143.26 189.6C143.06 189.294 142.649 189.211 142.344 189.411C142.038 189.61 141.955 190.021 142.155 190.327L155.958 211.354C156.998 212.939 156.555 215.073 154.969 216.109Z" fill="#FFFD34"/>
<path d="M139.387 184.903C142.177 183.075 145.934 183.856 147.764 186.641L149.604 189.443C150.197 190.345 149.946 191.555 149.044 192.144C148.142 192.736 146.931 192.486 146.341 191.584L144.501 188.782C143.854 187.793 142.519 187.517 141.529 188.164C140.54 188.811 140.264 190.145 140.911 191.13L154.714 212.158C155.307 213.059 155.056 214.27 154.154 214.862C153.252 215.454 152.041 215.204 151.452 214.302L137.648 193.274C135.819 190.486 136.597 186.732 139.387 184.903ZM137.758 182.424C133.6 185.15 132.436 190.748 135.164 194.903L148.968 215.931C150.455 218.199 153.511 218.831 155.78 217.345C158.05 215.858 158.683 212.805 157.195 210.537L147.244 195.375C148.397 195.55 149.619 195.314 150.67 194.627C152.939 193.14 153.572 190.087 152.085 187.818L150.244 185.016C147.516 180.861 141.915 179.698 137.758 182.424Z" fill="black"/>
<path d="M83.4025 236.897C83.4025 236.897 83.3261 246.209 79.4342 250.735C76.4262 254.235 67.7986 253.076 63.965 247.514L53.7297 231.939L57.1997 230.728L56.5377 222.917L83.4025 236.897Z" fill="black"/>
<path d="M107.947 238.809C107.947 238.809 107.568 247.042 103.582 251.484C100.021 255.456 92.5465 253.57 87.1889 250.364L74.724 240.612L79.296 236.791L74.2802 225.145L107.947 238.805V238.809Z" fill="black"/>
<path d="M96.5261 155.948H99.7196V137.962H91.2594L93.78 133.448H89.1498L86.6291 137.962H82.5954V155.948H85.7889V165.966H73.586V176.699H83.0246L74.5971 185.176V188.044H77.4487L85.7889 179.655V189.054H96.5298V179.655L104.87 188.044H107.722V185.176L99.2941 176.699H108.733V165.966H96.5298V155.948H96.5261ZM86.6401 142.004H95.675V144.934H86.6401V142.004ZM86.6401 148.976H95.675V151.906H86.6401V148.976ZM106.71 167.987V174.678H94.5074V187.033H87.8113V174.678H75.6083V167.987H87.8113V155.948H94.5074V167.987H106.71Z" fill="black"/>
<path d="M72.3493 137.961L70.209 141.391L74.5791 144.114L76.7194 140.685L72.3493 137.961Z" fill="black"/>
<path d="M109.876 137.955L105.505 140.679L107.646 144.109L112.016 141.385L109.876 137.955Z" fill="black"/>
<path d="M74.5932 148.601L68.65 153.185L71.1212 156.385L77.0643 151.801L74.5932 148.601Z" fill="black"/>
<path d="M107.636 148.6L105.164 151.799L111.108 156.383L113.579 153.183L107.636 148.6Z" fill="black"/>
<path d="M87.8074 187.03H94.5V174.678H106.707V167.987H94.5V155.948H87.8074V167.987H75.6045V174.678H87.8074V187.03Z" fill="white"/>
<path d="M421.444 142.852C421.388 143.3 421.276 144.812 421.248 145.26C421.192 147.08 421.248 152.792 421.276 155.06L417.804 153.856C417.804 152.12 417.776 146.772 417.692 145.26C417.58 144.14 417.496 143.188 417.412 142.852H421.444ZM405.624 146.324C409.824 146.324 417.188 146.1 420.688 146.1C423.572 146.1 427.8 146.072 429.368 146.1L429.312 149.432C427.548 149.348 424.72 149.264 420.604 149.264C415.508 149.264 409.936 149.488 405.736 149.712L405.624 146.324ZM420.8 154.612C420.8 159.176 419.12 161.444 415.9 161.444C413.716 161.444 411.056 159.736 411.056 156.32C411.056 153.156 413.604 151.084 416.656 151.084C420.352 151.084 422.284 153.8 422.284 157.3C422.284 160.968 420.128 165.588 413.296 167.492L410.328 164.524C415.088 163.516 418.812 161.612 418.812 156.712C418.812 154.92 417.832 154.024 416.572 154.024C415.508 154.024 414.416 154.78 414.416 156.264C414.416 157.524 415.48 158.364 416.572 158.364C417.916 158.364 419.064 157.216 418.196 153.912L420.8 154.612ZM425.084 142.012C425.756 143.02 426.54 144.308 427.044 145.316L424.664 146.296C424.104 145.176 423.488 144 422.76 142.964L425.084 142.012ZM428.836 141.2C429.508 142.236 430.292 143.468 430.796 144.476L428.472 145.484C427.884 144.336 427.24 143.16 426.484 142.18L428.836 141.2ZM431.188 152.036C432.224 152.12 434.24 152.232 435.696 152.232C439 152.232 448.24 152.232 450.732 152.232C452.048 152.232 453.28 152.092 454.036 152.036V156.46C453.364 156.432 451.936 156.292 450.76 156.292C448.212 156.292 439 156.292 435.696 156.292C434.128 156.292 432.252 156.376 431.188 156.46V152.036ZM458.656 153.156C459.496 153.016 460.784 152.68 461.624 152.4C463.556 151.84 468.288 150.216 471.676 150.216C476.128 150.216 479.096 152.848 479.096 157.104C479.096 162.144 474.616 165.616 465.74 166.148L464.256 162.704C470.64 162.536 475.372 160.828 475.372 157.02C475.372 154.948 473.804 153.464 471.34 153.464C468.092 153.464 462.52 155.788 460.112 156.796L458.656 153.156ZM502.364 148.676C501.496 149.18 500.6 149.684 499.564 150.188C497.828 151.056 494.328 152.708 491.752 154.36C489.428 155.872 487.86 157.496 487.86 159.428C487.86 161.444 489.82 162.536 493.712 162.536C496.568 162.536 500.348 162.088 502.84 161.5L502.812 165.532C500.404 165.924 497.464 166.232 493.824 166.232C488.224 166.232 483.996 164.664 483.996 159.848C483.996 156.292 486.6 153.8 489.932 151.616C492.592 149.852 496.12 148.116 497.828 147.136C498.892 146.52 499.676 146.044 500.404 145.456L502.364 148.676ZM488.28 142.684C489.624 146.408 491.388 149.768 492.704 152.12L489.512 153.968C487.972 151.42 486.292 147.752 484.752 144.14L488.28 142.684Z" fill="black"/>
<path d="M303.731 48.277H313.231V50.196H303.731V48.277ZM304.624 51.64H306.714V59.297H304.624V51.64ZM305.764 51.64H312.395V58.043H305.764V56.143H310.286V53.502H305.764V51.64ZM300.425 44.762H315.625V46.928H302.629V61.729H300.425V44.762ZM314.352 44.762H316.594V59.107C316.594 60.285 316.366 60.931 315.625 61.292C314.903 61.672 313.858 61.729 312.243 61.729C312.167 61.102 311.825 60.057 311.483 59.487C312.49 59.525 313.592 59.525 313.915 59.525C314.238 59.506 314.352 59.392 314.352 59.069V44.762ZM326.512 45.883H336.221V47.859H326.512V45.883ZM325.866 49.531H336.791V51.545H325.866V49.531ZM325.904 53.16H336.658V55.155H325.904V53.16ZM330.179 43.85H332.421V50.823H330.179V43.85ZM332.592 51.431H334.815V59.297C334.815 60.399 334.606 60.988 333.865 61.311C333.105 61.653 332.079 61.691 330.654 61.691C330.578 61.064 330.236 60.152 329.932 59.563C330.863 59.601 331.908 59.601 332.193 59.582C332.497 59.582 332.592 59.525 332.592 59.259V51.431ZM326.664 56.428L328.488 55.383C329.381 56.314 330.388 57.568 330.806 58.499L328.849 59.639C328.488 58.746 327.538 57.397 326.664 56.428ZM320.641 45.028H325.543V58.024H320.641V55.991H323.415V47.061H320.641V45.028ZM320.755 50.424H324.441V52.419H320.755V50.424ZM319.577 45.028H321.686V59.715H319.577V45.028ZM346.044 44.572C345.968 44.933 345.892 45.75 345.873 46.225C345.778 47.726 345.721 49.778 345.721 51.545C345.721 53.616 345.835 56.903 345.835 58.005C345.835 60.342 344.999 60.988 343.745 60.988C341.902 60.988 339.28 59.392 339.28 57.378C339.28 55.535 341.655 53.597 344.296 52.666C345.987 52.058 347.906 51.754 349.35 51.754C352.276 51.754 354.594 53.274 354.594 55.896C354.594 58.157 353.416 59.848 350.395 60.589C349.521 60.779 348.666 60.836 347.887 60.912L347.032 58.442C347.868 58.442 348.704 58.442 349.35 58.309C350.889 58.043 352.124 57.264 352.124 55.896C352.124 54.585 350.984 53.844 349.331 53.844C347.716 53.844 346.044 54.186 344.562 54.775C342.852 55.421 341.636 56.447 341.636 57.264C341.636 57.872 342.529 58.385 343.023 58.385C343.365 58.385 343.612 58.233 343.612 57.568C343.612 56.58 343.517 53.939 343.517 51.64C343.517 49.474 343.536 47.118 343.536 46.244C343.536 45.864 343.479 44.914 343.422 44.572H346.044ZM351.459 46.643C352.903 47.346 355.107 48.581 356.133 49.303L354.974 51.241C354.062 50.481 351.592 49.056 350.414 48.486L351.459 46.643ZM339.793 47.688C340.914 47.821 341.731 47.821 342.415 47.821C344.391 47.821 347.355 47.46 349.312 46.89L349.369 49.246C347.222 49.74 344.163 50.082 342.491 50.082C341.237 50.082 340.496 50.063 339.85 49.987L339.793 47.688ZM358.983 46.396H374.392V57.701H372.017V48.581H361.244V57.815H358.983V46.396ZM360.465 50.519H373.138V52.609H360.465V50.519ZM360.465 54.623H373.176V56.808H360.465V54.623ZM365.386 43.869H367.761V61.71H365.386V43.869ZM383.569 44.933C383.455 45.731 383.36 46.719 383.322 47.479C383.227 49.531 383.094 53.768 383.094 56.124C383.094 58.043 384.234 58.67 385.716 58.67C388.851 58.67 390.827 56.865 392.214 54.794L393.943 56.903C392.708 58.727 390.01 61.254 385.678 61.254C382.562 61.254 380.567 59.886 380.567 56.637C380.567 54.091 380.738 49.113 380.738 47.479C380.738 46.567 380.662 45.655 380.51 44.914L383.569 44.933ZM403.576 44.667H407.585V46.814H403.576V44.667ZM406.445 44.667H408.839C409.124 50.082 410.264 54.661 414.235 56.675C413.703 57.036 412.867 57.872 412.449 58.404C408.402 55.991 407.148 51.203 406.806 45.674H406.445V44.667ZM406.369 48.619L408.725 48.961C407.889 53.236 406.198 56.466 403.386 58.423C403.044 57.986 402.151 57.093 401.638 56.713C404.298 55.117 405.761 52.286 406.369 48.619ZM401.163 51.279V58.271H398.94V53.388H396.717V51.279H401.163ZM401.163 57.283C401.923 58.537 403.367 59.088 405.343 59.164C407.566 59.259 411.879 59.202 414.444 58.993C414.197 59.525 413.817 60.627 413.722 61.311C411.423 61.425 407.585 61.463 405.305 61.368C402.968 61.273 401.391 60.722 400.156 59.24C399.32 59.981 398.465 60.703 397.439 61.539L396.318 59.164C397.173 58.632 398.199 57.967 399.073 57.283H401.163ZM396.755 45.674L398.446 44.306C399.586 45.104 400.973 46.301 401.638 47.194L399.814 48.695C399.244 47.802 397.876 46.529 396.755 45.674ZM419.327 45.636C419.84 45.674 420.505 45.712 420.904 45.712C422.006 45.712 424.02 45.636 424.894 45.56C425.369 45.522 425.863 45.408 426.205 45.275L427.706 46.472C427.459 46.757 427.231 47.004 427.079 47.251C426.433 48.334 425.407 50.785 424.552 52.761C423.792 54.509 422.88 56.77 422.101 57.967C421.341 59.126 420.448 59.639 419.137 59.639C417.484 59.639 416.23 58.499 416.23 56.561C416.23 53.521 419.137 51.184 423.203 51.184C427.63 51.184 431.506 53.54 433.501 54.908L432.399 57.549C430.062 55.478 426.718 53.312 422.804 53.312C420.03 53.312 418.434 54.813 418.434 56.2C418.434 56.827 418.795 57.15 419.251 57.15C419.631 57.15 419.878 56.979 420.239 56.504C420.866 55.573 421.55 53.825 422.234 52.324C422.899 50.823 423.678 48.961 424.248 47.783C423.488 47.802 421.835 47.859 420.98 47.916C420.581 47.935 419.916 48.011 419.422 48.068L419.327 45.636ZM431.829 50.12C431.563 55.516 430.499 59.012 425.958 61.368L423.925 59.715C428.618 57.701 429.188 54.148 429.359 51.925C429.397 51.184 429.416 50.424 429.34 49.835L431.829 50.12ZM441.576 46.434C441.462 45.902 441.329 45.446 441.177 45.009L443.875 44.572C443.913 44.933 443.989 45.579 444.065 46.035C444.255 47.289 446.136 56.903 446.535 58.841C446.668 59.392 446.839 60.076 447.01 60.703L444.274 61.178C444.179 60.475 444.141 59.829 444.008 59.259C443.723 57.549 441.88 47.973 441.576 46.434ZM436.389 48.866C436.978 48.828 437.548 48.79 438.156 48.714C439.771 48.524 446.421 47.498 448.131 47.156C448.72 47.061 449.442 46.89 449.898 46.757L450.373 49.265C449.955 49.284 449.176 49.398 448.606 49.474C446.592 49.797 440.056 50.842 438.631 51.089C438.042 51.203 437.548 51.317 436.902 51.488L436.389 48.866ZM436.408 54.433C436.902 54.414 437.776 54.319 438.365 54.224C440.398 53.939 447.333 52.818 449.518 52.4C450.259 52.267 450.962 52.096 451.475 51.963L451.969 54.471C451.456 54.509 450.677 54.642 449.974 54.756C447.561 55.117 440.721 56.238 438.84 56.599C438.023 56.751 437.358 56.865 436.94 56.979L436.408 54.433ZM461.64 47.935C461.697 48.391 461.83 48.885 461.944 49.379C462.59 51.659 464.376 58.195 464.851 59.772C464.946 60.114 465.212 60.95 465.345 61.33L462.78 61.976C462.704 61.463 462.59 60.836 462.438 60.304C461.963 58.651 460.234 51.868 459.626 49.892C459.493 49.417 459.284 48.942 459.075 48.543L461.64 47.935ZM470.76 50.88C469.943 52.533 468.043 55.402 466.713 56.808L464.604 55.763C465.592 54.889 466.903 53.293 467.416 52.362C466.428 52.533 458.695 54.148 457.137 54.49L456.548 52.229C457.137 52.172 457.669 52.115 458.296 52.001C459.322 51.849 466.922 50.405 468.271 50.101C468.594 50.025 468.974 49.911 469.221 49.797L470.76 50.88ZM477.999 45.56C479.31 46.453 481.78 48.429 482.901 49.588L480.963 51.564C479.975 50.5 477.581 48.429 476.194 47.479L477.999 45.56ZM475.605 58.214C478.588 57.796 481.039 56.827 482.882 55.744C486.131 53.806 488.601 50.918 489.817 48.353L491.28 51.013C489.855 53.597 487.328 56.219 484.269 58.062C482.331 59.221 479.88 60.266 477.22 60.722L475.605 58.214ZM506.518 48.372C506.518 49.037 507.069 49.588 507.734 49.588C508.399 49.588 508.931 49.037 508.931 48.372C508.931 47.707 508.399 47.175 507.734 47.175C507.069 47.175 506.518 47.707 506.518 48.372ZM505.264 48.372C505.264 47.004 506.366 45.902 507.734 45.902C509.102 45.902 510.204 47.004 510.204 48.372C510.204 49.74 509.102 50.842 507.734 50.842C506.366 50.842 505.264 49.74 505.264 48.372ZM493.465 54.604C494.016 54.129 494.434 53.73 495.023 53.141C495.878 52.286 497.36 50.424 498.671 48.866C499.811 47.517 500.932 47.308 502.395 48.695C503.687 49.911 505.131 51.412 506.271 52.647C507.544 54.015 509.501 56.105 510.964 57.663L508.855 59.924C507.582 58.347 505.986 56.371 504.865 55.06C503.744 53.749 502.072 51.906 501.388 51.203C500.761 50.595 500.362 50.633 499.83 51.317C499.07 52.286 497.74 54.148 496.961 55.193C496.524 55.782 496.087 56.466 495.745 56.96L493.465 54.604ZM513.909 51.203C514.612 51.26 515.98 51.336 516.968 51.336C519.21 51.336 525.48 51.336 527.171 51.336C528.064 51.336 528.9 51.241 529.413 51.203V54.205C528.957 54.186 527.988 54.091 527.19 54.091C525.461 54.091 519.21 54.091 516.968 54.091C515.904 54.091 514.631 54.148 513.909 54.205V51.203ZM535.193 45.56C536.504 46.453 538.974 48.429 540.095 49.588L538.157 51.564C537.169 50.5 534.775 48.429 533.388 47.479L535.193 45.56ZM532.799 58.214C535.782 57.796 538.233 56.827 540.076 55.744C543.325 53.806 545.795 50.918 547.011 48.353L548.474 51.013C547.049 53.597 544.522 56.219 541.463 58.062C539.525 59.221 537.074 60.266 534.414 60.722L532.799 58.214Z" fill="black"/>
<g clip-path="url(#clip1_1_1602)">
<path d="M679.097 172.822C679.549 172.583 681.148 172.762 680.439 171.738C679.512 170.728 679.557 169.166 679.753 167.895C680.183 166.691 681.57 167.618 682.482 167.513C684.548 168.268 686.32 169.771 688.174 171.207C695.593 166.377 703.321 161.681 710.664 156.41C708.802 154.384 705.273 152.485 704.452 149.465C702.883 146.765 701.232 143.992 700.335 140.971C696.091 137.382 690.451 136.365 688.597 130.78C688.22 126.93 686.591 121.554 690.806 119.423C693.52 118.302 696.95 119.012 699.189 120.948C701.858 113.659 704.519 106.301 710.023 100.268C713.936 94.5032 719.96 88.1554 726.911 86.533C727.59 86.361 728.049 86.6451 728.291 87.0863C728.924 88.2526 727.801 89.2545 728.2 90.3611C732.06 85.8601 737.036 84.1479 742.163 82.0619C743.98 81.86 745.955 81.9498 746.747 83.5572C746.928 84.9629 745.586 86.4134 745.465 87.7592C747.863 85.9049 750.494 84.7087 753.283 83.6619C754.346 83.7815 755.56 83.8189 756.043 84.918C756.676 86.3087 755.718 87.6022 755.666 88.9405C758.372 87.4451 760.988 85.3591 764.411 85.8526C766.492 87.4227 765.776 89.748 765.595 92.0583C765.618 93.0975 763.665 94.1966 765.195 95.0415C773.496 100.357 777.386 108.858 778.246 117.973C778.638 118.481 778.125 119.46 778.736 119.887C780.507 117.307 783.523 116.328 786.569 116.679C788.25 117.374 788.967 119.057 788.929 120.769C789.306 128.261 783.817 134.892 777.597 139.236C776.76 139.259 777.243 140.365 776.715 140.747C776.338 144.62 773.127 147.543 771.604 151.005C770.933 151.693 770.103 151.79 769.508 152.702C777.537 155.73 785.642 158.601 792.518 164.635V165.083C794.493 164.725 796.144 163.708 798.428 164.014C799.763 162.564 800.245 160.022 802.756 160.171C808.832 160.209 813.906 163.618 819.124 166.362C820.352 167.065 819.47 168.508 819.335 169.48C814.713 177.57 809.782 185.592 805.387 193.824C802.032 196.972 799.137 192.456 795.646 192.635C792.578 190.871 788.559 191.289 786.29 188.014C787.15 185.465 788.778 183.259 789.788 180.777C788.409 179.999 789.049 177.898 787.15 177.734C783.169 176.074 778.675 175.469 774.333 174.706C774.318 177.607 773.383 180.381 773.586 183.199C772.825 186.788 772.968 190.572 771.981 194.243C771.325 195.82 771.596 197.824 770.714 199.334C770.149 205.517 766.537 210.975 764.833 216.897C765.602 217.465 766.884 216.912 767.721 217.256C772.124 217.346 776.022 218.639 779.776 220.306C780.771 220.867 781.096 221.974 780.741 222.953C777.251 226.699 772.448 226.026 767.6 226.475C762.745 226.774 758.176 226.019 753.306 225.421C752.409 226.191 752.296 228.127 750.622 227.88C747.651 227.521 744.847 227.761 741.499 227.417C740.482 225.809 740.135 223.671 740.474 221.652C743.083 219.267 741.718 215.521 741.213 212.718C741.477 210.848 741.432 208.553 739.894 207.409C737.157 211.133 734.526 216.187 736.659 220.733C737.247 223.536 735.159 225.682 733.613 227.806L721.769 228.015C720.254 228.209 721.445 226.759 721.279 226.101C720.653 225.002 719.764 226.37 718.852 226.176C717.721 226.505 716.205 226.849 714.924 227.185C709.473 227.948 703.11 228.807 699.234 224.837C699.069 223.948 698.744 223.215 699.34 222.46C703.374 219.29 708.214 218.034 713.205 216.987L713.8 216.523C710.099 209.652 708.123 201.839 706.834 194.153C705.432 188.628 705.243 182.908 705.439 177.405C702.868 178.153 699.928 178.908 697.448 180.171C697.387 180.844 697.237 180.919 696.867 181.525C696.483 181.315 695.789 180.59 695.186 181.128C694.138 181.981 694.161 183.162 693.572 184.149C690.994 188.014 687.813 192.493 683.44 194.115C682.083 194.601 681.231 193.592 680.53 192.717C680.439 192.052 680.65 191.304 680.341 190.788C679.369 191.484 678.404 192.478 677.024 191.925C675.569 191.446 675.923 189.801 676.051 188.687C676.345 188.306 676.489 187.783 676.632 187.334C675.493 187.371 673.684 188.014 672.824 186.557C673.179 185.211 673.533 183.932 674.423 182.796C673.428 182.377 671.844 182.945 671.362 181.555C670.344 180.097 671.686 178.796 672.191 177.517C674.347 175.371 676.609 174.34 679.082 172.852L679.097 172.822Z" fill="black"/>
<path d="M675.968 175.887C677.921 174.938 679.64 173.472 681.992 173.33C682.965 172.635 681.585 171.857 681.344 171.125C681.095 170.242 680.552 169.442 680.839 168.612C683.04 168.545 685.046 170.048 686.817 171.7C689.313 174.968 691.725 178.235 693.392 181.899C691.952 186.026 688.31 189.779 684.639 192.568C683.885 192.964 683.055 193.136 682.211 192.792C680.816 191.424 682.686 189.876 683.04 188.456C682.188 187.738 681.532 189.166 680.628 189.271C679.655 189.966 678.773 191.334 677.469 190.856C676.451 189.323 677.868 187.947 678.449 186.669C678.894 186.063 679.798 185.659 679.625 184.852C677.8 184.904 676.33 187.035 674.189 186.355C674.295 183.902 676.775 182.639 677.567 180.605C675.893 180.508 673.963 182.571 672.41 181.054C672.056 178.616 674.385 177.353 675.953 175.895L675.968 175.887Z" fill="#FFE3CA"/>
<path d="M679.851 95.2359C681.359 94.6676 682.452 96.1256 683.817 96.3051C684.752 97.6135 687.926 96.7761 687.066 99.1761C684.684 97.9125 682.241 96.948 679.866 95.8265L679.851 95.2284V95.2359Z" fill="black"/>
<path d="M690.904 170.975C692.065 172.126 692.329 173.981 693.723 175.199L695.789 179.745C695.261 179.984 694.967 180.59 694.281 180.388C692.932 177.532 690.685 175.072 689.109 172.373C689.245 171.551 690.308 171.446 690.904 170.983V170.975Z" fill="white"/>
<path d="M691.13 120.746C693.158 119.498 695.902 120.156 697.817 121.135C699.74 122.264 698.269 124.911 698.533 126.608C699.069 130.676 697.704 134.586 699.37 138.466C695.465 136.799 690.549 134.055 689.63 129.554C689.645 126.436 688.363 122.907 691.13 120.739V120.746Z" fill="#FFE3CA"/>
<path d="M692.396 123.386C694.357 122.803 696.053 124.089 697.297 125.464C697.38 125.905 697.237 126.062 696.86 126.219C695.774 125.061 694.696 124.208 693.18 124.253C691.529 125.345 693.158 126.855 693.105 128.118C693.06 129.606 695.05 130.362 694.696 131.782C692.17 130.743 691.959 127.707 691.228 125.352C691.137 124.537 691.884 123.999 692.404 123.386H692.396Z" fill="black"/>
<path d="M692.404 170.04C699.084 165.973 705.281 160.807 712.202 157.405C714.283 158.825 718.377 158.706 718.218 162.123C720.126 166.444 722.644 170.975 727.258 173.734C730.047 172.829 730.356 169.255 732.762 167.917C733.199 171.02 734.473 173.958 734.759 176.919C732.988 183.289 730.982 189.592 728.751 195.82L729.075 196.852C721.407 196.934 715.082 195.566 708.055 193.63C706.947 187.573 705.861 182.407 706.804 176.134C706.487 175.626 705.658 175.872 705.281 176.029C702.65 177.3 699.777 178.056 696.988 179.102C696.03 176.829 695.224 174.399 693.369 172.523C693.052 171.715 692.879 170.758 692.411 170.026L692.404 170.04Z" fill="white"/>
<path d="M692.886 78.6451C695.035 79.8413 696.37 82.1815 698.006 83.9909C697.938 84.5143 698.254 85.247 697.734 85.6358C696.626 83.146 693.851 81.3666 692.592 78.9591L692.894 78.6525L692.886 78.6451Z" fill="black"/>
<path d="M701.926 221.899C705.922 220.291 709.835 218.617 714.14 217.667C720.895 217.54 727.891 218.213 734.503 218.534C735.438 219.843 736.011 221.757 735.355 223.409C734.692 224.471 733.802 225.458 733.289 226.594C729.422 226.639 726.006 227.043 722.357 226.632C722.267 225.817 723.157 224.748 722.154 224.112C721.242 224.142 720.729 224.897 719.892 225.069C714.079 226.804 706.065 228.464 700.607 225.062C698.986 223.85 700.78 222.385 701.911 221.899H701.926Z" fill="#231815"/>
<path d="M700.848 120.455C707.452 120.552 713.084 121.12 719.56 122.115C719.764 124.859 720.201 127.52 723.036 128.993C725.727 130.623 729.241 131.849 732.475 130.339C736.463 128.507 737.368 124.246 737.594 120.38C739.238 119.214 742.11 118.533 744.108 119.588C745.194 120.597 744.085 122.189 744.033 123.453C745.088 126.989 747.591 130.623 751.331 131.7C754.663 131.453 757.988 130.384 759.594 127.289C760.536 125.18 761.335 123.079 761.132 120.56C766.809 119.498 771.664 119.498 777.039 118.593C778.268 126.952 777.251 137.008 773.911 144.986C771.988 147.715 770.835 150.579 767.834 152.448C761.531 156.134 755.462 160.403 747.81 161.076C735.325 163.461 722.244 162.078 712.323 155.618L711.87 155.633C709.013 153.27 705.779 150.99 705.032 147.521C702.454 143.737 701.149 139.393 699.928 135.049C700.433 130.055 699.657 124.956 700.855 120.462L700.848 120.455Z" fill="#FFE3CA"/>
<path d="M721.362 90.4134C723.164 89.3218 724.883 88.0807 727.084 87.8638C726.753 90.2489 726.353 93.2321 724.498 95.3705C724.506 95.9686 724.898 96.4695 725.433 96.6789C726.413 96.2004 726.157 95.0191 726.753 94.2639C730.296 88.9554 735.845 85.4414 741.726 83.4077C743.015 83.3703 744.749 82.8694 745.691 84.1778C744.907 86.9517 742.834 89.3143 741.899 92.0209C742.442 92.8209 742.804 91.6246 743.407 91.677C746.144 88.1779 749.966 85.389 754.211 84.9629C754.821 84.9479 755.063 85.6806 755.296 86.1218C754.889 88.7311 753.336 90.7872 751.474 92.6265C751.255 93.0751 751.791 93.3592 752.1 93.5013C753.758 92.7835 754.776 90.7424 756.586 89.8003C758.764 88.619 761.313 86.7573 763.974 87.1984C765.602 89.0825 764.366 91.7891 763.65 93.748C762.519 94.1518 762.7 95.5574 762.338 96.4621C762.881 97.1125 763.009 95.7742 763.552 96.4247L764.147 95.8116C771.754 100.559 776.014 108.672 776.866 117.262C771.875 118.085 766.251 117.958 761.117 119.229C760.295 115.909 757.136 113.778 753.864 113.21C750.064 113.03 746.92 115.431 745.465 118.668C743.234 117.098 739.667 117.434 737.421 118.765C736.388 116.193 733.606 113.756 730.779 113.023C726.986 113.135 722.832 114.451 720.857 118.077C719.809 118.78 720.699 121.718 718.475 120.53C712.843 119.954 706.834 119.318 701.587 118.817C704.791 107.946 712.029 97.6957 721.377 90.4358L721.362 90.4134Z" fill="#FFE3CA"/>
<path d="M708.229 195.11C711.893 196.187 716.077 196.725 719.967 197.577C723.383 197.697 726.888 198.108 730.153 198.011C733.086 200.523 736.018 202.811 739.094 205.017C739.479 205.301 740.007 205.061 740.467 205.121C742.465 202.459 744.613 199.648 746.536 197.061C754.045 196.762 762.692 196.276 770.639 194.841C769.5 202.527 766.681 209.667 763.326 216.605C761.833 217.839 759.835 216.934 758.176 217.353C753.102 217.951 748.383 217.428 743.437 216.912C741.861 213.839 744.101 208.276 740.037 206.168C737.466 206.766 737.074 209.749 735.89 211.641L734.48 217.032C727.959 217.376 721.566 216.605 715.18 216.134C712.677 212.493 711.071 208.015 710.385 203.947C709.194 201.159 709.051 197.973 708.236 195.095L708.229 195.11Z" fill="#175296"/>
<path d="M713.144 66.2935L713.604 66.4281C714.569 69.0748 715.61 71.9384 715.745 74.8319C713.8 72.5889 713.74 69.3216 712.7 66.6075L713.152 66.2935H713.144Z" fill="black"/>
<path d="M719.553 160.747C724.061 162.317 728.864 163.214 733.877 163.431C731.812 166.392 729.738 169.278 727.371 172.246L726.76 172.119C723.209 169.031 721.159 165.382 719.417 161.495L719.553 160.747Z" fill="white"/>
<path d="M724.446 116.171C727.084 115.124 730.078 113.18 732.784 115.326C734.48 116.462 735.724 118.062 736.214 119.827C736.426 122.862 735.883 126.152 733.342 128.238C730.191 130.264 726.225 129.419 723.307 127.647C721.226 126.003 720.797 123.416 721.204 120.874C721.701 119.004 723.262 117.539 724.453 116.171H724.446Z" fill="white"/>
<path d="M726.904 101.83C728.788 101.105 731.141 100.881 732.535 102.406C734.005 103.774 735.023 105.524 735.061 107.378C734.774 108.201 733.855 107.789 733.395 107.58C732.452 106.122 732.189 104.2 730.424 103.214C728.208 102.391 726.881 104.657 725.464 105.741C725.102 106.645 724.898 107.692 724.152 108.455C723.541 108.395 722.855 108.126 722.764 107.453C723.405 105.202 724.649 103.086 726.904 101.83Z" fill="black"/>
<path d="M728.653 144.717C729.03 144.41 729.64 144.612 730.168 144.522C731.254 145.532 732.844 145.479 734.292 145.584C739.841 146.01 744.689 145.42 750.072 144.956C750.833 144.934 751.866 143.565 752.348 144.889C751.527 149.517 748.338 153.405 744.063 155.835C742.261 156.709 739.833 156.926 737.851 156.47C733.485 154.668 730.59 150.152 729.444 145.876C729.06 145.592 728.065 145.397 728.66 144.709L728.653 144.717Z" fill="black"/>
<path d="M729.693 120.47C730.304 120.672 731.133 120.5 731.382 121.307C731.48 122.346 731.118 123.169 730.055 123.431C729.369 123.378 728.683 123.102 728.366 122.444C727.967 121.561 728.939 120.791 729.693 120.47Z" fill="black"/>
<path d="M733.945 190.026C737.293 186.579 740.791 182.833 744.07 179.76C744.711 181.599 744.756 183.828 745.397 185.659C741.537 190.16 737.82 194.287 733.659 198.646C732.43 198.018 730.975 197.091 730.417 195.775C730.522 193.472 732.075 191.416 733.945 190.026Z" fill="#FDD000"/>
<path d="M730.967 146.429C736.297 147.162 741.831 146.915 747.214 146.534C748.345 146.13 749.642 146.608 750.848 145.98C749.808 150.84 745.02 154.773 740.105 155.521C736.539 155.775 734.201 152.433 732.407 149.958C732.151 148.702 730.997 147.775 730.975 146.436L730.967 146.429Z" fill="#B44E26"/>
<path d="M734.684 181.233C735.747 181.054 734.518 180.351 735.114 179.88C736.003 178.736 735.747 177.188 736.403 175.977C738.996 176.493 741.009 174.721 743.377 175.469C744.719 177.876 742.465 179.431 741.062 181.181C738.009 184.171 735.174 186.93 732.271 189.772C733.123 186.773 734.066 184.366 734.684 181.226V181.233Z" fill="white"/>
<path d="M741.718 191.424H742.02C743.512 190.183 744.387 188.373 745.88 187.14C748.609 190.99 743.889 193.884 742.427 197.054C740.783 198.587 739.539 200.852 737.67 202.25L734.435 199.82C736.893 197.443 739.404 193.876 741.711 191.424H741.718Z" fill="white"/>
<path d="M735.853 163.371C739.079 165.203 742.02 168.239 744.357 170.99C743.701 172.493 743.445 174.953 741.077 174.212C739.569 174.781 737.745 174.534 736.079 174.661C735.114 171.94 734.616 169.652 733.953 166.848C734.382 165.644 734.661 164.373 735.86 163.371H735.853Z" fill="#FDD000"/>
<path d="M742.472 198.975C743.867 196.702 745.495 194.504 747.048 192.299C748.277 193.151 746.777 194.093 746.649 194.983C744.508 197.944 742.05 200.62 740.142 203.798C739.765 203.955 739.306 203.603 738.921 203.387C739.879 201.727 740.979 200.059 742.48 198.968L742.472 198.975Z" fill="#FDD000"/>
<path d="M742.826 162.863C743.626 164.844 747.689 166.803 744.93 169.338C742.615 167.625 740.678 165.308 738.431 163.147C739.871 163.027 741.469 163.199 742.826 162.863Z" fill="white"/>
<path d="M743.769 218.4C750.381 218.938 756.766 219.043 763.514 218.691L763.808 218.235C768.603 218.759 774.371 218.654 778.743 221.054C779.279 221.338 779.821 221.839 779.837 222.505C777.53 224.875 774.024 224.389 770.925 225.002C764.253 225.578 758.704 224.927 752.68 223.925C752.017 224.912 751.738 226.258 750.614 226.811C747.885 226.893 744.832 226.392 742.103 226.475C740.527 223.701 742.065 220.68 743.769 218.4Z" fill="#231815"/>
<path d="M739.615 61.0374L739.924 61.3215C739.901 64.0729 739.577 66.6823 739.773 69.0524C739.328 69.4412 738.635 68.9403 738.702 68.4917L738.883 62.0991L738.423 61.8149C738.8 61.5832 739.012 60.828 739.622 61.0374H739.615Z" fill="black"/>
<path d="M746.581 168.538C747.817 169.764 748.488 172.717 750.607 172.575C753.08 171.012 754.007 168.014 755.945 165.876C757.724 163.67 758.968 161.33 760.521 159.05L760.506 158.309C762.602 156.762 765.014 156.089 766.952 154.25C770.337 152.739 773.217 156.066 776.565 156.485C781.081 158.28 785.446 160.373 789.457 163.521C788.122 165.196 788.084 167.274 787.135 169.091C786.418 171.192 784.858 172.949 784.217 175.125C783.003 175.087 781.39 174.168 779.95 174.362C777.507 173.697 774.778 173.779 772.621 172.358C772.011 172.156 771.491 172.612 771.272 173.143C771.362 174.033 772.35 173.854 772.818 174.437C773.059 179.184 772.32 183.962 771.423 188.448C771.679 190.078 771.106 191.723 770.91 193.368C765.308 194.355 759.021 195.14 753.193 195.686C751.67 195.439 749.25 195.805 747.727 195.558C749.966 193.637 747.712 191.102 747.75 188.874C746.212 184.164 745.435 179.214 744.576 174.265C744.689 172.179 746.098 170.504 746.588 168.56L746.581 168.538Z" fill="white"/>
<path d="M744.802 162.803C749.725 162.205 754.324 160.657 758.847 159.109C757.106 163.102 753.675 166.474 751.474 170.325L750.434 171.394C748.179 168.784 746.83 165.562 744.802 162.795V162.803Z" fill="white"/>
<path d="M749.793 115.401C752.13 114.436 755.085 114.272 757.241 115.767C759.707 117.472 760.295 120.425 759.82 123.416C759.028 125.517 758.47 128.059 755.982 129.18C754.241 129.532 752.748 130.616 750.833 130.077C750.592 129.195 749.303 129.457 748.684 128.806C746.905 127.079 744.809 124.761 745.661 121.771C746.679 119.363 747.471 117.188 749.785 115.408L749.793 115.401Z" fill="white"/>
<path d="M750.426 101.12C752.16 100.402 754.128 100.268 755.598 101.554C757.83 103.266 758.87 105.913 758.463 108.447C757.943 108.836 757.483 108.627 756.947 108.492C755.93 106.967 756.495 104.716 754.723 103.505C754.022 102.638 752.952 102.219 751.972 102.548C750.388 103.266 748.82 104.649 748.858 106.503C748.858 106.802 748.413 107.109 748.111 107.266C747.584 107.356 747.048 107.221 746.89 106.705C746.769 104.328 748.398 102.279 750.426 101.098V101.12Z" fill="black"/>
<path d="M751.24 119.67C752.07 119.423 752.763 119.849 753.08 120.507C753.095 121.322 753.185 122.062 752.514 122.608C751.685 122.78 750.841 122.511 750.524 121.778C749.83 121.128 750.26 119.857 751.24 119.677V119.67Z" fill="black"/>
<path d="M767.306 63.9084C767.45 63.6093 767.834 63.8187 768.06 63.7365C767.879 66.2711 766.258 68.6187 766.085 71.3777L765.173 71.4076C765.422 68.7234 766.899 66.5253 767.306 63.9159V63.9084Z" fill="black"/>
<path d="M779.218 121.636C780.244 119.819 781.812 118.287 783.855 117.928C784.993 118.04 787.104 117.307 787.519 119.154C788.65 126.399 784.164 133.891 777.711 137.726C778.668 132.35 779.173 127.132 779.218 121.636Z" fill="#FFE3CA"/>
<path d="M778.774 83.4675C780.711 81.7778 781.963 79.6544 783.983 78.1067C785.001 79.5647 782.498 79.8563 782.37 81.1273L778.796 84.7984L777.733 84.6862C777.567 84.0956 778.48 83.9984 778.774 83.4675Z" fill="black"/>
<path d="M783.772 121.352C784.534 121.554 785.378 121.973 785.619 122.78C785.679 125.898 783.523 128.193 782.136 130.758C781.676 130.623 781.39 131.52 781.073 130.788C780.824 129.756 782.264 129.412 782.392 128.522C783.267 126.638 785.204 124.799 784.405 122.668C783.712 122.017 782.807 122.646 782.128 122.885C781.834 123.341 781.156 123.804 780.771 123.221C781.201 122.017 782.717 121.823 783.772 121.345V121.352Z" fill="black"/>
<path d="M790.233 164.396C790.919 164.523 791.078 164.964 791.62 165.39C790.248 168.852 788.642 172.239 787.881 175.902C787.444 176.732 786.358 175.723 785.597 175.678C787.195 171.917 789.246 168.358 790.233 164.396Z" fill="white"/>
<path d="M795.42 173.45C795.352 173.898 795.511 174.19 795.895 174.474C797.034 174.287 798.021 174.556 798.798 175.274C798.436 176.321 797.395 177.173 797.184 178.295C798.104 178.639 798.549 178.325 798.994 177.495C799.582 176.732 800.554 175.663 800.155 174.639C798.768 173.786 797.388 172.717 795.722 173.136C795.639 172.62 796.385 172.149 797.071 172.201C798.888 171.775 800.818 169.711 802.665 170.99C803.736 171.326 804.731 171.895 805.726 172.381C807.868 173.285 810.024 174.773 812.595 174.108C813.695 172.141 816.553 170.646 815.821 168.216L815.045 167.199C810.974 164.949 806.767 163.065 802.04 162.392C801.67 162.923 800.999 163.386 800.856 164.059C800.63 163.992 800.396 163.85 800.095 163.932C800.683 163.02 801.271 161.891 802.477 161.33C808.621 161.143 813.175 164.867 818.385 167.087C819.161 167.805 818.34 168.725 818.128 169.472C815.339 174.459 812.632 179.521 809.466 184.441C808.086 187.678 805.862 190.564 804.03 193.667C801.376 193.899 799.137 192.104 796.551 191.813C793.943 190.258 790.678 190.355 788.281 188.201C788.273 187.753 788.265 187.312 787.956 187.02C790.369 182.414 792.631 177.816 795.435 173.42L795.42 173.45Z" fill="#D1D1D2"/>
<path d="M792.563 166.848C794.214 165.756 796.777 164.934 798.768 165.622C800.042 164.986 801.723 165.457 802.876 166.093C802.99 167.947 801.271 169.263 799.763 170.048C798.247 170.168 796.747 171.252 795.375 170.923C793.762 173.644 792.141 176.373 790.527 179.095C789.615 178.826 789.434 177.719 789.117 176.912C790.263 173.532 790.723 169.951 792.563 166.855V166.848Z" fill="#FFE3CA"/>
<path d="M792.284 98.6602C794.078 97.4191 795.88 96.1705 797.674 94.9294L798.436 94.9069C798.994 96.3051 796.34 96.5294 795.458 97.8228C793.513 99.221 791.402 100.178 788.982 100.544C788.673 100.402 788.597 100.111 788.665 99.8117C789.788 99.1836 791.078 99.0715 792.284 98.6602Z" fill="black"/>
<path d="M794.169 179.132C795.164 179.551 796.385 180.029 797.682 180.216C798.443 180.418 797.931 181.173 797.863 181.697C797.501 182.527 796.913 183.656 796.084 183.977C794.546 182.983 796.883 182.317 796.943 181.428C796.091 180.56 794.199 180.919 793.867 179.439L794.169 179.132Z" fill="black"/>
<path d="M796.74 186.482C797.584 186.975 798.647 187.095 799.348 188.037C798.602 188.874 798.564 190.661 797.124 190.631C796.423 189.764 797.931 189.046 798.293 188.216C797.448 187.648 796.604 187.379 795.541 187.11C795.45 186.37 796.212 186.272 796.74 186.482Z" fill="black"/>
<path d="M801.233 183.222C800.622 182.871 799.861 182.818 799.386 182.093C799.974 181.039 800.833 182.123 801.512 182.175C802.733 182.512 802.454 183.708 801.859 184.396C800.954 184.867 800.773 187.028 799.461 185.951C799.665 184.829 800.946 184.194 801.233 183.222Z" fill="black"/>
<path d="M801.376 175.05C802.515 175.162 803.442 175.805 804.437 176.441C804.92 177.764 803.495 178.923 802.99 179.902L802.228 179.925C801.972 178.669 803.789 178.168 803.532 176.912C802.907 176.037 801.776 176.298 801.075 175.648L801.369 175.042L801.376 175.05Z" fill="black"/>
<path d="M802.673 163.715C806.797 164.852 810.996 166.063 814.608 168.553C814.645 170.631 812.542 171.513 811.66 173.248C808.312 172.979 805.613 170.833 802.628 169.659C803.291 168.672 804.105 167.536 804.384 166.339C804.068 165.457 803.208 164.373 802.221 164.179L802.665 163.715H802.673Z" fill="white"/>
<path d="M805.372 185.33C804.98 184.822 804 185.226 803.985 184.336C804.513 183.947 805.5 184.291 806.118 184.568C806.503 184.852 806.661 185.218 806.593 185.742C805.236 186.302 804.754 188.844 803.148 188.074C803.585 187.17 804.626 186.1 805.372 185.33Z" fill="black"/>
<path d="M806.066 182.041C807.196 181.562 807.242 180.149 808.139 179.304C807.89 178.347 806.458 178.684 806.586 177.57C807.641 177.091 808.35 178.407 809.194 178.826C809.074 180.239 807.95 181.315 807.294 182.594C806.835 182.385 806.156 182.631 806.066 182.033V182.041Z" fill="black"/>
<path d="M749.393 174.766C749.001 174.766 748.677 175.087 748.677 175.483V187.768C748.677 188.164 748.971 188.62 749.325 188.792L756.932 192.463C757.287 192.635 757.875 192.635 758.229 192.463L765.949 188.785C766.304 188.613 766.598 188.157 766.598 187.76V175.476C766.598 175.08 766.273 174.758 765.874 174.758H749.393V174.766ZM752.997 188.523C751.776 188.523 750.78 187.536 750.78 186.325C750.78 185.113 751.776 184.127 752.997 184.127C754.218 184.127 755.213 185.113 755.213 186.325C755.213 187.536 754.218 188.523 752.997 188.523ZM762.285 188.523C761.064 188.523 760.069 187.536 760.069 186.325C760.069 185.113 761.064 184.127 762.285 184.127C763.507 184.127 764.502 185.113 764.502 186.325C764.502 187.536 763.507 188.523 762.285 188.523ZM763.831 179.685V182.743H759.194V190.803H755.937V182.691H750.924L750.856 179.431H755.937V176.022H759.194V179.484H761.275C760.792 179.08 760.483 178.474 760.483 177.794C760.483 176.583 761.479 175.596 762.7 175.596C763.921 175.596 764.916 176.583 764.916 177.794C764.916 178.594 764.479 179.297 763.831 179.678V179.685Z" fill="#2175D6"/>
<path d="M762.7 176.867C762.18 176.867 761.757 177.285 761.757 177.801C761.757 178.317 762.18 178.736 762.7 178.736C763.22 178.736 763.642 178.317 763.642 177.801C763.642 177.285 763.22 176.867 762.7 176.867Z" fill="#2175D6"/>
<path d="M735.476 131.58C738.439 129.061 742.427 128.702 745.631 130.436C746.641 131.229 747.976 132.231 747.938 133.734C748.971 137.464 743.234 142.474 736.712 139.894C734.79 139.304 733.719 137.449 733.621 135.655C733.199 134.855 734.624 132.694 735.468 131.588L735.476 131.58Z" fill="black"/>
<path d="M741.409 130.541C743.03 130.855 745.42 131.147 746.468 132.836C747.146 134.22 747.056 135.857 746.023 137.135C744.87 138.519 735.136 140.635 734.827 135.954C734.616 132.747 738.393 130.96 741.409 130.533V130.541Z" fill="#FFE3CA"/>
</g>
<path d="M233.256 103.498L231.69 104.884C231.168 104.056 229.962 102.886 228.9 102.094L230.376 100.87C231.42 101.59 232.68 102.688 233.256 103.498ZM232.86 105.118L233.436 106.828C232.194 107.602 230.79 108.448 229.656 109.078L228.594 107.314C229.674 106.828 231.276 105.964 232.86 105.118ZM235.47 105.892V107.116H238.422V105.892H235.47ZM238.422 104.362V103.174H235.47V104.362H238.422ZM245.01 111.796H239.826C241.32 112.948 243.444 113.92 245.46 114.46C245.01 114.892 244.362 115.738 244.038 116.26C241.932 115.558 239.718 114.28 238.062 112.768V116.53H235.902V112.714C234.282 114.316 232.086 115.63 229.98 116.404C229.638 115.846 228.99 115.036 228.54 114.604C230.556 114.046 232.644 113.002 234.138 111.796H229.008V109.942H235.902V108.736H233.49V101.536H235.614C235.776 100.942 235.92 100.258 235.992 99.754L238.368 100.006C238.17 100.546 237.954 101.068 237.774 101.536H240.51V103.336C241.374 102.598 242.454 101.482 243.102 100.636L244.938 101.734C243.984 102.778 242.832 103.84 241.914 104.56L240.51 103.624V105.856L241.302 104.956C242.634 105.604 244.506 106.684 245.424 107.422L244.11 109.024C243.336 108.34 241.806 107.35 240.51 106.63V108.736H238.062V109.942H245.01V111.796ZM255.954 108.178V106.072C256.944 105.982 258.222 105.892 259.374 105.892C260.382 105.892 261.462 105.946 262.506 106.054L262.452 108.196C261.57 108.088 260.472 107.98 259.392 107.98C258.15 107.98 257.07 108.034 255.954 108.178ZM257.358 102.454V104.704C256.296 104.938 255.09 105.136 253.902 105.28C253.74 106.054 253.56 106.846 253.362 107.566C252.714 110.068 251.508 113.722 250.536 115.81L248.034 114.982C249.096 113.2 250.446 109.456 251.112 106.954C251.238 106.486 251.364 105.982 251.49 105.478C251.076 105.496 250.68 105.514 250.32 105.514C249.456 105.514 248.79 105.478 248.16 105.442L248.106 103.21C249.024 103.318 249.618 103.354 250.356 103.354C250.878 103.354 251.4 103.336 251.94 103.3C252.012 102.904 252.066 102.562 252.102 102.274C252.192 101.608 252.21 100.888 252.174 100.474L254.892 100.69C254.766 101.176 254.604 101.968 254.514 102.364L254.37 103.048C255.378 102.886 256.386 102.688 257.358 102.454ZM254.856 110.356L256.998 110.554C256.854 111.058 256.746 111.652 256.746 112.048C256.746 112.822 257.196 113.398 259.104 113.398C260.292 113.398 261.534 113.272 262.812 113.038L262.722 115.324C261.714 115.45 260.508 115.576 259.086 115.576C256.08 115.576 254.55 114.532 254.55 112.732C254.55 111.922 254.712 111.058 254.856 110.356ZM270.714 109.078C270.714 109.906 271.38 110.41 272.082 110.41C272.82 110.41 273.486 109.852 273.252 108.304C273 107.872 272.586 107.674 272.082 107.674C271.398 107.674 270.714 108.142 270.714 109.078ZM280.218 102.616L280.2 104.722C279.12 104.668 277.446 104.632 275.034 104.632C275.052 105.532 275.052 106.504 275.052 107.278C275.502 107.944 275.718 108.808 275.718 109.744C275.718 112.066 274.35 115.018 269.994 116.242L268.104 114.334C269.904 113.956 271.47 113.362 272.46 112.3C272.208 112.354 271.938 112.39 271.65 112.39C270.264 112.39 268.572 111.292 268.572 109.114C268.572 107.098 270.192 105.784 272.136 105.784C272.388 105.784 272.622 105.802 272.838 105.838L272.82 104.65C270.12 104.686 267.366 104.794 265.17 104.92L265.116 102.76C267.15 102.76 270.39 102.67 272.784 102.634C272.784 102.418 272.784 102.22 272.766 102.094C272.73 101.518 272.676 100.834 272.604 100.546H275.196C275.142 100.834 275.088 101.788 275.07 102.076C275.07 102.22 275.052 102.4 275.052 102.616C276.852 102.616 279.282 102.598 280.218 102.616ZM297.318 102.832C297.876 102.832 298.344 102.364 298.344 101.806C298.344 101.23 297.876 100.762 297.318 100.762C296.742 100.762 296.274 101.23 296.274 101.806C296.274 102.364 296.742 102.832 297.318 102.832ZM285.834 102.22H294.168C294.42 102.22 294.798 102.202 295.194 102.148C295.176 102.04 295.158 101.932 295.158 101.806C295.158 100.618 296.13 99.646 297.318 99.646C298.488 99.646 299.46 100.618 299.46 101.806C299.46 102.976 298.488 103.948 297.318 103.948C297.246 103.948 297.156 103.948 297.084 103.93L296.94 104.47C296.526 106.234 295.752 109.024 294.24 111.022C292.62 113.182 290.226 114.964 287.004 115.99L285.042 113.848C288.624 113.002 290.64 111.454 292.098 109.618C293.286 108.124 293.97 106.09 294.222 104.542H285.834C285.006 104.542 284.16 104.578 283.692 104.614V102.076C284.214 102.148 285.24 102.22 285.834 102.22ZM314.31 105.424L315.912 106.414C315.786 106.648 315.642 106.972 315.57 107.17C315.03 108.916 314.256 110.662 312.906 112.156C311.088 114.172 308.784 115.396 306.48 116.044L304.68 114.01C307.398 113.452 309.558 112.264 310.926 110.86C311.898 109.87 312.456 108.754 312.78 107.746H304.086C303.654 107.746 302.754 107.764 301.998 107.836V105.496C302.754 105.568 303.528 105.604 304.086 105.604H312.996C313.572 105.604 314.058 105.532 314.31 105.424ZM303.654 103.516V101.194C304.158 101.266 304.914 101.284 305.526 101.284H312.456C313.014 101.284 313.896 101.266 314.4 101.194V103.516C313.914 103.48 313.068 103.462 312.42 103.462H305.526C304.95 103.462 304.176 103.48 303.654 103.516ZM330.284 101.698L331.76 102.796C331.616 102.994 331.292 103.552 331.13 103.912C330.518 105.316 329.51 107.242 328.304 108.862C330.086 110.41 332.264 112.714 333.326 114.01L331.274 115.792C330.104 114.172 328.43 112.336 326.738 110.698C324.83 112.714 322.436 114.586 319.97 115.756L318.116 113.812C321.014 112.714 323.804 110.536 325.496 108.646C326.684 107.296 327.782 105.514 328.178 104.236H322.076C321.32 104.236 320.33 104.344 319.952 104.362V101.806C320.438 101.878 321.536 101.932 322.076 101.932H328.412C329.204 101.932 329.924 101.824 330.284 101.698ZM344.702 112.408H342.56C342.596 111.886 342.614 111.058 342.632 110.284C341.318 111.004 340.598 111.706 340.598 112.588C340.598 113.578 341.444 113.848 343.19 113.848C344.702 113.848 346.682 113.65 348.248 113.326L348.176 115.648C346.988 115.792 344.81 115.936 343.136 115.936C340.346 115.936 338.24 115.27 338.24 112.966C338.24 110.698 340.4 109.258 342.434 108.214C342.146 107.764 341.678 107.602 341.192 107.602C340.184 107.602 339.086 108.178 338.402 108.826C337.862 109.366 337.358 110.014 336.746 110.788L334.838 109.366C336.71 107.638 337.97 106.054 338.762 104.47H338.546C337.826 104.47 336.512 104.434 335.54 104.344V102.256C336.44 102.4 337.772 102.454 338.672 102.454H339.536C339.752 101.644 339.878 100.924 339.896 100.42L342.236 100.618C342.146 101.05 342.02 101.662 341.804 102.382C343.478 102.292 345.278 102.148 346.844 101.86L346.826 103.948C345.116 104.2 342.92 104.344 341.012 104.416C340.724 105.046 340.364 105.694 339.986 106.216C340.454 105.982 341.408 105.856 342.002 105.856C343.082 105.856 343.982 106.324 344.378 107.242C345.296 106.81 346.052 106.504 346.79 106.18C347.474 105.874 348.104 105.568 348.752 105.262L349.652 107.332C349.076 107.476 348.14 107.836 347.528 108.088C346.736 108.394 345.728 108.79 344.63 109.294C344.648 110.284 344.684 111.598 344.702 112.408ZM365.888 100.528C365.33 100.528 364.898 100.96 364.898 101.5C364.898 102.04 365.33 102.49 365.888 102.49C366.428 102.49 366.86 102.04 366.86 101.5C366.86 100.96 366.428 100.528 365.888 100.528ZM365.888 103.588C364.736 103.588 363.8 102.652 363.8 101.5C363.8 100.348 364.736 99.43 365.888 99.43C367.04 99.43 367.958 100.348 367.958 101.5C367.958 102.652 367.04 103.588 365.888 103.588ZM355.052 107.584L357.086 108.538C356.258 110.14 354.602 112.498 353.612 113.56L351.668 112.228C352.874 111.076 354.314 109.096 355.052 107.584ZM365.366 105.982H361.154V114.352C361.154 115.396 360.56 116.044 359.282 116.044C358.31 116.044 357.266 115.99 356.348 115.882L356.132 113.65C356.906 113.794 357.698 113.866 358.13 113.866C358.598 113.866 358.778 113.686 358.796 113.218C358.814 112.552 358.814 106.846 358.814 106V105.982H354.242C353.702 105.982 353 106 352.496 106.054V103.66C353.036 103.732 353.684 103.804 354.242 103.804H358.814V102.364C358.814 101.896 358.724 101.104 358.652 100.798H361.316C361.28 101.05 361.154 101.914 361.154 102.364V103.804H365.348C365.852 103.804 366.644 103.75 367.112 103.678V106.036C366.554 106 365.852 105.982 365.366 105.982ZM362.864 108.592L364.826 107.53C365.744 108.682 367.184 110.95 367.904 112.264L365.78 113.416C365.006 111.868 363.728 109.69 362.864 108.592ZM376.292 103.678H384.05C384.518 103.678 385.328 103.66 385.922 103.552V106.018C385.256 105.946 384.464 105.946 384.05 105.946H381.53C381.206 110.734 379.334 113.938 376.076 115.99L373.646 114.37C374.294 114.1 374.942 113.722 375.356 113.362C377.246 111.922 378.74 109.708 379.028 105.946H375.23C374.51 107.26 373.412 108.79 372.332 109.726L370.064 108.358C371.342 107.404 372.494 105.784 373.178 104.65C373.682 103.822 374.006 102.886 374.222 102.202C374.42 101.644 374.564 100.96 374.6 100.348L377.372 100.906C377.174 101.356 376.94 101.986 376.796 102.364C376.652 102.742 376.49 103.21 376.292 103.678ZM395.138 104.29C395.48 105.064 396.362 107.404 396.614 108.232L394.454 108.988C394.238 108.106 393.446 105.928 392.996 104.992L395.138 104.29ZM399.242 104.794L401.78 105.604C401.564 106.18 401.456 106.558 401.348 106.918C400.88 108.736 400.124 110.608 398.9 112.192C397.226 114.352 394.976 115.864 392.87 116.656L390.98 114.73C392.96 114.208 395.462 112.84 396.956 110.968C398.18 109.438 399.044 107.044 399.242 104.794ZM390.962 105.244C391.412 106.162 392.276 108.34 392.636 109.348L390.44 110.176C390.134 109.204 389.234 106.81 388.802 106.018L390.962 105.244ZM416.27 108.376L415.244 110.86C413.39 109.888 410.69 108.844 408.746 108.178V113.272C408.746 113.794 408.836 115.054 408.908 115.774H406.1C406.208 115.072 406.28 113.992 406.28 113.272V102.94C406.28 102.292 406.226 101.392 406.1 100.762H408.908C408.836 101.392 408.746 102.184 408.746 102.94V105.586C411.158 106.288 414.614 107.566 416.27 108.376ZM420.266 110.284L422.03 110.59C421.85 112.282 421.472 114.082 420.95 115.234C420.572 115 419.78 114.622 419.312 114.46C419.834 113.398 420.122 111.796 420.266 110.284ZM424.172 110.608L425.684 110.14C426.134 111.166 426.602 112.48 426.8 113.38L425.216 113.956C425.054 113.056 424.586 111.67 424.172 110.608ZM432.416 112.084V114.19H436.358V116.062H426.188V114.19H430.31V112.084H427.25V110.194H430.31V108.052H432.416V110.194H435.62V112.084H432.416ZM432.974 102.418H429.482C429.914 103.21 430.508 103.93 431.21 104.56C431.912 103.93 432.506 103.21 432.974 102.418ZM434.432 100.492L435.872 101.14C435.224 103.048 434.216 104.578 432.938 105.802C434.018 106.414 435.26 106.882 436.628 107.17C436.178 107.584 435.602 108.394 435.314 108.898C433.802 108.484 432.452 107.89 431.3 107.098C430.076 107.908 428.69 108.52 427.196 108.988C426.962 108.502 426.476 107.71 426.062 107.26C426.404 108.034 426.692 108.808 426.8 109.384L425.288 110.068C425.234 109.798 425.162 109.492 425.054 109.15L424.136 109.222V116.584H422.282V109.348L419.672 109.51L419.492 107.656L420.788 107.602C421.058 107.26 421.346 106.864 421.634 106.45C421.112 105.676 420.248 104.722 419.51 104.002L420.536 102.544C420.662 102.652 420.806 102.778 420.95 102.904C421.454 101.914 421.958 100.726 422.264 99.772L424.118 100.456C423.47 101.68 422.75 103.066 422.102 104.074C422.336 104.326 422.534 104.578 422.714 104.794C423.326 103.786 423.902 102.76 424.316 101.878L426.062 102.688C425.072 104.254 423.83 106.072 422.696 107.53L424.424 107.458C424.226 107.008 424.01 106.558 423.794 106.162L425.216 105.568C425.504 106.072 425.792 106.648 426.044 107.224C427.34 106.882 428.546 106.378 429.626 105.73C428.78 104.884 428.078 103.912 427.502 102.796L428.654 102.418H426.602V100.582H434.054L434.432 100.492ZM444.71 110.95L445.07 112.966C443.09 113.668 440.93 114.352 439.202 114.91L438.716 112.732C439.346 112.57 440.084 112.372 440.912 112.138V107.908H439.094V105.946H440.912V102.778H438.932V100.78H444.872V102.778H442.946V105.946H444.566V107.908H442.946V111.508C443.54 111.328 444.134 111.148 444.71 110.95ZM447.482 105.514V107.062H449.336V105.514H447.482ZM447.482 102.328V103.822H449.336V102.328H447.482ZM452.918 103.822V102.328H451.136V103.822H452.918ZM452.918 107.062V105.514H451.136V107.062H452.918ZM451.334 114.064H455.762V116.008H444.188V114.064H449.156V112.354H445.43V110.428H449.156V108.88H445.556V100.51H454.952V108.88H451.334V110.428H455.15V112.354H451.334V114.064ZM469.946 102.454L471.188 104.524C470.648 104.848 470.072 105.154 469.424 105.478C468.308 106.036 466.076 107.08 464.456 108.124C462.962 109.096 461.972 110.122 461.972 111.364C461.972 112.642 463.214 113.326 465.68 113.326C467.516 113.326 469.928 113.038 471.512 112.678L471.476 115.252C469.964 115.504 468.074 115.684 465.752 115.684C462.206 115.684 459.524 114.694 459.524 111.634C459.524 109.654 460.766 108.196 462.476 106.936C461.648 105.406 460.784 103.516 459.974 101.626L462.224 100.708C462.908 102.562 463.736 104.272 464.456 105.64C465.914 104.794 467.462 104.002 468.308 103.534C468.974 103.138 469.496 102.832 469.946 102.454ZM485.66 108.844H482.294V111.328H485.66V108.844ZM487.64 113.092H482.294V114.28H480.314V107.08H487.64V113.092ZM488.45 103.894V105.694H479.468V103.894H488.45ZM491.618 100.6V114.1C491.618 115.216 491.384 115.828 490.7 116.17C490.016 116.53 489.008 116.584 487.514 116.584C487.424 115.99 487.1 115.018 486.776 114.46C487.73 114.514 488.774 114.514 489.08 114.496C489.386 114.478 489.512 114.37 489.512 114.082V102.634H478.442V116.566H476.354V100.6H491.618ZM498.674 102.76H497.018V105.928H498.674V102.76ZM497.018 111.184H498.674V107.8H497.018V111.184ZM500.672 100.852V113.092H497.018V114.676H495.038V100.852H500.672ZM501.734 111.58L503.444 110.59C504.272 111.472 505.244 112.66 505.622 113.542L503.786 114.604C503.462 113.776 502.544 112.498 501.734 111.58ZM511.256 106.972H509.402V108.52H511.13V110.374H509.402V114.298C509.402 115.324 509.204 115.864 508.502 116.188C507.8 116.494 506.828 116.548 505.496 116.548C505.424 115.954 505.1 115.108 504.812 114.532C505.676 114.568 506.684 114.568 506.954 114.568C507.242 114.568 507.332 114.496 507.332 114.244V110.374H501.014V108.52H507.332V106.972H500.978V105.1H505.046V103.516H501.59V101.644H505.046V99.754H507.152V101.644H510.752V103.516H507.152V105.1H511.256V106.972ZM520.292 102.436C522.488 102.742 526.034 102.67 527.96 102.436V104.74C525.764 104.938 522.542 104.938 520.31 104.74L520.292 102.436ZM519.68 109.87L521.732 110.068C521.588 110.644 521.516 111.076 521.516 111.562C521.516 112.354 522.2 112.822 524 112.822C525.602 112.822 526.916 112.678 528.464 112.354L528.518 114.766C527.366 114.982 525.926 115.126 523.91 115.126C520.832 115.126 519.374 114.01 519.374 112.192C519.374 111.454 519.5 110.698 519.68 109.87ZM515.054 101.05L517.556 101.266C517.412 101.626 517.196 102.526 517.124 102.85C516.872 104.038 516.26 107.602 516.26 109.384C516.26 109.726 516.278 110.158 516.332 110.536C516.584 109.906 516.872 109.312 517.124 108.736L518.24 109.6C517.736 111.094 517.142 113.02 516.962 113.974C516.908 114.226 516.854 114.622 516.854 114.802C516.872 115 516.872 115.288 516.89 115.54L514.838 115.684C514.478 114.442 514.136 112.264 514.136 109.852C514.136 107.17 514.676 104.164 514.874 102.796C514.946 102.292 515.054 101.608 515.054 101.05ZM540.668 109.888H544.664V107.98H540.668V109.888ZM534.512 109.888H538.418V107.98H534.512V109.888ZM538.418 104.2H534.512V106.018H538.418V104.2ZM544.664 104.2H540.668V106.018H544.664V104.2ZM540.668 102.148H546.896V112.804H544.664V111.94H540.668V116.548H538.418V111.94H534.512V112.894H532.37V102.148H538.418V99.736H540.668V102.148ZM551.702 100.744L554.582 100.78C554.456 101.536 554.366 102.436 554.348 103.156C554.258 105.064 554.132 109.06 554.132 111.274C554.132 113.074 555.212 113.65 556.58 113.65C559.532 113.65 561.404 111.958 562.682 110.014L564.302 112.012C563.15 113.704 560.63 116.08 556.562 116.08C553.646 116.08 551.756 114.802 551.756 111.76C551.756 109.366 551.936 104.686 551.936 103.156C551.936 102.31 551.864 101.446 551.702 100.744ZM576.146 104.236L576.848 104.344C576.776 103.75 576.704 103.138 576.65 102.526H573.518V100.51H578.468C578.738 105.604 579.818 109.942 583.562 111.814C583.058 112.174 582.284 112.93 581.888 113.452C579.674 112.138 578.36 110.068 577.568 107.548C576.668 110.122 575.3 112.102 573.338 113.47C573.014 113.056 572.186 112.228 571.682 111.85C574.202 110.356 575.588 107.674 576.146 104.236ZM571.682 102.886L569.99 104.308C569.432 103.444 568.154 102.256 567.092 101.464L568.676 100.168C569.756 100.924 571.07 102.04 571.682 102.886ZM571.232 106.738V112.39C571.97 113.596 573.32 114.082 575.192 114.154C577.298 114.244 581.348 114.19 583.742 114.01C583.508 114.514 583.184 115.558 583.076 116.17C580.916 116.278 577.298 116.314 575.156 116.224C572.942 116.134 571.466 115.63 570.296 114.226C569.504 114.928 568.712 115.63 567.74 116.386L566.696 114.154C567.452 113.704 568.352 113.11 569.144 112.498V108.7H567.074V106.738H571.232ZM587.99 109.618C587.99 110.392 588.458 110.842 588.98 110.842C589.79 110.842 590.114 109.978 590.114 108.97C590.114 108.286 589.772 107.872 589.268 107.872C588.566 107.872 587.99 108.574 587.99 109.618ZM597.422 109.438L599.888 110.194C599.888 111.202 599.906 111.544 599.87 112.282C599.762 113.884 599.294 114.892 597.224 115.522C596.432 115.774 594.56 115.9 593.354 115.9C589.214 115.9 589.034 114.586 589.034 113.344V112.966C588.944 112.984 588.836 112.984 588.746 112.984C587.45 112.984 586.118 112.066 586.118 109.78C586.118 107.674 587.468 106.09 589.412 106.09H589.484V104.902H589.124C588.35 104.902 587.378 104.848 586.208 104.74L586.082 102.634C587.072 102.778 588.116 102.886 588.962 102.886H589.484V102.742C589.484 101.608 589.43 101.014 589.304 100.492H591.806C591.716 101.014 591.644 101.644 591.644 102.724C592.67 102.58 593.732 102.382 594.812 102.094V104.254C593.768 104.488 592.652 104.65 591.644 104.758V107.062C591.986 107.53 592.166 108.16 592.166 108.862C592.166 109.996 591.878 111.112 591.212 111.904V112.606C591.212 113.362 591.41 113.758 593.516 113.758C594.416 113.758 595.568 113.632 596.252 113.434C597.17 113.146 597.548 112.57 597.548 111.634C597.548 110.932 597.53 110.266 597.422 109.438ZM596.288 103.624L597.8 102.13C598.916 102.832 600.77 104.578 601.58 105.532L599.96 107.188C598.988 106 597.314 104.362 596.288 103.624ZM614.486 102.454L615.728 104.524C615.188 104.848 614.612 105.154 613.964 105.478C612.848 106.036 610.616 107.08 608.996 108.124C607.502 109.096 606.512 110.122 606.512 111.364C606.512 112.642 607.754 113.326 610.22 113.326C612.056 113.326 614.468 113.038 616.052 112.678L616.016 115.252C614.504 115.504 612.614 115.684 610.292 115.684C606.746 115.684 604.064 114.694 604.064 111.634C604.064 109.654 605.306 108.196 607.016 106.936C606.188 105.406 605.324 103.516 604.514 101.626L606.764 100.708C607.448 102.562 608.276 104.272 608.996 105.64C610.454 104.794 612.002 104.002 612.848 103.534C613.514 103.138 614.036 102.832 614.486 102.454Z" fill="black"/>
<path d="M186.194 31C166.205 31 150 47.1707 150 67.1183C150 87.0659 166.205 103.237 186.194 103.237C206.184 103.237 222.389 87.0659 222.389 67.1183C222.389 47.1707 206.184 31 186.194 31Z" fill="#2175D6"/>
<path d="M217.759 100.743L196.258 95.1221L211.979 79.3264L217.759 100.743Z" fill="#2175D6"/>
<path d="M174.831 68.6977L175.36 68.4773L177.968 68.8066C177.203 72.2111 175.981 76.6042 174.897 80.1949L171.447 79.8142C172.234 77.374 173.115 74.354 173.74 71.9132L160.301 74.0959L159.82 71.1356L174.831 68.6977ZM163.401 65.042L172.78 63.5188C170.595 62.1528 168.603 60.648 167.187 59.211C166.324 61.0182 165.015 63.0591 163.401 65.042ZM164.99 56.4487L168.108 55.9424C171.562 59.4953 176.458 62.4912 180.855 63.7398C180.197 64.6534 179.677 65.7595 179.254 66.7962C177.446 66.0949 175.548 65.1665 173.733 64.09L174.086 66.2643L162.979 68.0683L162.638 65.9726C161.354 67.4987 159.895 68.9456 158.358 70.2439C157.846 69.5742 156.776 68.6186 155.989 68.0743C160.02 64.9189 163.553 60.0162 164.99 56.4487ZM200.099 63.1664L199.105 65.3499C197.896 64.6605 195.577 63.7852 194.21 63.4295L195.112 61.3956C196.539 61.7609 199.051 62.6432 200.099 63.1664ZM192.637 61.451L193.043 63.5997C192.235 63.962 191.13 64.3919 189.919 64.7619C189.461 67.5133 188.39 70.9998 187.234 73.3639L184.777 72.5881C185.983 70.5242 187.001 67.5469 187.501 65.405C187.185 65.4756 186.866 65.5274 186.547 65.5792C185.778 65.7042 185.024 65.8073 184.211 65.9008L183.689 63.7516C184.511 63.7144 185.511 63.5904 186.187 63.4807C186.731 63.3923 187.291 63.2821 187.848 63.1532C187.943 62.0785 187.966 60.9191 187.849 59.956L190.462 59.8012C190.409 60.4261 190.337 61.4008 190.235 62.438C191.112 62.1416 191.941 61.795 192.637 61.451ZM194.766 71.7169L194.708 71.3603C194.202 71.327 193.702 71.3312 193.177 71.4165C192.107 71.5902 191.486 72.1533 191.593 72.8101C191.705 73.5043 192.363 73.879 193.376 73.7144C194.634 73.5102 194.928 72.7114 194.766 71.7169ZM193.408 65.2545L195.754 64.8735C195.826 65.6708 195.988 66.434 196.141 67.2566C196.245 67.7789 196.429 68.6735 196.634 69.5838C198.327 69.9252 199.793 70.6501 200.868 71.3421L199.953 73.5322C199.198 73.0384 198.232 72.425 197.118 71.9704L197.146 72.1393C197.426 73.8656 196.707 75.3689 194.062 75.7987C191.754 76.1735 189.766 75.4371 189.434 73.3918C189.138 71.5717 190.429 69.9175 193.019 69.497C193.45 69.4269 193.888 69.3943 194.288 69.3678C194.006 67.9884 193.648 66.3712 193.408 65.2545ZM205.501 59.6697L205.736 57.3205C207.588 57.5782 211.738 57.636 213.401 57.5585L213.21 59.9391C211.294 60 207.007 59.8103 205.501 59.6697ZM206.455 61.0363C206.379 62.1079 206.422 64.3926 206.465 65.4835C207.955 63.9896 209.706 63.1468 211.639 62.8329C214.904 62.3026 217.125 64.0025 217.491 66.2542C218.042 69.6505 215.782 72.6946 207.942 73.2747L206.833 70.9511C212.534 70.8341 215.257 68.9858 214.873 66.6216C214.678 65.4207 213.39 64.7246 211.758 64.9898C209.656 65.3311 207.924 66.4021 206.989 67.9984C206.718 68.4661 206.56 68.7998 206.471 69.1995L204.225 69.0058C204.286 67.1278 204.148 63.4332 203.886 61.1069L206.455 61.0363Z" fill="#FFFD3A"/>
</g>
<defs>
<clipPath id="clip0_1_1602">
<rect width="849" height="289" fill="white"/>
</clipPath>
<clipPath id="clip1_1_1602">
<rect width="148.764" height="167" fill="white" transform="translate(671 61)"/>
</clipPath>
</defs>
</svg>
