<svg width="180" height="49" viewBox="0 0 180 49" fill="none" xmlns="http://www.w3.org/2000/svg">
<g clip-path="url(#clip0_800_3324)">
<path d="M153.532 0V18.1856H139.474V30.8144H153.532V49H166.341V30.8144H180V18.1856H166.341V0H153.532Z" fill="black"/>
<path d="M23.8809 30.0629H36.9022V34.3752H26.6051L36.9022 45.9444V48.9877H33.7906L23.8809 37.862V48.9877H19.5071V37.9359L9.67231 48.9877H6.56068V45.9321L16.8578 34.3628H6.56068V30.0505H19.5071V23.7916H13.5587V4.74353H17.1077L19.5821 0H24.5057L22.0314 4.74353H29.9167V23.7916H23.8934V30.0505L23.8809 30.0629ZM17.9325 12.1237H25.5304V9.08046H17.9325V12.1237ZM25.5304 16.436H17.9325V19.4916H25.5304V16.436ZM8.67259 7.6266L3.99889 4.74353L1.68703 8.40282L6.37323 11.2859L8.68509 7.6266H8.67259ZM6.37323 15.9925L0 20.8345L2.67426 24.2474L9.04749 19.4053L6.37323 15.9925ZM41.7134 8.41514L39.4016 4.75585L34.7154 7.63892L37.0272 11.2982L41.7134 8.41514ZM34.3405 19.4177L40.7137 24.2597L43.3879 20.8469L37.0147 16.0048L34.3405 19.4177ZM79.9278 37.5416H75.554V44.2072H85.0639V39.8949H79.9403V37.5416H79.9278ZM77.7409 8.5137H69.8056V4.7312H65.4318V8.5137H61.1205V12.826H65.4318V49H69.8056V12.826H77.7409V8.5137ZM77.7409 26.9703H85.0514V22.658H77.7409V26.9703ZM117.242 8.5137H121.554V12.826H117.242V41.4473L115.568 49H111.082L112.856 40.9915V34.9666C112.494 35.0405 112.119 35.0774 111.744 35.0774H111.319C108.307 35.0774 105.871 32.6749 105.871 29.7056V25.7382C105.871 22.7689 108.307 20.3664 111.319 20.3664H111.744C112.119 20.3664 112.494 20.4033 112.856 20.4772V12.826H103.346V8.5137H112.856V4.7312H117.23V8.5137H117.242ZM112.831 25.7382C112.831 25.1592 112.356 24.691 111.756 24.691H111.332C110.744 24.691 110.269 25.1592 110.257 25.7382V29.7056C110.257 30.2846 110.732 30.7651 111.332 30.7651H111.756C112.344 30.7651 112.831 30.297 112.831 29.7056V25.7382Z" fill="black"/>
<path d="M162.355 3.93042V22.116H176.013V26.8965H162.355V45.082H157.506V26.8965H143.447V22.116H157.506V3.93042H162.355Z" fill="#FFFE3B"/>
</g>
<defs>
<clipPath id="clip0_800_3324">
<rect width="180" height="49" fill="white"/>
</clipPath>
</defs>
</svg>
