<?xml version="1.0" encoding="UTF-8"?>
<svg id="_レイヤー_1" data-name="レイヤー 1" xmlns="http://www.w3.org/2000/svg" viewBox="0 0 1904.7 624">
  <defs>
    <style>
      .cls-1 {
        fill: #ffffaf;
      }

      .cls-2, .cls-3 {
        fill: #fff;
      }

      .cls-4, .cls-5 {
        fill: #fffd3a;
      }

      .cls-6 {
        fill: #fffd34;
      }

      .cls-7 {
        fill: #fffd3b;
      }

      .cls-8 {
        stroke-width: 10.35px;
      }

      .cls-8, .cls-5, .cls-3, .cls-9, .cls-10, .cls-11 {
        stroke-miterlimit: 10;
      }

      .cls-8, .cls-12, .cls-9, .cls-13, .cls-14, .cls-10, .cls-11 {
        fill: none;
      }

      .cls-8, .cls-12, .cls-9, .cls-10, .cls-11 {
        stroke: #000;
      }

      .cls-5, .cls-3 {
        stroke-width: 9px;
      }

      .cls-5, .cls-3, .cls-13, .cls-14 {
        stroke: #0f0f0f;
      }

      .cls-12 {
        stroke-width: 10.04px;
      }

      .cls-12, .cls-13, .cls-14 {
        stroke-linecap: round;
        stroke-linejoin: round;
      }

      .cls-9 {
        stroke-width: 7.87px;
      }

      .cls-13 {
        stroke-width: 16px;
      }

      .cls-14 {
        stroke-width: 17px;
      }

      .cls-10 {
        stroke-width: 9.91px;
      }

      .cls-11 {
        stroke-width: 8.22px;
      }
    </style>
  </defs>
  <rect class="cls-1" y=".35" width="1905" height="624"/>
  <g>
    <g>
      <path d="m449.24,559.13l.99.99-11.22,11.22,11.22,11.22-.99.99-11.22-11.22-11.25,11.25-.99-.99,11.25-11.25-11.22-11.22.99-.99,11.22,11.22,11.22-11.22Zm-20.91,14.75c-1.39,0-2.55-1.16-2.55-2.55s1.16-2.55,2.55-2.55,2.55,1.16,2.55,2.55-1.16,2.55-2.55,2.55Zm7.14-12.24c0-1.39,1.16-2.55,2.55-2.55s2.55,1.16,2.55,2.55-1.16,2.55-2.55,2.55-2.55-1.16-2.55-2.55Zm5.1,19.38c0,1.39-1.16,2.55-2.55,2.55s-2.55-1.16-2.55-2.55,1.16-2.55,2.55-2.55,2.55,1.16,2.55,2.55Zm7.14-12.24c1.39,0,2.55,1.16,2.55,2.55s-1.16,2.55-2.55,2.55-2.55-1.16-2.55-2.55,1.16-2.55,2.55-2.55Z"/>
      <path d="m456.52,582.42c7.31-7.28,11.42-11.63,11.42-15.61,0-2.75-1.5-4.72-4.59-4.72-2.04,0-3.81,1.29-5.17,2.89l-1.8-1.73c2.04-2.21,4.18-3.67,7.34-3.67,4.45,0,7.24,2.82,7.24,7.11,0,4.55-4.15,9.08-9.89,15.13,1.29-.1,2.79-.24,4.08-.24h7.04v2.69h-15.67v-1.84Z"/>
      <path d="m508.26,577.8c2.21,4.11,6.7,6.12,13.56,6.73-.58.54-1.22,1.63-1.56,2.35-6.73-.88-11.15-3.03-13.73-7.45-1.29,2.96-4.93,5.85-14.45,7.45-.27-.61-.95-1.56-1.46-2.11,9.93-1.63,12.95-4.42,13.8-6.97h-13.02v-2.18h13.29v-2.45h2.52v2.45h13.73v2.18h-12.68Zm-17.2-7.51c1.7-.21,3.84-.48,6.19-.78v-3.84h-5.17v-2.01h5.17v-3.16h-5.61v-2.01h5.61v-2.69h2.38v2.69h5.41v2.01h-5.41v3.16h5v2.01h-5v3.54c1.84-.24,3.74-.51,5.61-.78l.03,2.04c-5.03.78-10.23,1.5-13.97,2.01l-.24-2.18Zm22-10.71c-.44,6.22-1.67,10.44-6.77,12.95-.27-.54-.99-1.36-1.5-1.77,4.52-2.18,5.54-5.78,5.88-11.18h-4.86v-2.18h14.96s0,.75-.03,1.05c-.37,8.5-.75,11.56-1.63,12.61-.51.68-1.12.92-2.04.99-.78.07-2.24.07-3.71,0-.07-.68-.31-1.67-.71-2.28,1.46.13,2.79.13,3.33.13s.82-.07,1.09-.37c.58-.65.92-3.2,1.26-9.96h-5.27Z"/>
      <path d="m528.49,575.49c-.48,3.2-1.29,6.46-2.41,8.63-.41-.31-1.43-.78-1.97-.95,1.12-2.07,1.84-5.1,2.21-8.09l2.18.41Zm6.22-8.8c1.39,2.18,2.89,5.06,3.37,6.9l-2,.95c-.14-.58-.34-1.22-.65-1.94l-2.96.17v14.14h-2.28v-14.01l-5.54.27-.2-2.28c.68,0,1.46-.03,2.24-.07.75-.88,1.53-1.9,2.28-3.03-1.05-1.53-2.86-3.43-4.45-4.86l1.29-1.67c.34.27.68.58,1.02.88,1.12-1.9,2.31-4.45,3.03-6.32l2.24.85c-1.16,2.28-2.58,5-3.88,6.83.82.82,1.53,1.63,2.07,2.35,1.39-2.14,2.69-4.35,3.64-6.19l2.18.95c-1.97,3.2-4.69,7.21-7.04,10.13,1.7-.07,3.57-.17,5.44-.24-.51-1.05-1.09-2.11-1.67-3.03l1.87-.82Zm.88,8.26c.99,2.07,1.97,4.76,2.28,6.53l-2.01.68c-.31-1.77-1.26-4.49-2.18-6.59l1.9-.61Zm19.34-11.73c-.61,15.23-1.09,20.5-2.48,22.17-.78.99-1.53,1.22-2.82,1.36-1.12.1-3.2.07-5.24-.07-.07-.71-.34-1.8-.82-2.48,2.28.2,4.35.2,5.2.2.65,0,1.09-.07,1.46-.51,1.12-1.16,1.7-6.32,2.21-19.58h-11.15c-.95,1.8-2.04,3.43-3.16,4.76-.48-.41-1.6-1.16-2.21-1.5,2.62-2.82,4.79-7.28,6.05-11.76l2.55.58c-.58,1.9-1.26,3.77-2.07,5.54h12.48v1.29Zm-9.83,14.96c-.78-2.07-2.69-5.44-4.59-7.92l2.04-.99c1.9,2.38,3.94,5.61,4.76,7.75l-2.21,1.16Z"/>
      <path d="m584.93,583.17c0,1.77-.51,2.65-1.77,3.06-1.29.44-3.54.48-7.17.48-.17-.71-.65-1.9-1.05-2.62,2.82.1,5.54.07,6.32.07.78-.03,1.05-.27,1.05-1.02v-6.8h-16.32c-.85,3.84-2.55,7.68-5.85,10.57-.34-.54-1.36-1.46-1.87-1.84,5.41-4.76,5.95-11.66,5.95-17.07v-10.4h20.7v25.57Zm-2.62-9.32v-5.71h-15.54c0,1.77-.1,3.71-.37,5.71h15.91Zm-15.54-13.77v5.64h15.54v-5.64h-15.54Z"/>
      <path d="m605.77,561.31c3.47-.17,7.17-.48,10.37-1.05l-.03,2.52c-3.37.54-7.58.82-11.29.95-.78,1.8-1.9,3.74-3.06,5.27,1.29-.82,3.26-1.26,4.73-1.26,2.21,0,4.01,1.09,4.56,3.06,2.31-1.12,4.39-1.94,6.15-2.75,1.02-.44,1.84-.82,2.79-1.33l1.12,2.55c-.88.24-2.11.71-3.03,1.09-1.9.71-4.32,1.7-6.9,2.92.03,1.97.07,4.86.1,6.53h-2.62c.07-1.29.1-3.5.1-5.3-3.16,1.67-5.37,3.47-5.37,5.71,0,2.65,2.65,3.06,6.15,3.06,2.65,0,6.29-.31,9.28-.82l-.07,2.72c-2.58.34-6.36.61-9.32.61-4.86,0-8.77-1.05-8.77-5.2s4.05-6.53,8.02-8.6c-.34-1.46-1.56-2.11-3.09-2.11-2.14,0-4.32,1.05-5.85,2.48-.99.92-1.94,2.18-3.09,3.54l-2.31-1.7c4.28-4.15,6.56-7.65,7.85-10.4h-1.5c-1.46,0-3.71-.07-5.58-.2v-2.55c1.8.24,4.18.38,5.75.38.71,0,1.5,0,2.24-.04.48-1.46.78-2.99.85-4.25l2.79.24c-.2,1.02-.48,2.35-.99,3.94Z"/>
      <path d="m643.04,555.77c3.77,3.94,9.66,7.31,14.89,9.01-.54.54-1.16,1.46-1.53,2.11-2.45-.92-5.1-2.21-7.58-3.74v1.84h-13.12v-1.94c-2.41,1.56-5.1,2.96-7.82,4.08-.31-.58-.92-1.46-1.43-2.01,5.75-2.11,11.42-5.88,14.21-9.35h2.38Zm9.21,12.54c-1.05,2.11-2.45,4.56-3.77,6.66h4.32v11.9h-2.58v-1.33h-16.05v1.33h-2.48v-11.9h13.84c.99-1.53,2.07-3.4,2.96-4.96h-17.37v-2.21h18.77l.48-.17,1.9.68Zm-2.04,8.91h-16.05v6.08h16.05v-6.08Zm-1.9-14.38c-2.45-1.53-4.69-3.23-6.32-4.96-1.46,1.63-3.57,3.37-5.98,4.96h12.31Z"/>
      <path d="m671.56,560.53v1.53c2.14-.24,4.39-.65,6.53-1.22v2.62c-2.11.48-4.42.82-6.53,1.02v5.13c.54.78.85,1.83.85,3.03,0,1.9-.44,4.25-1.8,5.78-.03.71-.07,1.53-.07,2.14,0,1.87.51,2.62,5.44,2.62,1.9,0,4.56-.27,5.78-.61,1.77-.51,2.82-1.53,2.82-3.77,0-1.36-.03-2.48-.2-3.84l2.89.88c.03,1.39.07,2.28,0,3.67-.14,3.2-1.33,4.69-4.42,5.51-1.46.41-4.79.68-7.04.68-6.83,0-7.82-1.6-7.82-4.15,0-.54,0-1.09.03-1.63-.34.07-.71.1-1.09.1-1.9,0-4.39-1.43-4.39-5.37,0-3.5,2.24-6.7,5.58-6.7.34,0,.65.03.92.07v-3.37c-.44.04-.85.04-1.26.04-1.46,0-3.43-.1-5.41-.34l-.14-2.52c2.01.31,3.71.48,5.37.48.48,0,.95,0,1.43-.03v-1.73c0-1.36-.07-2.52-.27-3.23h2.99c-.1.71-.2,1.97-.2,3.23Zm-1.6,12.24c0-1.63-.78-2.62-1.97-2.62-1.7,0-3.13,1.8-3.13,4.35,0,1.9,1.12,2.99,2.35,2.99,2.04,0,2.75-2.45,2.75-4.73Zm20.5-5.78l-1.9,1.94c-1.67-2.14-4.76-5.07-6.63-6.42l1.73-1.77c2.01,1.36,5.27,4.35,6.8,6.26Z"/>
      <path d="m702.61,581.3l1.56-2.04c1.46,1.53,3.37,2.86,6.19,2.86s5.07-1.73,5.07-4.45c0-2.89-2.01-4.79-7.75-4.79v-2.38c5.13,0,6.9-2.01,6.9-4.55,0-2.35-1.63-3.84-4.22-3.84-2.01,0-3.77,1.02-5.17,2.45l-1.67-1.94c1.87-1.77,4.08-3.03,6.97-3.03,4.18,0,7.24,2.21,7.24,6.15,0,2.92-1.8,4.79-4.42,5.75v.14c2.92.71,5.27,2.86,5.27,6.19,0,4.32-3.57,6.9-7.99,6.9-3.91,0-6.36-1.63-7.99-3.4Z"/>
      <path d="m746.06,560.29c-.03,1.22-.1,2.38-.17,3.5h8.09c.92,0,1.6-.07,2.18-.17l1.9.95c-.1.58-.17,1.22-.17,1.67-.14,3.26-.54,13.16-2.07,16.42-.68,1.43-1.77,2.07-3.64,2.07-1.73,0-3.71-.14-5.47-.24l-.34-2.82c1.84.24,3.64.37,5.07.37.99,0,1.6-.27,1.97-1.12,1.29-2.58,1.73-10.95,1.73-14.58h-9.52c-1.22,9.76-4.76,14.92-10.44,18.83l-2.48-2.01c1.09-.58,2.48-1.53,3.5-2.52,3.37-3.06,5.81-7.31,6.73-14.31h-5.71c-1.33,0-2.72,0-3.91.13v-2.89c1.19.14,2.58.2,3.88.2h5.98c.07-1.09.14-2.24.14-3.47,0-.75-.1-2.01-.24-2.82h3.2c-.1.78-.17,1.97-.2,2.79Z"/>
      <path d="m790.8,583.17c0,1.77-.51,2.65-1.77,3.06-1.29.44-3.54.48-7.17.48-.17-.71-.65-1.9-1.05-2.62,2.82.1,5.54.07,6.32.07.78-.03,1.05-.27,1.05-1.02v-6.8h-16.32c-.85,3.84-2.55,7.68-5.85,10.57-.34-.54-1.36-1.46-1.87-1.84,5.41-4.76,5.95-11.66,5.95-17.07v-10.4h20.7v25.57Zm-2.62-9.32v-5.71h-15.54c0,1.77-.1,3.71-.37,5.71h15.91Zm-15.54-13.77v5.64h15.54v-5.64h-15.54Z"/>
      <path d="m810.73,557.26c-2.45,5.71-6.39,10.78-10.67,13.97-.44-.54-1.53-1.5-2.14-1.94,4.28-2.89,8.06-7.58,10.17-12.78l2.65.75Zm13.8,11.32s-.03.88-.07,1.22c-.48,10.44-.99,14.35-2.14,15.64-.71.85-1.43,1.05-2.62,1.19-1.12.1-3.23.03-5.34-.07-.07-.75-.37-1.77-.85-2.52,2.21.21,4.32.24,5.1.24.71,0,1.12-.07,1.43-.44.88-.85,1.36-4.25,1.77-12.82h-8.77c-.88,6.7-3.06,12.85-11.7,15.98-.34-.65-1.05-1.67-1.63-2.21,7.99-2.65,9.86-8.02,10.64-13.77h-6.93v-2.45h21.11Zm-4.73-12.14c2.21,4.56,6.56,9.66,10.23,12.24-.65.54-1.6,1.53-2.07,2.24-3.74-3.03-8.02-8.5-10.54-13.53l2.38-.95Z"/>
      <path d="m846.02,567.9c3.2-1.94,6.87-3.74,8.74-4.76.99-.58,1.7-1.02,2.41-1.6l1.5,2.41c-.78.48-1.63.92-2.62,1.43-2.31,1.19-7,3.43-10.33,5.64-3.16,2.04-5.07,4.28-5.07,6.87,0,2.82,2.69,4.59,8.06,4.59,3.71,0,8.23-.48,10.88-1.16v3.03c-2.58.44-6.49.85-10.74.85-6.39,0-11.02-1.9-11.02-7,0-3.5,2.24-6.25,5.88-8.81-1.56-2.79-3.37-6.76-4.93-10.47l2.69-1.12c1.36,3.74,3.06,7.41,4.56,10.1Z"/>
      <path d="m879,562.53c1.77-.27,3.6-.68,5.34-1.26l.07,2.55c-1.8.51-3.94.95-6.19,1.26-1.67,4.79-4.69,10.67-7.41,14.35l-2.62-1.36c2.82-3.3,5.71-8.74,7.28-12.71-1.02.07-2.04.1-3.03.1-1.26,0-2.69-.03-3.98-.1l-.17-2.55c1.26.17,2.72.24,4.15.24,1.22,0,2.52-.07,3.84-.17.51-1.9.99-4.04,1.05-5.88l2.99.27c-.31,1.22-.78,3.3-1.33,5.27Zm9.31,8.91c.03,1.26.17,3.47.24,5.58,2.92,1.05,5.3,2.72,7.07,4.22l-1.46,2.31c-1.46-1.29-3.3-2.82-5.51-3.91.03.54.03,1.02.03,1.43,0,2.72-1.73,4.93-5.95,4.93-3.74,0-6.8-1.53-6.8-4.9,0-3.13,2.96-5.1,6.8-5.1,1.16,0,2.28.1,3.33.34-.14-2.79-.31-6.15-.37-8.57h2.65c-.07,1.39-.07,2.45-.03,3.67Zm-5.92,12.1c2.82,0,3.77-1.5,3.77-3.37,0-.44,0-.95-.03-1.53-1.09-.34-2.28-.51-3.5-.51-2.48,0-4.18,1.16-4.18,2.72s1.29,2.69,3.94,2.69Zm4.96-19.55l1.39-2.07c2.45,1.09,6.32,3.3,7.92,4.52l-1.53,2.24c-1.84-1.56-5.51-3.67-7.79-4.69Z"/>
      <path d="m908.92,566.88c1.39-3.47,4.93-7.72,9.25-7.72s7.75,4.52,7.75,11.66c0,9.45-5.92,13.6-14.35,15.13l-1.6-2.45c7.38-1.09,13.16-4.11,13.16-12.65,0-5.37-1.84-9.25-5.41-9.25-4.25,0-8.19,6.19-8.6,10.64-.17,1.33-.14,2.48.07,4.18l-2.62.21c-.17-1.29-.37-3.2-.37-5.41,0-3.23.65-8.23,1.05-10.98.14-1.02.2-2.01.27-2.92l2.99.1c-.71,2.48-1.39,7.07-1.6,9.45Z"/>
      <path d="m952.27,559.54c0,.44-.03,1.19-.03,2.07,3.06-.14,6.15-.44,9.21-.92l-.03,2.48c-2.69.31-5.92.61-9.18.78v4.76c3.3-.14,6.39-.44,9.49-.92l-.03,2.55c-3.2.41-6.19.68-9.42.78.07,1.77.17,3.6.24,5.24,4.52,1.22,7.99,3.71,9.93,5.3l-1.56,2.41c-2.01-1.84-4.83-3.91-8.23-5.13.03.85.07,1.56.07,2.11,0,2.35-1.56,4.76-5.98,4.76-4.9,0-7.55-1.73-7.55-5,0-3.09,2.96-5.2,7.85-5.2.99,0,1.94.07,2.86.2-.03-1.53-.1-3.16-.14-4.62h-1.94c-2.31,0-6.05-.21-8.5-.48l-.03-2.55c2.45.41,6.32.65,8.57.65h1.84v-4.76h-1.5c-2.38,0-6.56-.34-8.7-.58l-.03-2.52c2.21.41,6.43.75,8.7.75h1.56v-2.41c0-.58-.07-1.56-.14-2.04h2.89c-.1.61-.17,1.29-.2,2.28Zm-5.85,23.9c1.94,0,3.6-.61,3.6-2.96,0-.58-.03-1.39-.03-2.28-1.05-.24-2.18-.34-3.3-.34-3.23,0-5,1.26-5,2.82s1.36,2.75,4.73,2.75Z"/>
      <path d="m988.14,559.47c0,.51-.03,1.29-.03,2.21h.51c4.15,0,8.33.03,9.96.03l-.03,2.52c-1.9-.1-5-.17-9.96-.17h-.48c0,1.94.03,4.05.07,5.61.71,1.16,1.09,2.65,1.09,4.35,0,4.59-2.24,9.69-10.17,12.07l-2.28-2.24c4.52-1.02,7.65-2.92,9.01-6.02-.82.61-1.8.92-2.96.92-2.86,0-5.58-1.97-5.58-5.68,0-3.37,2.75-5.92,5.98-5.92.85,0,1.6.14,2.28.37,0-1.02,0-2.24-.03-3.43-5.17.03-10.95.27-15.2.58l-.07-2.62c3.77-.07,10.17-.27,15.23-.34,0-.95-.03-1.77-.07-2.24-.03-.88-.17-1.87-.2-2.14h3.09c-.07.37-.14,1.7-.17,2.14Zm-4.83,16.93c2.01,0,3.3-1.6,2.99-4.83-.54-1.5-1.7-2.14-3.03-2.14-1.77,0-3.43,1.39-3.43,3.6s1.56,3.37,3.47,3.37Z"/>
      <path d="m1012.79,581.13c0,2.89-2.31,5.2-5.2,5.2s-5.17-2.31-5.17-5.2,2.35-5.17,5.17-5.17,5.2,2.31,5.2,5.17Zm-1.73,0c0-1.87-1.53-3.43-3.47-3.43s-3.43,1.56-3.43,3.43,1.56,3.47,3.43,3.47,3.47-1.53,3.47-3.47Z"/>
    </g>
    <g>
      <path d="m449.57,508.8l.99.99-11.22,11.22,11.22,11.22-.99.99-11.22-11.22-11.25,11.25-.99-.99,11.25-11.25-11.22-11.22.99-.99,11.22,11.22,11.22-11.22Zm-20.91,14.75c-1.39,0-2.55-1.16-2.55-2.55s1.16-2.55,2.55-2.55,2.55,1.16,2.55,2.55-1.16,2.55-2.55,2.55Zm7.14-12.24c0-1.39,1.16-2.55,2.55-2.55s2.55,1.16,2.55,2.55-1.16,2.55-2.55,2.55-2.55-1.16-2.55-2.55Zm5.1,19.38c0,1.39-1.16,2.55-2.55,2.55s-2.55-1.16-2.55-2.55,1.16-2.55,2.55-2.55,2.55,1.16,2.55,2.55Zm7.14-12.24c1.39,0,2.55,1.16,2.55,2.55s-1.16,2.55-2.55,2.55-2.55-1.16-2.55-2.55,1.16-2.55,2.55-2.55Z"/>
      <path d="m458.34,531.34h5.54v-17.88h-4.42v-2.01c2.21-.37,3.81-.95,5.17-1.77h2.38v21.66h5v2.58h-13.67v-2.58Z"/>
      <path d="m491.43,521.49c0-8.06,4.83-12.95,11.42-12.95,3.47,0,5.75,1.56,7.17,3.09l-1.7,2.04c-1.26-1.33-2.86-2.38-5.41-2.38-5,0-8.26,3.88-8.26,10.1s2.96,10.23,8.33,10.23c1.77,0,3.5-.54,4.49-1.46v-6.53h-5.27v-2.62h8.16v10.47c-1.6,1.67-4.35,2.89-7.72,2.89-6.53,0-11.22-4.79-11.22-12.88Z"/>
      <path d="m516.28,508.97h3.81l4.79,13.36c.58,1.73,1.16,3.47,1.77,5.2h.17c.58-1.73,1.12-3.47,1.7-5.2l4.76-13.36h3.81v24.95h-2.96v-13.8c0-2.14.24-5.17.41-7.34h-.14l-1.97,5.68-4.73,12.95h-2.11l-4.73-12.95-1.97-5.68h-.14c.14,2.18.37,5.2.37,7.34v13.8h-2.86v-24.95Z"/>
      <path d="m542.46,521.38c0-7.99,4.39-12.85,10.64-12.85s10.64,4.86,10.64,12.85-4.39,12.99-10.64,12.99-10.64-5-10.64-12.99Zm18.05,0c0-6.26-2.96-10.1-7.41-10.1s-7.41,3.84-7.41,10.1,2.92,10.23,7.41,10.23,7.41-4.01,7.41-10.23Z"/>
      <path d="m589.85,508.53c-.14.71-.27,1.6-.41,2.58,4.32-.2,8.46-.65,11.93-1.46l.03,2.52c-3.57.61-8.09,1.09-12.24,1.29-.17,1.33-.27,2.75-.37,4.18,1.9-.54,3.98-.85,5.71-.85.44,0,.85,0,1.26.03.03-.1.07-.2.1-.34.17-.51.34-1.39.37-1.97l2.69.68c-.2.48-.51,1.39-.68,1.94,0,.03-.03.07-.03.14,4.25,1.12,6.76,4.25,6.76,7.99,0,4.9-3.23,9.11-11.12,10.37l-1.46-2.28c6.15-.65,9.96-3.81,9.96-8.23,0-2.58-1.73-4.9-4.9-5.81-1.94,4.83-4.69,8.6-7.58,11.05.27.99.54,1.9.82,2.75l-2.45.75c-.2-.58-.37-1.22-.54-1.9-1.87,1.12-3.91,1.87-5.78,1.87-2.24,0-4.01-1.39-4.01-4.28,0-4.38,3.81-8.84,8.5-11.01.07-1.7.24-3.4.37-5-.71.03-1.39.03-2.07.03-1.46,0-4.11-.14-5.51-.24l-.07-2.55c1.19.2,4.15.44,5.61.44.78,0,1.53,0,2.31-.03.1-.99.2-1.87.27-2.62.03-.61.1-1.22.07-1.63l2.86.07c-.17.44-.31,1.05-.41,1.53Zm-7.41,22.68c1.33,0,2.96-.58,4.69-1.8-.48-2.41-.82-5.17-.82-7.72v-.61c-3.3,1.87-5.81,5.24-5.81,8.02,0,1.39.65,2.11,1.94,2.11Zm6.83-3.57c2.28-2.14,4.35-4.9,5.78-8.7h-.58c-2.21,0-4.18.51-5.75,1.09-.03.48-.03.92-.03,1.39,0,2.18.24,4.25.58,6.22Z"/>
      <path d="m621.95,509.11c-.03.82-.1,2.14-.14,3.67,2.48-.31,5.07-.78,7-1.36l.07,2.65c-2.01.48-4.66.92-7.14,1.19-.03,1.6-.07,3.23-.07,4.59v1.19c2.58-.82,5.24-1.26,7.48-1.26,4.96,0,8.53,2.69,8.53,6.76s-2.58,6.73-7.24,7.85c-1.53.34-3.03.41-4.21.48l-.95-2.75c1.26.03,2.72.03,3.98-.24,2.99-.58,5.71-2.18,5.71-5.3,0-2.89-2.62-4.45-5.85-4.45-2.55,0-4.96.48-7.41,1.33.07,2.89.14,5.92.14,7.38,0,3.16-1.16,4.18-2.99,4.18-2.65,0-7.07-2.62-7.07-5.64,0-2.82,3.54-5.78,7.45-7.45v-1.94c0-1.36,0-2.96.03-4.45-.95.07-1.8.1-2.52.1-1.94,0-3.2-.03-4.35-.17l-.07-2.58c1.87.24,3.09.27,4.35.27.78,0,1.67-.03,2.62-.1,0-1.77.03-3.26.03-3.88,0-.68-.07-1.84-.17-2.41h3.03c-.1.61-.2,1.56-.24,2.35Zm-3.81,23.02c.78,0,1.26-.54,1.26-1.67,0-1.22-.07-3.54-.1-6.02-2.79,1.29-4.86,3.26-4.86,4.79s2.38,2.89,3.71,2.89Zm22.37-16.62l-1.39,2.18c-1.67-1.6-5.44-3.94-7.62-5.1l1.22-2.04c2.41,1.29,6.12,3.6,7.79,4.96Z"/>
      <path d="m652.79,508.63c1.5,0,8.5-.31,10.47-.51.78-.1,1.43-.2,1.84-.34l1.73,1.94c-.48.31-1.36.88-1.84,1.29-2.52,2.07-7.45,6.19-10.17,8.36,5.17-.58,11.29-1.02,16.18-1.02v2.52c-3.33-.17-6.59-.14-8.63.17-3.3.48-6.56,3.26-6.56,6.46,0,3.43,2.79,4.59,5.88,5.03,2.01.24,3.67.17,4.86.07l-.54,2.79c-8.3.34-12.82-2.24-12.82-7.48,0-2.89,2.21-5.37,3.94-6.43-3.64.31-8.16.85-12.24,1.5l-.24-2.55c1.84-.17,4.15-.48,5.85-.68,3.71-2.55,9.08-7.27,11.25-9.18-1.53.1-7.48.37-8.94.51-.85.07-1.87.17-2.58.24l-.14-2.79c.82.07,1.67.1,2.69.1Zm16.73,7.75l-1.73.82c-.71-1.5-1.56-3.03-2.55-4.39l1.73-.75c.78,1.16,1.83,2.79,2.55,4.32Zm3.71-1.43l-1.73.85c-.75-1.46-1.67-3.06-2.65-4.32l1.7-.78c.81,1.05,1.94,2.82,2.69,4.25Z"/>
      <path d="m685.43,523.01c3.26-2.86,7-4.15,11.08-4.15,5.2,0,8.67,3.13,8.67,7.11,0,6.08-5.37,10.2-18.02,9.14l-.82-2.79c10.74,1.33,15.98-1.77,15.98-6.43,0-2.72-2.52-4.66-5.98-4.66-4.49,0-8.16,1.7-10.54,4.56-.51.58-.82,1.16-1.02,1.7l-2.52-.61c.68-3.09,1.53-10.23,1.73-13.8l2.86.37c-.47,2.31-1.05,7.38-1.43,9.55Zm15.33-13.12l-.65,2.62c-3.23-.44-10.61-1.94-13.19-2.65l.68-2.58c2.92.92,10.17,2.35,13.16,2.62Z"/>
      <path d="m728.81,509.69v2.18h5.61c.78,0,1.56-.03,2.14-.2l1.77,1.7c-.61.65-1.36,1.43-1.9,2.04-1.7,2.04-4.55,4.9-7.68,7.07,0,2.79-.04,6.87-.04,9.14,0,1.19.1,2.69.17,3.74h-3.09c.1-.99.21-2.55.21-3.74,0-1.97.03-5.1.03-7.41-3.16,1.84-6.9,3.33-11.49,4.73l-1.63-2.52c6.43-1.53,10.68-3.77,13.77-5.78,3.03-1.94,5.75-4.62,6.9-6.22h-14.11c-1.19,0-3.13.07-4.18.14v-2.86c1.09.14,2.99.17,4.11.17h6.66v-2.18c0-.95-.04-2.24-.17-2.99h3.13c-.14.75-.21,2.04-.21,2.99Zm2.92,14.45l1.77-2.01c3.2,1.7,5.03,2.79,8.19,4.93l-1.77,2.31c-2.96-2.18-5-3.54-8.19-5.23Z"/>
      <path d="m755.84,523.73l-2.58.95c-.51-1.77-2.35-6.46-3.03-7.65l2.52-.99c.68,1.46,2.45,5.92,3.09,7.68Zm16.59-5.78c-.92,3.74-2.38,7.38-4.83,10.44-3.13,4.01-7.28,6.63-11.08,8.09l-2.24-2.28c3.95-1.16,8.26-3.74,11.05-7.24,2.41-2.96,4.18-7.28,4.69-11.63l2.92.92c-.24.71-.38,1.26-.51,1.7Zm-9.11,3.74l-2.52.88c-.37-1.53-1.94-5.85-2.65-7.38l2.48-.85c.58,1.36,2.24,5.85,2.69,7.34Z"/>
      <path d="m789.67,511.15c0-.95-.07-2.48-.27-3.54h3.33c-.1,1.05-.24,2.52-.24,3.54v5.54c4.49,1.36,10.95,3.81,14.52,5.61l-1.15,2.89c-3.71-2-9.59-4.28-13.36-5.47.03,5.1.03,10.23.03,11.22,0,1.05.07,2.89.21,4.01h-3.3c.17-1.09.24-2.75.24-4.01v-19.79Z"/>
      <path d="m827.62,532.84c-4.59.99-9.52,1.94-13.09,2.65l-.58-2.28c1.63-.27,3.71-.68,5.98-1.09v-10.33h-5.54v-2.21h5.54v-3.57h-3.84v-1.46c-.44.44-.92.88-1.39,1.29-.38-.51-1.12-1.29-1.6-1.63,3.2-2.58,5.4-6.02,6.63-8.7h2.24c2.21,1.84,4.89,4.52,6.22,6.29l-1.7,1.94c-1.12-1.6-3.3-4.11-5.27-5.92-1.05,1.84-2.48,3.98-4.42,6.02h9.52v2.18h-4.18v3.57h5.06v2.21h-5.06v9.93l5.3-1.02.17,2.14Zm-10.78-9.11c.75,1.97,1.36,4.55,1.53,6.22l-1.9.54c-.1-1.73-.68-4.32-1.39-6.32l1.77-.44Zm6.36,5.78c.54-1.63,1.33-4.35,1.67-6.19l1.97.61c-.65,2.07-1.43,4.56-2.04,6.15l-1.6-.58Zm21.28-5c-1.53,1.39-3.5,2.89-5.13,3.98,1.5,2.65,3.47,4.76,6.02,5.98-.54.48-1.29,1.46-1.67,2.11-4.93-2.72-7.75-8.26-9.25-15.2h-3.09v11.18c2.01-.48,4.15-.99,6.29-1.5l.24,2.31c-3.84,1.02-7.92,2.04-11.05,2.75l-.71-2.41c.85-.17,1.8-.37,2.86-.61v-26.21h14.14v14.48h-6.39c.44,1.84.99,3.57,1.67,5.2,1.53-1.16,3.26-2.62,4.35-3.77l1.73,1.7Zm-13.12-15.33v3.77h9.35v-3.77h-9.35Zm0,10h9.35v-4.01h-9.35v4.01Z"/>
      <path d="m859.07,513.6c-1.05,1.73-2.35,3.47-3.74,5.13v17.88h-2.52v-15.09c-1.29,1.33-2.58,2.55-3.84,3.54-.37-.51-1.26-1.6-1.77-2.11,3.5-2.48,7.17-6.39,9.52-10.23l2.35.88Zm-1.33-7.17c-2.21,2.99-5.68,6.29-8.7,8.43-.38-.54-1.05-1.53-1.5-2.01,2.82-1.9,6.09-4.96,7.79-7.38l2.41.95Zm20.84,12.82h-5.13v14.04c0,1.56-.38,2.35-1.5,2.75-1.16.37-3.06.37-6.39.37-.1-.68-.44-1.73-.81-2.45,2.41.07,4.66.07,5.3.03s.85-.17.85-.75v-14.01h-11.36v-2.41h19.04v2.41Zm-.99-9.31h-16.59v-2.38h16.59v2.38Z"/>
      <path d="m895.24,517.58c3.2-1.94,6.87-3.74,8.74-4.76.99-.58,1.7-1.02,2.41-1.6l1.5,2.41c-.78.48-1.63.92-2.62,1.43-2.31,1.19-7,3.43-10.34,5.64-3.16,2.04-5.06,4.28-5.06,6.87,0,2.82,2.69,4.59,8.06,4.59,3.71,0,8.23-.48,10.88-1.16v3.03c-2.58.44-6.49.85-10.74.85-6.39,0-11.02-1.9-11.02-7,0-3.5,2.24-6.25,5.88-8.81-1.56-2.79-3.37-6.76-4.93-10.47l2.69-1.12c1.36,3.74,3.06,7.41,4.56,10.1Z"/>
      <path d="m932.34,534.98l-1.6-2.52c1.09-.1,2.14-.27,2.92-.44,4.35-.99,8.63-4.22,8.63-10.1,0-5.13-3.3-9.38-9.08-9.86-.44,3.16-1.09,6.63-2.04,9.79-2.07,7-4.76,10.57-7.92,10.57s-6.05-3.47-6.05-9.08c0-7.38,6.56-13.84,14.86-13.84s13.02,5.61,13.02,12.51-4.69,11.9-12.75,12.95Zm-8.97-5.68c1.6,0,3.4-2.28,5.13-8.02.85-2.82,1.53-6.05,1.9-9.18-6.53.82-10.54,6.39-10.54,11.01,0,4.28,1.97,6.19,3.5,6.19Z"/>
      <path d="m977.89,509.01v26.52h-2.69v-2.72h-19.99v2.89h-2.55v-26.69h25.23Zm-2.69,21.25v-18.73h-19.99v18.73h19.99Z"/>
      <path d="m988.57,511.42v7.04c0,5.17-.37,12.82-3.16,17.95-.44-.41-1.53-1.12-2.11-1.39,2.58-4.86,2.86-11.7,2.86-16.59v-9.35h12.75v-3.57h2.58v3.57h12.88v2.35h-25.8Zm14.14,22h11.76v2.24h-25.74v-2.24h11.53v-5.07h-9.31v-2.18h9.31v-13.36h2.45v9.93c2.79-2.07,4.42-5.27,5.1-9.38l2.28.27c-.24,1.5-.61,2.86-1.09,4.15,1.97,1.63,4.32,3.67,5.54,5.06l-1.6,1.67c-1.05-1.26-2.99-3.09-4.86-4.69-.95,1.8-2.14,3.3-3.64,4.49-.34-.41-1.19-1.16-1.73-1.5v3.37h9.69v2.18h-9.69v5.07Zm-6.12-19.82c-.24,1.53-.58,2.96-1.05,4.28,1.56,1.39,3.3,3.13,4.22,4.28l-1.53,1.63c-.78-1.02-2.14-2.52-3.54-3.88-.92,1.94-2.14,3.54-3.67,4.83-.37-.37-1.36-1.16-1.9-1.5,2.89-2.14,4.49-5.58,5.1-9.89l2.38.24Z"/>
      <path d="m1024.61,529.71c1.6,2.52,4.59,3.67,8.57,3.81,3.74.17,11.56.07,15.64-.2-.31.58-.71,1.73-.82,2.48-3.81.17-10.98.24-14.79.07-4.45-.17-7.51-1.36-9.62-4.01-1.49,1.46-3.06,2.89-4.72,4.35l-1.33-2.41c1.43-1.05,3.16-2.48,4.69-3.91v-8.7h-4.32v-2.38h6.7v10.91Zm-1.02-16.28c-1.02-1.7-3.3-4.05-5.37-5.68l1.94-1.43c2.07,1.56,4.42,3.88,5.47,5.54l-2.04,1.56Zm12.1,15.03h-9.65v-2.14h9.65v-2.38h-7.51v-10.98h7.51v-2.31h-9.14v-2.14h9.14v-2.99h2.45v2.99h9.62v2.14h-9.62v2.31h7.85v10.98h-7.85v2.38h10.13v2.14h-10.13v3.88h-2.45v-3.88Zm-5.2-10.91h5.2v-2.72h-5.2v2.72Zm5.2,4.49v-2.72h-5.2v2.72h5.2Zm2.45-7.21v2.72h5.44v-2.72h-5.44Zm5.44,4.49h-5.44v2.72h5.44v-2.72Z"/>
      <path d="m1062.18,522.06c-1.26.41-2.55.85-3.84,1.26v10.27c0,1.39-.3,2.07-1.15,2.48-.82.38-2.11.48-4.22.44-.1-.58-.41-1.63-.75-2.31,1.46.03,2.79.03,3.2,0,.41,0,.58-.1.58-.61v-9.49c-1.46.48-2.82.95-4.04,1.33l-.65-2.45c1.29-.37,2.92-.85,4.69-1.39v-6.97h-4.25v-2.31h4.25v-6.8h2.35v6.8h3.64v.71c1.94-2.01,3.54-4.69,4.42-7.55l2.21.54c-.37,1.12-.82,2.18-1.33,3.23h4.93c.61-1.19,1.22-2.62,1.6-3.64l2.45.61c-.54,1.02-1.12,2.07-1.66,3.03h7.21v1.9h-7.41v2.04h6.49v1.63h-6.49v2.18h6.49v1.63h-6.49v2.21h7.75v1.9h-17.54v-9.21c-.65.78-1.29,1.5-1.97,2.14-.21-.27-.61-.68-.99-1.05h-3.3v6.22c1.16-.34,2.35-.75,3.5-1.12l.34,2.35Zm20.16,6.49c-.48,4.42-.95,6.32-1.77,7.14-.58.51-1.19.71-2.18.75-.78.07-2.38.07-4.08-.07-.03-.61-.3-1.5-.71-2.07,1.67.14,3.33.17,3.94.17.58,0,.88-.03,1.16-.27.51-.48.88-1.77,1.22-4.69h-4.28c-.14.61-.31,1.16-.44,1.67l-2.18-.34c.34-1.16.71-2.65,1.05-4.11h-4.35c-.68,5.13-3.03,8.02-7.28,9.89-.3-.48-1.12-1.43-1.63-1.84,3.84-1.43,5.88-3.88,6.43-8.06h-4.69v-2.11h14.21c-.21.95-.41,1.97-.65,2.96h6.32l-.1.99Zm-10.27-17.41h-5.3v2.04h5.3v-2.04Zm0,3.67h-5.3v2.18h5.3v-2.18Zm0,3.81h-5.3v2.21h5.3v-2.21Z"/>
      <path d="m1098.26,509.55c-.2.99-.51,2.99-.88,4.83,1.6-.14,2.99-.24,3.81-.24,3.06,0,5.54,1.16,5.54,5.78,0,4.05-.58,9.45-1.97,12.27-1.09,2.28-2.79,2.82-4.96,2.82-1.33,0-2.92-.24-4.01-.48l-.44-2.86c1.43.44,3.2.71,4.15.71,1.26,0,2.31-.27,2.99-1.77,1.09-2.28,1.6-6.73,1.6-10.4,0-3.09-1.43-3.67-3.6-3.67-.81,0-2.18.1-3.64.24-1.26,4.86-3.57,12.58-7.17,18.32l-2.75-1.12c3.47-4.62,6.02-12.37,7.17-16.93-1.8.17-3.43.34-4.32.44-.78.1-2.21.27-3.06.41l-.31-2.92c1.09.03,1.97.03,3.06,0,1.12-.03,3.09-.2,5.17-.37.51-2.45.88-5.1.88-7.41l3.13.31c-.13.65-.27,1.36-.37,2.04Zm18.29,13.97l-2.62,1.26c-1.02-3.5-3.67-9.42-6.08-12.21l2.48-1.12c2.11,2.75,5.1,8.91,6.22,12.07Zm-3.03-12.34l-1.87.82c-.68-1.36-1.84-3.43-2.75-4.73l1.84-.75c.85,1.19,2.07,3.3,2.79,4.66Zm3.81-1.39l-1.84.82c-.75-1.46-1.87-3.4-2.82-4.69l1.8-.78c.88,1.26,2.21,3.4,2.86,4.66Z"/>
      <path d="m1146.6,533.62c1.26,0,1.5-.61,1.6-4.49.58.37,1.63.78,2.31.99-.27,4.62-1.02,5.81-3.71,5.81h-5.24c-3.09,0-3.91-.78-3.91-3.47v-8.6h-5.95c-.78,6.15-2.79,10.5-10.71,12.71-.27-.61-.95-1.67-1.5-2.14,7.24-1.8,8.91-5.44,9.52-10.57h-8.77v-2.38h29.92v2.38h-9.99v8.6c0,.95.24,1.16,1.67,1.16h4.76Zm-23.02-17.41h-2.55v-7.11h12.78v-3.6h2.62v3.6h12.92v7.11h-2.62v-4.73h-23.15v4.73Zm2.45,1.39v-2.35h18.32v2.35h-18.32Z"/>
      <path d="m1182.34,509.38c-2.96,3.54-7.62,7.45-11.76,9.83v14.04c0,1.7-.48,2.48-1.77,2.89-1.29.37-3.54.37-7,.37-.1-.71-.61-1.8-1.02-2.52,2.79.1,5.44.1,6.19.07.75-.03.98-.24.98-.85v-16.22h1.67c2.82-1.7,5.78-4.18,7.92-6.39h-21.89v-2.48h24.17l.54-.17,1.97,1.43Z"/>
      <path d="m1207.36,509.14c0,.51-.03,1.29-.03,2.21h.51c4.15,0,8.33.03,9.96.03l-.04,2.52c-1.9-.1-5-.17-9.96-.17h-.47c0,1.94.03,4.05.07,5.61.71,1.16,1.09,2.65,1.09,4.35,0,4.59-2.24,9.69-10.16,12.07l-2.28-2.24c4.52-1.02,7.65-2.92,9.01-6.02-.81.61-1.8.92-2.96.92-2.86,0-5.58-1.97-5.58-5.68,0-3.37,2.75-5.92,5.98-5.92.85,0,1.6.14,2.28.37,0-1.02,0-2.24-.03-3.43-5.17.03-10.95.27-15.2.58l-.07-2.62c3.77-.07,10.17-.27,15.23-.34,0-.95-.03-1.77-.07-2.24-.03-.88-.17-1.87-.2-2.14h3.09c-.07.37-.14,1.7-.17,2.14Zm-4.83,16.93c2.01,0,3.3-1.6,2.99-4.83-.54-1.5-1.7-2.14-3.03-2.14-1.77,0-3.43,1.39-3.43,3.6s1.56,3.37,3.47,3.37Z"/>
      <path d="m1230.72,509.01c1.77,0,9.86-.27,11.66-.44,1.02-.07,1.5-.17,1.84-.27l1.56,1.97c-.61.44-1.29.88-1.9,1.39-1.7,1.29-6.32,5.23-8.97,7.44,1.56-.54,3.2-.71,4.72-.71,5.64,0,9.69,3.4,9.69,7.99,0,5.47-4.49,9.01-11.7,9.01-4.62,0-7.45-2.01-7.45-4.83,0-2.35,2.07-4.42,5.24-4.42,4.25,0,6.53,2.79,6.94,6.02,2.72-1.05,4.25-3.03,4.25-5.81,0-3.33-3.2-5.85-7.62-5.85-5.68,0-8.7,2.41-13.02,6.8l-1.94-2.01c2.82-2.31,7.17-5.95,9.14-7.62,1.9-1.56,6.15-5.13,7.89-6.66-1.8.07-8.6.37-10.4.48-.75.03-1.53.1-2.24.2l-.1-2.82c.78.1,1.73.14,2.41.14Zm6.46,24c.99,0,1.9-.07,2.75-.21-.27-2.69-1.97-4.62-4.56-4.62-1.53,0-2.72.99-2.72,2.18,0,1.63,1.87,2.65,4.52,2.65Z"/>
      <path d="m1270.91,509.89c-.21.41-.44.82-.71,1.22h9.21c.92,0,1.67-.14,2.24-.34l2.24,1.36c-.31.48-.61,1.29-.82,1.84-.88,3.13-2.72,7.11-5.3,10.57,1.43,1.05,2.79,2.11,3.88,2.99l-2.01,2.35c-1.02-.92-2.31-1.97-3.71-3.09-3.03,3.37-7.21,6.49-12.95,8.63l-2.45-2.11c5.74-1.77,10.1-4.9,13.16-8.19-2.45-1.77-5.03-3.54-7.21-4.9l1.84-1.87c2.24,1.29,4.79,2.92,7.17,4.59,2.21-2.96,3.94-6.63,4.62-9.42h-11.49c-2.18,3.06-5.2,6.39-9.01,9.01l-2.28-1.77c5.85-3.64,9.31-8.74,10.91-11.83.34-.61.88-1.8,1.09-2.69l3.09.99c-.58.88-1.19,2.04-1.53,2.65Z"/>
      <path d="m1306,515.3c3.54-2.21,6.94-5.17,9.28-7.99l2.28,2.11c-2.58,2.69-5.71,5.27-9.18,7.58v14.35c0,1.29.07,2.96.21,3.64h-3.33c.1-.65.2-2.35.2-3.64v-12.58c-3.57,2.04-8.23,4.08-12.95,5.54l-1.36-2.65c5.88-1.6,11.08-3.98,14.86-6.36Z"/>
      <path d="m1348.8,532.16l-1.16,2.62c-4.52-1.97-14.62-4.25-20.12-5.13l1.05-2.58c5.71.88,15.57,3.23,20.23,5.1Zm-1.22-10.91l-1.09,2.62c-3.94-1.56-12.24-3.43-17.07-4.15l1.02-2.55c4.66.78,12.88,2.52,17.13,4.08Zm2.24-9.11l-1.09,2.62c-4.15-1.5-13.05-3.43-17.75-4.05l.99-2.52c4.42.54,13.56,2.45,17.85,3.94Z"/>
      <path d="m1374.61,526.82c5.24-3.3,9.38-8.33,11.36-12.51l1.63,2.89c-2.31,4.25-6.29,8.87-11.42,12.1-3.4,2.14-7.68,4.22-13.36,5.27l-1.8-2.79c5.95-.88,10.37-2.96,13.6-4.96Zm-2.01-10.78l-2.14,2.14c-1.7-1.77-5.95-5.41-8.46-7.11l1.94-2.07c2.41,1.6,6.77,5.13,8.67,7.04Z"/>
      <path d="m1405.58,511.01c-.24.48-.51.95-.78,1.43h9.21c.92,0,1.67-.1,2.21-.31l2.24,1.36c-.27.48-.61,1.26-.78,1.8-.92,3.43-2.99,8.02-6.02,11.73-3.09,3.77-7.17,6.87-13.53,9.25l-2.48-2.24c6.26-1.84,10.51-4.9,13.6-8.53,2.62-3.09,4.72-7.51,5.4-10.61h-11.46c-2.07,2.89-4.89,5.92-8.63,8.36l-2.35-1.73c5.85-3.5,9.18-8.47,10.68-11.49.34-.61.85-1.84,1.05-2.72l3.13,1.05c-.54.88-1.16,2.04-1.5,2.65Zm13.43.37l-1.84.82c-.68-1.36-1.84-3.43-2.75-4.69l1.8-.78c.85,1.22,2.07,3.26,2.79,4.66Zm3.81-1.39l-1.84.82c-.75-1.46-1.87-3.4-2.82-4.66l1.8-.78c.88,1.26,2.21,3.37,2.86,4.62Z"/>
      <path d="m1439.24,517.58c3.2-1.94,6.87-3.74,8.74-4.76.99-.58,1.7-1.02,2.41-1.6l1.5,2.41c-.78.48-1.63.92-2.62,1.43-2.31,1.19-7,3.43-10.34,5.64-3.16,2.04-5.06,4.28-5.06,6.87,0,2.82,2.69,4.59,8.06,4.59,3.71,0,8.23-.48,10.88-1.16v3.03c-2.58.44-6.49.85-10.74.85-6.39,0-11.02-1.9-11.02-7,0-3.5,2.24-6.25,5.88-8.81-1.56-2.79-3.37-6.76-4.93-10.47l2.69-1.12c1.36,3.74,3.06,7.41,4.56,10.1Z"/>
      <path d="m1472.22,512.2c1.77-.27,3.6-.68,5.34-1.26l.07,2.55c-1.8.51-3.94.95-6.19,1.26-1.67,4.79-4.69,10.67-7.41,14.35l-2.62-1.36c2.82-3.3,5.71-8.74,7.28-12.71-1.02.07-2.04.1-3.03.1-1.26,0-2.69-.03-3.98-.1l-.17-2.55c1.26.17,2.72.24,4.15.24,1.22,0,2.52-.07,3.84-.17.51-1.9.99-4.04,1.05-5.88l2.99.27c-.3,1.22-.78,3.3-1.32,5.27Zm9.31,8.91c.03,1.26.17,3.47.24,5.58,2.92,1.05,5.3,2.72,7.07,4.22l-1.46,2.31c-1.46-1.29-3.3-2.82-5.51-3.91.03.54.03,1.02.03,1.43,0,2.72-1.73,4.93-5.95,4.93-3.74,0-6.8-1.53-6.8-4.9,0-3.13,2.96-5.1,6.8-5.1,1.16,0,2.28.1,3.33.34-.14-2.79-.31-6.15-.37-8.57h2.65c-.07,1.39-.07,2.45-.03,3.67Zm-5.92,12.1c2.82,0,3.77-1.5,3.77-3.37,0-.44,0-.95-.03-1.53-1.09-.34-2.28-.51-3.5-.51-2.48,0-4.18,1.16-4.18,2.72s1.29,2.69,3.94,2.69Zm4.96-19.55l1.39-2.07c2.45,1.09,6.32,3.3,7.92,4.52l-1.53,2.24c-1.84-1.56-5.51-3.67-7.79-4.69Z"/>
      <path d="m1502.14,516.56c1.39-3.47,4.93-7.72,9.25-7.72s7.75,4.52,7.75,11.66c0,9.45-5.92,13.6-14.35,15.13l-1.6-2.45c7.38-1.09,13.16-4.11,13.16-12.65,0-5.37-1.84-9.25-5.41-9.25-4.25,0-8.19,6.19-8.6,10.64-.17,1.33-.13,2.48.07,4.18l-2.62.21c-.17-1.29-.38-3.2-.38-5.41,0-3.23.65-8.23,1.05-10.98.14-1.02.2-2.01.27-2.92l2.99.1c-.71,2.48-1.39,7.07-1.6,9.45Z"/>
      <path d="m1545.49,509.21c0,.44-.04,1.19-.04,2.07,3.06-.14,6.15-.44,9.21-.92l-.03,2.48c-2.69.31-5.92.61-9.18.78v4.76c3.3-.14,6.39-.44,9.49-.92l-.04,2.55c-3.2.41-6.19.68-9.42.78.07,1.77.17,3.6.24,5.24,4.52,1.22,7.99,3.71,9.93,5.3l-1.56,2.41c-2.01-1.84-4.83-3.91-8.23-5.13.03.85.07,1.56.07,2.11,0,2.35-1.56,4.76-5.98,4.76-4.89,0-7.55-1.73-7.55-5,0-3.09,2.96-5.2,7.85-5.2.99,0,1.94.07,2.86.2-.03-1.53-.1-3.16-.13-4.62h-1.94c-2.31,0-6.05-.21-8.5-.48l-.04-2.55c2.45.41,6.32.65,8.57.65h1.84v-4.76h-1.5c-2.38,0-6.56-.34-8.7-.58l-.04-2.52c2.21.41,6.43.75,8.7.75h1.56v-2.41c0-.58-.07-1.56-.14-2.04h2.89c-.1.61-.17,1.29-.2,2.28Zm-5.85,23.9c1.94,0,3.6-.61,3.6-2.96,0-.58-.04-1.39-.04-2.28-1.05-.24-2.18-.34-3.3-.34-3.23,0-5,1.26-5,2.82s1.36,2.75,4.73,2.75Z"/>
      <path d="m1581.36,509.14c0,.51-.03,1.29-.03,2.21h.51c4.15,0,8.33.03,9.96.03l-.04,2.52c-1.9-.1-5-.17-9.96-.17h-.47c0,1.94.03,4.05.07,5.61.71,1.16,1.09,2.65,1.09,4.35,0,4.59-2.24,9.69-10.16,12.07l-2.28-2.24c4.52-1.02,7.65-2.92,9.01-6.02-.81.61-1.8.92-2.96.92-2.86,0-5.58-1.97-5.58-5.68,0-3.37,2.75-5.92,5.98-5.92.85,0,1.6.14,2.28.37,0-1.02,0-2.24-.03-3.43-5.17.03-10.95.27-15.2.58l-.07-2.62c3.77-.07,10.17-.27,15.23-.34,0-.95-.03-1.77-.07-2.24-.03-.88-.17-1.87-.2-2.14h3.09c-.07.37-.14,1.7-.17,2.14Zm-4.83,16.93c2.01,0,3.3-1.6,2.99-4.83-.54-1.5-1.7-2.14-3.03-2.14-1.77,0-3.43,1.39-3.43,3.6s1.56,3.37,3.47,3.37Z"/>
      <path d="m1606.01,530.8c0,2.89-2.31,5.2-5.2,5.2s-5.17-2.31-5.17-5.2,2.35-5.17,5.17-5.17,5.2,2.31,5.2,5.17Zm-1.73,0c0-1.87-1.53-3.43-3.47-3.43s-3.43,1.56-3.43,3.43,1.56,3.47,3.43,3.47,3.47-1.53,3.47-3.47Z"/>
    </g>
  </g>
  <rect class="cls-3" x="160.14" y="103.58" width="1623.41" height="367" rx="31.65" ry="31.65"/>
  <g>
    <polygon class="cls-5" points="1422.48 159.42 521.34 159.42 563.91 104.42 521.34 40.42 1422.48 40.42 1381.14 104.42 1422.48 159.42"/>
    <g>
      <path d="m674.29,118.37c-.62-.77-1.49-1.73-2.4-2.74v9.07h-6.77v-7.97c-1.54,2.06-3.26,3.94-4.94,5.33-1.06-1.49-3.07-3.79-4.51-4.94,2.98-1.92,6.05-5.14,8.16-8.4h-6.67v-5.81h7.97v-2.93h-8.11v-5.66h3.89c-.19-1.34-.67-3.02-1.2-4.32l2.54-.62h-4.66v-5.62h7.54v-4.08h6.77v4.08h7.54v5.62h-3.89l2.06.38c-.82,1.78-1.44,3.36-2.02,4.56h4.13v5.66h-7.83v2.93h7.34v5.81h-7.34v.05c1.73,1.1,5.38,3.89,6.38,4.66l-3.98,4.94Zm-8.98-28.99c.62,1.44,1.15,3.17,1.3,4.37l-2.11.58h8.21l-2.88-.58c.48-1.25,1.06-2.93,1.44-4.37h-5.95Zm22.27,5.47h14.4v6.43h-4.08v23.23h-6.77v-23.23h-3.55c-.14,7.11-1.39,17.14-7.34,23.52-.86-1.54-3.41-3.94-4.99-4.75,5.23-5.81,5.71-13.97,5.71-20.45v-16.75l3.79,1.06c4.42-1.15,8.79-2.69,11.67-4.27l5.57,5.04c-4.27,1.97-9.55,3.41-14.4,4.46v5.71Z"/>
      <path d="m722.92,117.46c-1.01-1.73-2.54-3.98-4.03-6.1-1.3,4.9-3.6,9.41-7.63,12.77-.96-1.44-3.17-3.84-4.75-4.99,4.94-3.55,6.58-9.7,7.1-15.5h-6.24v-6.29h6.48v-5.04h-5.81v-6.1h5.81v-6.58h6.53v6.58h5.62v6.1h-5.62v5.04h6.24v6.29h-6.48l-.05.34c2.06,2.02,6.43,7.2,7.54,8.5l-4.71,4.99Zm23.52.34c.62,0,.77-.62.91-5.42,1.2,1.06,3.98,2.11,5.66,2.54-.58,7.01-2.16,8.83-5.86,8.83h-2.78c-4.85,0-5.81-1.97-5.81-7.44v-7.25h-1.49c-.77,6.96-2.74,12.48-11.42,15.79-.67-1.58-2.4-4.03-3.74-5.23,6.86-2.26,8.06-5.95,8.64-10.56h-2.59v-28.32h21.84v28.32h-4.8v7.15c0,1.44.05,1.58.58,1.58h.86Zm-12.05-29.23h8.69v-1.68h-8.69v1.68Zm0,7.2h8.69v-1.73h-8.69v1.73Zm0,7.15h8.69v-1.73h-8.69v1.73Z"/>
      <path d="m777.16,85.49l-.14,2.45c2.98-.38,5.9-.96,8.3-1.63l.14,7.2c-2.64.58-5.71,1.06-8.64,1.39-.05,1.01-.05,2.02-.05,3.07v1.87c3.02-.67,6.05-1.01,8.45-1.01,7.58,0,13.87,3.89,13.87,10.99,0,5.62-2.59,10.22-10.8,12.29-2.26.48-4.42.67-6.53.86l-2.64-7.54c2.3,0,4.42-.05,6-.34,3.7-.62,6.38-2.4,6.38-5.33s-2.4-4.56-6.38-4.56c-2.64,0-5.52.38-8.21,1.05.1,3.6.19,6.96.19,8.45,0,6.77-2.4,8.45-5.86,8.45-5.18,0-12-4.22-12-9.75,0-4.32,4.8-8.83,10.85-11.47-.05-1.25-.05-2.5-.05-3.74v-2.74c-.77.05-1.44.05-2.06.05-3.46,0-5.38-.05-7.01-.24l-.14-7.01c2.93.34,5.18.34,6.91.34.72,0,1.49,0,2.3-.05v-3.02c0-1.01-.19-3.79-.34-4.7h7.97c-.19.91-.43,3.41-.53,4.66Zm-8.21,29.71c.72,0,1.39-.19,1.39-1.87,0-.91-.05-2.54-.1-4.51-2.4,1.34-3.84,2.93-3.84,4.27,0,1.15,1.63,2.11,2.54,2.11Zm33.99-22.61l-3.46,5.91c-2.26-1.78-9.02-5.52-11.95-6.87l3.12-5.66c3.84,1.78,9.6,4.85,12.29,6.62Z"/>
      <path d="m850.46,85.58v29.38h-7.3v-2.16h-9.22v11.95h-7.3v-11.95h-8.98v2.45h-6.96v-29.67h15.94v-6.43h7.3v6.43h16.51Zm-32.79,6.67v3.7h8.98v-3.7h-8.98Zm8.98,13.87v-3.79h-8.98v3.79h8.98Zm7.3-13.87v3.7h9.22v-3.7h-9.22Zm9.22,13.87v-3.79h-9.22v3.79h9.22Z"/>
      <path d="m874.79,89.04c-.24,5.04-.58,15.41-.58,20.69,0,4.61,2.64,6.05,5.9,6.05,7.44,0,12.48-4.37,15.99-9.75l5.28,6.48c-2.98,4.61-10.13,11.23-21.31,11.23-8.4,0-13.63-3.79-13.63-12.19,0-6.05.43-18.91.43-22.51,0-2.59-.24-5.23-.72-7.39l9.36.1c-.34,2.26-.62,5.18-.72,7.3Z"/>
      <path d="m920.97,112.8c1.78,2.98,5.04,4.18,9.74,4.37,5.86.24,16.8.1,23.71-.53-.77,1.68-1.87,5.04-2.21,7.11-6.1.34-15.65.43-21.65.14-5.71-.24-9.5-1.44-12.67-5.14-1.97,1.73-3.98,3.46-6.58,5.52l-3.36-7.3c1.97-1.1,4.18-2.45,6.19-3.89v-8.93h-4.94v-6.43h11.76v15.07Zm-4.46-20.79c-1.39-2.21-4.75-5.43-7.49-7.59l5.18-4.18c2.74,1.97,6.24,4.94,7.87,7.15l-5.57,4.61Zm18.72-.38c-.19-1.34-.34-2.74-.43-4.13h-8.16v-6.58h14.11c.48,13.11,2.93,24.77,13.15,29.86-1.63,1.15-4.18,3.7-5.42,5.38-5.42-3.31-8.78-8.16-10.85-13.97-2.35,6-5.81,10.75-10.51,14.02-1.01-1.34-3.75-4.08-5.33-5.28,6.53-3.79,10.03-10.71,11.38-19.59l2.06.29Z"/>
      <path d="m971.85,83.47c2.88,0,7.3-.14,9.65-.34,1.34-.1,2.83-.43,3.79-.82l4.61,3.6c-.77.82-1.44,1.54-1.82,2.21-1.2,2.02-2.83,5.81-4.46,9.65,3.17.58,6.14,1.49,8.88,2.64,0-.19.05-.38.05-.53.14-2.11.14-4.18-.05-5.71l7.63.86c-.14,3.12-.43,6-.86,8.64,1.87,1.1,3.46,2.11,4.75,2.98l-3.36,8.11c-1.15-1.06-2.35-2.06-3.65-3.07-2.21,4.99-5.81,9.02-11.86,12.24l-6.24-5.04c7.01-3.02,10.32-7.25,12-11.18-3.07-1.68-6.43-2.98-10.03-3.55-1.68,3.98-3.46,8.26-5.09,10.9-2.06,3.17-4.56,4.71-8.3,4.71-4.56,0-8.02-3.07-8.02-8.45,0-7.58,6.91-13.44,16.66-14.02,1.15-2.69,2.3-5.47,3.22-7.34-1.92.05-5.14.14-7.3.29-.96.05-2.83.24-4.13.43l-.29-7.44c1.34.14,3.17.24,4.22.24Zm-4.03,28.61c.86,0,1.44-.48,2.26-1.63.96-1.54,2.02-3.84,3.07-6.34-4.42.91-6.91,3.6-6.91,6.05,0,1.3.67,1.92,1.58,1.92Z"/>
      <path d="m1023.73,81.89l8.21-1.3c.14.96.29,2.74.53,3.94.1.72.38,2.16.72,4.03,3.7-.58,6.96-1.15,8.5-1.44,1.58-.29,3.74-.77,5.09-1.15l1.39,7.58c-1.25.1-3.46.43-4.99.62-1.82.29-5.09.82-8.69,1.39.38,2.11.82,4.32,1.25,6.58,3.98-.67,7.58-1.3,9.6-1.68,1.87-.38,3.89-.86,5.28-1.25l1.54,7.63c-1.44.1-3.65.48-5.47.77-2.11.34-5.67.91-9.6,1.54.67,3.5,1.25,6.48,1.58,8.11.34,1.44.82,3.22,1.25,4.9l-8.35,1.44c-.24-1.87-.34-3.6-.62-5.04-.24-1.49-.82-4.51-1.49-8.16-4.56.77-8.69,1.49-10.66,1.87-2.16.38-3.98.72-5.09,1.01l-1.63-7.68c1.34-.05,3.74-.34,5.38-.58,2.11-.34,6.19-.96,10.7-1.68-.43-2.21-.86-4.46-1.25-6.58-3.98.62-7.44,1.2-8.74,1.44-1.63.34-2.93.62-4.7,1.1l-1.54-7.92c1.68-.1,3.22-.19,4.7-.38,1.54-.19,4.99-.67,8.93-1.3-.34-1.78-.62-3.17-.77-3.98-.34-1.44-.67-2.64-1.06-3.84Z"/>
      <path d="m1078.89,93.03c.34,1.15.72,2.59,1.15,4.18,5.67-1.1,11.62-2.26,13.63-2.69.96-.19,2.02-.53,2.74-.87l4.7,3.31c-2.06,4.27-6.82,11.76-10.22,15.55l-6.38-3.17c2.16-2.02,5.33-5.86,6.43-7.92-1.1.19-4.85.96-9.17,1.87,1.78,6.43,3.65,13.3,4.46,15.99.24.82,1.01,3.31,1.39,4.32l-7.87,1.92c-.19-1.39-.53-3.17-.96-4.61-.77-2.79-2.54-9.75-4.22-16.08-3.7.82-6.96,1.54-8.5,1.87l-1.78-6.91c1.58-.14,2.98-.29,4.66-.58.62-.1,2.06-.34,3.94-.67-.38-1.54-.77-2.93-1.1-3.94-.34-1.25-.91-2.54-1.49-3.7l7.78-1.82c.19,1.3.53,2.69.82,3.94Z"/>
      <path d="m1131.64,108.96c8.64-4.99,15.12-12.43,18.34-19.2l4.51,8.21c-3.84,6.82-10.66,13.49-18.67,18.19-4.9,2.88-11.14,5.38-17.19,6.34l-4.94-7.68c7.06-.96,13.25-3.12,17.95-5.86Zm1.63-15.7l-5.95,6.1c-2.54-2.78-8.59-8.06-12.05-10.51l5.52-5.91c3.31,2.26,9.6,7.25,12.48,10.32Z"/>
      <path d="m1164.71,102c2.11-2.11,5.62-6.48,9.07-10.61,3.02-3.6,6.19-4.13,10.18-.38,3.41,3.22,6.82,6.77,9.75,9.94,3.22,3.46,8.21,8.79,11.91,12.72l-6.43,6.91c-3.12-3.89-7.06-8.88-9.75-12.1-2.83-3.41-6.96-8.02-8.54-9.65-1.39-1.39-2.45-1.34-3.65.24-1.68,2.21-4.71,6.62-6.53,9.22-1.15,1.68-2.35,3.5-3.26,4.9l-7.01-7.25c1.54-1.25,2.69-2.35,4.27-3.94Zm32.5-18c3.6,0,6.48,2.88,6.48,6.48s-2.88,6.43-6.48,6.43-6.43-2.83-6.43-6.43,2.83-6.48,6.43-6.48Zm0,9.27c1.54,0,2.78-1.25,2.78-2.79s-1.25-2.78-2.78-2.78-2.78,1.25-2.78,2.78,1.25,2.79,2.78,2.79Z"/>
      <path d="m1222.07,97.49h25.49c2.16,0,4.51-.24,5.91-.34v9.17c-1.25-.05-3.94-.29-5.91-.29h-25.49c-2.74,0-6.34.14-8.3.29v-9.17c1.92.14,5.95.34,8.3.34Z"/>
      <path d="m1282.84,108.96c8.64-4.99,15.12-12.43,18.34-19.2l4.51,8.21c-3.84,6.82-10.66,13.49-18.67,18.19-4.9,2.88-11.14,5.38-17.19,6.34l-4.94-7.68c7.06-.96,13.25-3.12,17.95-5.86Zm1.63-15.7l-5.95,6.1c-2.54-2.78-8.59-8.06-12.05-10.51l5.52-5.91c3.31,2.26,9.6,7.25,12.48,10.32Z"/>
    </g>
  </g>
  <path d="m952.07,369.04c-.27,1.34-.62,2.99-.94,4.59,1.52-.09,2.81-.18,3.75-.18,4.73,0,8.07,2.1,8.07,8.52,0,5.26-.62,12.49-2.54,16.37-1.47,3.12-3.92,4.1-7.31,4.1-1.7,0-3.84-.31-5.35-.62l-.94-5.89c1.7.49,4.28.94,5.44.94,1.52,0,2.63-.45,3.34-1.92,1.21-2.54,1.83-7.94,1.83-12.35,0-3.57-1.56-4.06-4.33-4.06-.71,0-1.83.09-3.12.18-1.7,6.78-5,17.35-9.1,23.91l-5.8-2.32c4.33-5.84,7.4-14.85,9.05-20.96-1.61.18-3.03.36-3.84.45-1.29.22-3.61.54-5,.76l-.54-6.07c1.65.13,3.12.04,4.77,0,1.38-.04,3.48-.18,5.75-.4.62-3.35,1.03-6.6.94-9.41l6.65.67c-.27,1.16-.58,2.59-.8,3.7Zm18.91.71l-2.19.94c2.68,4.15,6.02,11.6,7.27,15.57l-5.67,2.59c-1.16-4.95-4.33-12.8-7.49-16.73l4.01-1.74c-.89-1.7-2.01-3.84-3.03-5.26l3.52-1.47c1.12,1.65,2.72,4.46,3.57,6.11Zm5.31-2.05l-3.52,1.52c-.94-1.83-2.36-4.46-3.61-6.16l3.57-1.43c1.16,1.69,2.81,4.5,3.57,6.07Z"/>
  <g>
    <path d="m1624.48,383.09l.87.87-9.9,9.9,9.9,9.9-.87.87-9.9-9.9-9.93,9.93-.87-.87,9.93-9.93-9.9-9.9.87-.87,9.9,9.9,9.9-9.9Zm-18.45,13.02c-1.23,0-2.25-1.02-2.25-2.25s1.02-2.25,2.25-2.25,2.25,1.02,2.25,2.25-1.02,2.25-2.25,2.25Zm6.3-10.8c0-1.23,1.02-2.25,2.25-2.25s2.25,1.02,2.25,2.25-1.02,2.25-2.25,2.25-2.25-1.02-2.25-2.25Zm4.5,17.1c0,1.23-1.02,2.25-2.25,2.25s-2.25-1.02-2.25-2.25,1.02-2.25,2.25-2.25,2.25,1.02,2.25,2.25Zm6.3-10.8c1.23,0,2.25,1.02,2.25,2.25s-1.02,2.25-2.25,2.25-2.25-1.02-2.25-2.25,1.02-2.25,2.25-2.25Z"/>
    <path d="m1630.9,403.64c6.45-6.42,10.08-10.26,10.08-13.77,0-2.43-1.32-4.17-4.05-4.17-1.8,0-3.36,1.14-4.56,2.55l-1.59-1.53c1.8-1.95,3.69-3.24,6.48-3.24,3.93,0,6.39,2.49,6.39,6.27,0,4.02-3.66,8.01-8.73,13.35,1.14-.09,2.46-.21,3.6-.21h6.21v2.37h-13.83v-1.62Z"/>
  </g>
  <path d="m597.94,256.53h-15.44v9.66h-5.55v-9.66h-20.32v-5.15h7.13v-11.88h13.18v-5.37h-9.66c-1.85,3.21-4.02,6.1-6.14,8.22-1.04-.9-3.34-2.71-4.65-3.48,4.06-3.43,7.54-9.21,9.48-15.04l5.46,1.4c-.41,1.26-.9,2.48-1.49,3.7h25.51v5.19h-12.96v5.37h11.92v5.01h-11.92v6.86h15.44v5.15Zm-21-5.15v-6.86h-7.81v6.86h7.81Z"/>
  <path d="m677.61,259.29c0,3.25-.77,4.79-2.84,5.69-2.17.95-5.33,1.04-9.98,1.04-.32-1.58-1.4-4.15-2.26-5.64,3.16.18,6.95.14,7.95.14,1.08,0,1.44-.36,1.44-1.31v-6.55h-19.32c-1.17,5.06-3.43,9.98-7.63,13.5-.81-1.13-2.98-3.12-4.15-3.88,6.82-5.82,7.45-14.45,7.45-21.31v-14.85h29.35v33.19Zm-5.69-11.83v-5.51h-18.1c-.04,1.72-.14,3.61-.32,5.51h18.42Zm-18.1-16.12v5.51h18.1v-5.51h-18.1Z"/>
  <path d="m616.46,240.5h2.8c3.13,0,5.27-1.65,5.27-4.83,0-2.53-1.92-4.39-4.72-4.39s-4.39,1.7-4.72,4.06h-6.81c.27-6.2,5.38-10.43,11.91-10.43,6.92,0,11.97,4.78,11.97,10.43,0,4.28-2.64,6.92-5.16,8.29,3.24,1.59,5.71,4.56,5.71,9.06,0,6.15-4.28,11.09-12.08,11.09s-12.57-4.5-12.85-10.65h6.75c.38,2.42,2.2,4.17,5.6,4.17,3.07,0,4.94-2.2,4.94-5,0-3.35-1.92-5.33-5.82-5.33h-2.8v-6.48Z"/>
  <g>
    <path d="m702.46,240.5h2.8c3.13,0,5.27-1.65,5.27-4.83,0-2.53-1.92-4.39-4.72-4.39s-4.39,1.7-4.72,4.06h-6.81c.27-6.2,5.38-10.43,11.91-10.43,6.92,0,11.97,4.78,11.97,10.43,0,4.28-2.64,6.92-5.16,8.29,3.24,1.59,5.71,4.56,5.71,9.06,0,6.15-4.28,11.09-12.08,11.09s-12.57-4.5-12.85-10.65h6.75c.38,2.42,2.2,4.17,5.6,4.17,3.07,0,4.94-2.2,4.94-5,0-3.35-1.92-5.33-5.82-5.33h-2.8v-6.48Z"/>
    <path d="m744.18,263.28h-7.69v-29.87l-5.43,3.57v-7.41l6.2-4.17h6.92v37.88Z"/>
  </g>
  <g>
    <path d="m451.67,263.28h-23.39v-4.94l12.68-14.93c2.36-2.75,3.51-5.05,3.51-7.52,0-3.08-2.25-4.61-4.72-4.61s-4.5,1.59-4.72,4.61h-6.81c0-6.53,5.38-10.98,11.91-10.98s11.97,4.72,11.97,10.98c0,5-3.29,8.89-5.71,11.75l-7.8,9.17h13.07v6.48Z"/>
    <path d="m484.06,251.7c0,8.51-5.93,12.08-12.74,12.08s-12.74-3.57-12.74-12.08v-14.71c0-8.89,5.93-12.08,12.74-12.08s12.74,3.18,12.74,12.02v14.77Zm-12.74-20.31c-3.46,0-5.11,2.2-5.11,6.26v13.4c0,4.06,1.65,6.26,5.11,6.26s5.05-2.2,5.05-6.26v-13.4c0-4.06-1.65-6.26-5.05-6.26Z"/>
    <path d="m513.7,263.28h-23.39v-4.94l12.68-14.93c2.36-2.75,3.51-5.05,3.51-7.52,0-3.08-2.25-4.61-4.72-4.61s-4.5,1.59-4.72,4.61h-6.81c0-6.53,5.38-10.98,11.91-10.98s11.97,4.72,11.97,10.98c0,5-3.29,8.89-5.71,11.75l-7.8,9.17h13.07v6.48Z"/>
    <path d="m540.38,225.4l-11.8,25.97h7.25v-9.66h7.69v9.66h3.46v6.53h-3.46v5.38h-7.69v-5.38h-16.8v-5.33l12.96-27.18h8.4Z"/>
  </g>
  <g>
    <path d="m791.5,226.69v38.83h-5.78v-2.84h-20.05v2.94h-5.55v-38.92h31.38Zm-25.83,5.42v9.71h20.05v-9.71h-20.05Zm20.05,25.15v-10.11h-20.05v10.11h20.05Z"/>
    <path d="m827.23,228.9c-.05.45-.05,1.13-.05,1.85,3.7-.18,7.45-.54,11.42-1.22l-.05,5.19c-2.98.36-7.09.77-11.47.99v4.65c4.56-.23,8.4-.59,12.05-1.08l-.04,5.33c-4.06.45-7.58.77-11.92.9.09,1.72.18,3.57.32,5.37,5.69,1.63,10.02,4.65,12.64,6.82l-3.25,5.06c-2.44-2.26-5.51-4.65-9.12-6.28.05.63.05,1.17.05,1.67,0,3.84-2.94,6.82-8.9,6.82-7.22,0-11.02-2.75-11.02-7.54s4.2-7.77,11.15-7.77c.95,0,1.9.04,2.8.14-.09-1.4-.14-2.84-.18-4.2h-2.35c-2.62,0-7.77-.23-10.75-.59l-.05-5.33c2.94.54,8.49.86,10.88.86h2.17c0-1.49,0-3.12.04-4.65h-1.67c-2.84,0-8.08-.41-11.06-.81l-.13-5.15c3.25.54,8.4.99,11.15.99h1.76v-2.12c0-.86-.09-2.26-.27-3.12h6.1c-.14.9-.23,2.03-.27,3.21Zm-9.12,30.97c2.39,0,3.97-.68,3.97-3.3,0-.5,0-1.13-.04-1.94-1.22-.18-2.44-.32-3.7-.32-3.21,0-4.97,1.26-4.97,2.8,0,1.71,1.62,2.75,4.74,2.75Z"/>
    <path d="m855.5,231.02c3.79-.32,11.24-.99,19.5-1.67,4.65-.41,9.57-.68,12.78-.81l.04,5.78c-2.44.04-6.32.04-8.71.63-5.46,1.45-9.57,7.27-9.57,12.64,0,7.45,6.95,10.11,14.63,10.52l-2.12,6.19c-9.48-.63-18.42-5.69-18.42-15.49,0-6.5,3.66-11.65,6.73-13.95-4.24.45-13.46,1.44-18.69,2.57l-.59-6.19c1.81-.04,3.57-.13,4.42-.23Zm29.48,13.86l-3.43,1.54c-1.13-2.48-2.08-4.24-3.52-6.28l3.34-1.4c1.13,1.63,2.75,4.38,3.61,6.14Zm5.24-2.21l-3.39,1.62c-1.22-2.44-2.26-4.11-3.7-6.1l3.3-1.54c1.13,1.58,2.84,4.24,3.79,6.01Z"/>
    <path d="m907.52,231.65c-.59,3.03-2.17,12.06-2.17,16.57,0,.86.04,2.03.18,2.94.68-1.54,1.4-3.12,2.03-4.61l2.8,2.21c-1.26,3.75-2.75,8.67-3.25,11.06-.14.68-.23,1.67-.23,2.12,0,.5.04,1.22.09,1.85l-5.24.36c-.9-3.12-1.76-8.62-1.76-14.76,0-6.77,1.4-14.4,1.9-17.88.13-1.26.41-2.98.45-4.42l6.32.54c-.36.95-.95,3.21-1.13,4.02Zm11.15,22.08c0,1.99,1.72,3.21,6.32,3.21,4.02,0,7.36-.36,11.33-1.17l.09,6.1c-2.93.54-6.55.86-11.65.86-7.77,0-11.51-2.75-11.51-7.41,0-1.76.27-3.57.77-5.87l5.19.5c-.36,1.49-.54,2.57-.54,3.79Zm16.34-23.12v5.82c-5.55.5-13.73.54-19.42,0v-5.78c5.55.77,14.54.54,19.42-.04Z"/>
    <path d="m983.16,228.4v36.75h-5.92v-3.57h-23.93v3.66h-5.64v-36.84h35.49Zm-5.92,27.63v-22.17h-23.93v22.17h23.93Z"/>
    <path d="m1019.15,260.46h14.45v4.61h-33.82v-4.61h14.18v-4.47h-11.33v-4.65h11.33v-5.24l-2.57,3.07c-.72-1.08-2.08-2.53-3.43-3.93-1.08,1.9-2.44,3.52-4.06,4.83-.81-.86-2.8-2.44-3.88-3.16-.41,6.41-1.54,13.73-4.33,18.87-.95-.9-3.3-2.44-4.56-2.98,3.52-6.46,3.79-15.89,3.79-22.49v-12.24h16.48v-4.06h5.6v4.06h16.3v4.92h-33.1v7.36c0,1.94-.04,4.15-.18,6.55,3.7-2.48,5.42-6.59,5.96-11.83l4.88.36c-.23,1.94-.59,3.79-1.08,5.42,1.54,1.4,3.16,2.93,4.2,4.15v-10.52h5.19v11.02c2.75-2.44,4.29-6.05,4.88-10.43l4.79.54c-.27,1.85-.68,3.61-1.22,5.19,2.3,1.85,4.83,3.97,6.23,5.42l-3.12,3.7c-1.17-1.31-3.12-3.12-5.1-4.83-1.08,1.81-2.44,3.39-4.06,4.65-.5-.59-1.45-1.44-2.39-2.21v3.79h12.01v4.65h-12.01v4.47Z"/>
    <path d="m1080.52,232.42c-1.81,1.58-3.88,3.25-5.83,4.61,2.17,1.58,4.56,2.93,7.09,3.93-1.22.99-2.75,3.07-3.57,4.47-3.61-1.63-6.86-3.97-9.66-6.82v1.85h-16.62v-1.54c-3.07,2.98-6.59,5.37-10.2,7.13-.72-1.17-2.12-3.03-3.21-3.93,2.62-1.08,5.24-2.71,7.63-4.65-1.26-1.26-3.21-2.75-4.83-3.79l2.93-2.93c1.72.99,3.84,2.39,5.1,3.66,1.31-1.4,2.44-2.94,3.39-4.47h-9.26v-4.33h11.83l.9-.23,3.48,1.81c-1.22,3.3-2.98,6.23-5.1,8.8h11.6c-2.48-3.07-4.56-6.59-6.19-10.43l4.61-1.45c.68,1.58,1.45,3.12,2.39,4.56,1.67-1.35,3.34-2.93,4.51-4.29l4.06,2.89c-1.94,1.62-4.2,3.34-6.19,4.7.68.81,1.4,1.58,2.12,2.3,1.85-1.45,3.79-3.21,5.06-4.65l3.93,2.8Zm-9.53,23.48c-.95,1.85-1.85,3.61-2.62,4.92h11.33v4.42h-38.83v-4.42h10.93c-.45-1.49-1.22-3.3-2.08-4.7l2.35-.59h-4.92v-12.51h26.14v12.51h-4.06l1.76.36Zm-18.65-4.61h15.4v-4.02h-15.4v4.02Zm2.71,4.24c.99,1.54,1.81,3.43,2.17,4.79l-1.72.5h8.89l-1.22-.27c.77-1.35,1.72-3.39,2.35-5.01h-10.48Z"/>
    <path d="m1103.82,258.34c2.26-1.31,5.24-3.21,8.17-5.15l1.62,4.06c-2.66,2.03-5.55,4.11-8.13,5.87l-1.49-2.57.14,1.31c-5.6,1.17-11.56,2.44-16.12,3.3l-.99-4.88c1.9-.27,4.15-.63,6.64-1.04v-11.79h-6.14v-4.51h6.14v-3.3h-3.97v-2.03c-.27.27-.59.54-.86.81-.68-1.04-2.17-2.8-3.21-3.48,3.79-3.21,6.41-7.45,7.81-10.93h4.42c2.66,2.21,5.96,5.42,7.54,7.77l-2.84,3.39h.41v4.47h-4.65v3.3h5.6v4.51h-5.6v10.93l5.42-.95.09.9Zm-12.42-9.17c.72,2.48,1.35,5.69,1.58,7.77l-3.61.99c-.09-2.17-.72-5.42-1.4-7.9l3.43-.86Zm10.11-14c-1.26-1.85-3.25-4.38-5.15-6.19-1.13,1.94-2.57,4.06-4.38,6.19h9.53Zm-2.71,20.95c.59-1.99,1.31-5.19,1.58-7.31l3.88.95c-.81,2.53-1.54,5.42-2.21,7.27l-3.25-.9Zm22.35-5.1c1.9,3.34,4.61,6.5,8.26,8.4-1.08.95-2.66,3.03-3.43,4.42-3.21-2.08-5.64-5.33-7.41-8.71v5.92c0,2.26-.32,3.52-1.72,4.24-1.4.77-3.16.86-5.69.86-.14-1.35-.68-3.25-1.26-4.65,1.26.09,2.62.04,3.07.04.5,0,.63-.13.63-.59v-17.7h-9.3v-4.56h15.71v-2.3h-12.55v-4.06h12.55v-2.44h-13.55v-4.42h18.51v13.23h3.34v4.56h-9.75v1.49c.45,1.54,1.04,3.21,1.85,4.83,1.4-1.54,3.07-3.75,4.06-5.42l4.2,2.57c-1.81,2.08-3.84,4.2-5.42,5.69l-2.12-1.4Zm-13.09-6.19c1.81,1.58,3.79,3.97,4.65,5.69l-3.75,2.48c-.77-1.67-2.71-4.15-4.42-5.92l3.52-2.26Z"/>
    <path d="m1169.16,260.6c1.49,0,1.71-.72,1.9-5.42,1.08.81,3.43,1.67,4.83,2.03-.59,6.55-1.94,8.26-6.23,8.26h-5.78c-5.24,0-6.5-1.54-6.5-6.41v-9.17h-5.87c-.9,7.77-3.39,13.36-14.72,16.34-.54-1.4-1.94-3.61-3.12-4.79,9.66-2.08,11.29-5.96,11.96-11.56h-10.7v-5.06h40.23v5.06h-12.37v9.08c0,1.45.27,1.63,1.9,1.63h4.47Zm-27.95-21.58h-5.46v-10.66h16.3v-4.33h5.69v4.33h16.57v10.66h-5.73v-5.64h-27.36v5.64Zm2.08,2.57v-4.88h23.25v4.88h-23.25Z"/>
    <path d="m1220.82,229.89c-3.97,4.88-9.8,10.52-15.26,13.95v16.03c0,3.12-.77,4.56-2.98,5.37-2.26.81-5.46.9-9.8.9-.32-1.62-1.31-4.02-2.12-5.51,3.16.18,6.86.18,7.9.14.99,0,1.31-.23,1.31-.99v-20.45h3.03c2.75-1.94,5.55-4.47,7.81-6.91h-26.19v-5.28h30.79l1.31-.36,4.2,3.12Z"/>
    <path d="m1243.45,232.42c-.18,4.88-.54,14.99-.54,20.59,0,4.56,2.71,6.05,6.23,6.05,7.45,0,12.19-4.29,15.44-9.21l4.11,4.97c-2.89,4.33-9.3,10.38-19.6,10.38-7.4,0-12.19-3.25-12.19-10.97,0-6.05.45-17.93.45-21.81,0-2.12-.18-4.29-.59-6.09l7.27.09c-.27,1.9-.5,4.2-.59,6Z"/>
    <path d="m1295.16,230.44c-.09.5-.23,1.08-.36,1.72,2.53-.36,5.06-.86,7.54-1.45v5.64c-2.71.63-5.78,1.13-8.8,1.49-.41,1.94-.86,3.93-1.35,5.78-1.63,6.32-4.65,15.53-7.18,20.91l-6.28-2.12c2.71-4.52,6.14-14,7.81-20.32.32-1.22.68-2.48.95-3.79-1.04.04-2.03.09-2.98.09-2.17,0-3.88-.09-5.46-.18l-.14-5.64c2.3.27,3.84.36,5.69.36,1.31,0,2.66-.04,4.06-.14.18-.99.32-1.85.41-2.57.18-1.67.27-3.52.13-4.56l6.91.54c-.36,1.22-.77,3.25-.95,4.24Zm5.42,24.52c0,1.99,1.35,3.48,6.19,3.48,3.03,0,6.14-.36,9.39-.95l-.23,5.78c-2.53.32-5.6.63-9.21.63-7.58,0-11.69-2.62-11.69-7.18,0-2.08.45-4.24.81-6.05l5.37.54c-.36,1.26-.63,2.75-.63,3.75Zm6.86-15.58c2.57,0,5.28.14,7.95.41l-.14,5.42c-2.26-.27-5.01-.54-7.77-.54-3.07,0-5.87.14-8.71.45v-5.28c2.53-.23,5.78-.45,8.67-.45Z"/>
    <path d="m1343.21,236.3c-.13,1.94-.27,3.93-.5,5.87h17.43s-.04,1.62-.18,2.35c-.81,12.28-1.76,17.34-3.57,19.32-1.35,1.45-2.75,1.9-4.88,2.08-1.67.18-4.7.14-7.72,0-.09-1.54-.9-3.75-1.9-5.28,3.12.32,6.28.32,7.58.32.99,0,1.62-.09,2.17-.59,1.17-.99,1.99-4.92,2.62-13.14h-12.42c-1.71,7.63-5.46,14.67-14.49,19.23-.77-1.49-2.39-3.39-3.79-4.56,12.19-5.64,13.23-15.94,13.73-25.6h-12.91v-5.15h17.29v-7.36h5.55v7.36h17.83v5.15h-21.85Z"/>
    <path d="m1388.05,227.82c-1.26,3.93-2.8,8.9-4.2,12.42,2.94,3.48,3.48,6.59,3.48,9.21.05,2.98-.63,4.88-2.08,5.87-.72.59-1.67.86-2.66,1.04-.9.13-1.99.09-3.12.09-.05-1.35-.45-3.43-1.22-4.79.86.04,1.54.04,2.12.04.5,0,.9-.13,1.31-.41.54-.41.81-1.26.81-2.53,0-2.12-.68-4.92-3.34-7.95.95-2.89,1.99-6.95,2.8-10.11h-3.97v35.44h-5.01v-40.23h10.66l.77-.23,3.66,2.12Zm24.38,22.44c-1.94,1.85-4.15,3.79-6.1,5.28,1.81,2.57,4.15,4.61,7.09,5.92-1.17,1.08-2.75,3.12-3.48,4.56-6.64-3.52-10.16-10.25-12.19-19.05h-3.25v11.65c2.12-.36,4.33-.77,6.5-1.17l.41,4.7c-5.19,1.22-10.75,2.35-14.99,3.3l-1.76-5.19c1.35-.18,2.93-.45,4.7-.72v-33.55h20.95v21h-7.86c.45,1.67,1.04,3.3,1.72,4.79,1.49-1.45,3.02-3.07,4.06-4.47l4.2,2.98Zm-17.92-19.64v3.57h10.47v-3.57h-10.47Zm0,11.74h10.47v-3.79h-10.47v3.79Z"/>
    <path d="m1442.28,260.05c1.63.18,3.34.27,5.15.27,2.44,0,9.89,0,12.91-.14-.77,1.31-1.62,3.88-1.9,5.46h-11.29c-8.31,0-14.49-1.35-18.65-7.77-1.44,3.43-3.43,6.32-6,8.53-.9-.95-3.16-2.84-4.42-3.66,4.88-3.61,7.09-9.84,7.9-17.56l5.6.54c-.27,2.03-.59,3.93-.99,5.73,1.35,3.61,3.48,5.78,6.14,7.09v-15.94h-9.62v-5.1h24.83v5.1h-9.66v5.64h12.42v5.06h-12.42v6.73Zm-16.75-20.23h-5.28v-11.29h16.39v-4.51h5.69v4.51h16.52v11.29h-5.55v-6.19h-27.77v6.19Z"/>
    <path d="m1471.91,231.02c3.79-.32,11.24-.99,19.5-1.67,4.65-.41,9.57-.68,12.78-.81l.04,5.78c-2.44.04-6.32.04-8.71.63-5.46,1.45-9.57,7.27-9.57,12.64,0,7.45,6.95,10.11,14.63,10.52l-2.12,6.19c-9.48-.63-18.42-5.69-18.42-15.49,0-6.5,3.66-11.65,6.73-13.95-4.24.45-13.46,1.44-18.69,2.57l-.59-6.19c1.81-.04,3.57-.13,4.42-.23Zm29.48,13.86l-3.43,1.54c-1.13-2.48-2.08-4.24-3.52-6.28l3.34-1.4c1.13,1.63,2.75,4.38,3.61,6.14Zm5.24-2.21l-3.39,1.62c-1.22-2.44-2.26-4.11-3.7-6.1l3.3-1.54c1.13,1.58,2.84,4.24,3.79,6.01Z"/>
  </g>
  <g>
    <path d="m1547.48,241.09l.87.87-9.9,9.9,9.9,9.9-.87.87-9.9-9.9-9.93,9.93-.87-.87,9.93-9.93-9.9-9.9.87-.87,9.9,9.9,9.9-9.9Zm-18.45,13.02c-1.23,0-2.25-1.02-2.25-2.25s1.02-2.25,2.25-2.25,2.25,1.02,2.25,2.25-1.02,2.25-2.25,2.25Zm6.3-10.8c0-1.23,1.02-2.25,2.25-2.25s2.25,1.02,2.25,2.25-1.02,2.25-2.25,2.25-2.25-1.02-2.25-2.25Zm4.5,17.1c0,1.23-1.02,2.25-2.25,2.25s-2.25-1.02-2.25-2.25,1.02-2.25,2.25-2.25,2.25,1.02,2.25,2.25Zm6.3-10.8c1.23,0,2.25,1.02,2.25,2.25s-1.02,2.25-2.25,2.25-2.25-1.02-2.25-2.25,1.02-2.25,2.25-2.25Z"/>
    <path d="m1555.22,260.98h4.89v-15.78h-3.9v-1.77c1.95-.33,3.36-.84,4.56-1.56h2.1v19.11h4.41v2.28h-12.06v-2.28Z"/>
  </g>
  <rect class="cls-7" x="427.56" y="392.58" width="487" height="17.15"/>
  <g>
    <path d="m656.66,398.75h-15.6v-48.97l-9.31,5.73v-14.47l11.19-7.14h13.72v64.86Z"/>
    <path d="m692.85,402.42l-14.66,12.5v-32.71h14.66v20.21Z"/>
    <path d="m723.59,359.65c2.16-.85,3.85-1.13,6.39-1.13,9.78,0,18.14,8.18,18.14,19.55,0,15.79-10.72,21.62-23.22,21.62s-23.4-5.83-23.4-21.62c0-5.36,1.88-11.66,6.67-20.3l12.97-23.88h16.54l-14.1,25.75Zm1.32,27.07c5.36,0,7.61-3.29,7.61-7.8s-2.26-7.8-7.61-7.8-7.8,3.29-7.8,7.8,2.35,7.8,7.8,7.8Z"/>
    <path d="m772.09,371.4h-14.01v-37.5h38.82v13.72h-23.5v8.27c1.69-1.32,4.32-3.01,9.21-3.01,8.93,0,16.64,6.96,16.64,22.93s-7.05,23.88-20.96,23.88c-11.28,0-21.15-5.73-22.37-18.33h15.42c.85,3.38,2.73,5.36,6.49,5.36s5.83-3.48,5.83-9.96c0-6.86-1.79-10.15-5.83-10.15-2.91,0-4.51,1.69-5.73,4.79Z"/>
    <path d="m830.09,399.69c-12.59,0-23.31-5.83-23.31-21.62v-23.5c0-16.73,10.72-21.62,23.31-21.62s23.31,4.89,23.31,21.52v23.59c0,15.79-10.72,21.62-23.31,21.62Zm-7.8-23.41c0,6.96,1.88,10.43,7.8,10.43s7.71-3.48,7.71-10.43v-19.93c0-6.96-1.88-10.43-7.71-10.43s-7.8,3.48-7.8,10.43v19.93Z"/>
  </g>
  <g>
    <path d="m445.94,388.36v1.97h15.31v5.66h-36.96v-5.66h14.55v-1.97h-7.78v-2.88c-2.26,1.87-4.75,3.46-7.39,4.56-.96-1.58-2.98-4.03-4.42-5.33,3.17-1.1,6.29-2.83,8.78-4.9h-8.35v-5.67h8.98v-13.78h-6.24v-5.57h6.24v-3.07h7.01v3.07h13.78v-3.02h7.15v3.02h6.24v5.57h-6.24v13.78h8.69v5.67h-7.82c2.45,1.87,5.38,3.46,8.3,4.51-1.49,1.25-3.55,3.74-4.56,5.38-2.5-1.15-4.99-2.78-7.2-4.75v3.41h-8.06Zm-7.1-5.42v-2.45h7.1v2.45h5.95c-.96-1.01-1.87-2.06-2.69-3.12h-12.77c-.82,1.1-1.68,2.11-2.64,3.12h5.04Zm-3.17-22.56v1.44h13.78v-1.44h-13.78Zm0,7.63h13.78v-1.44h-13.78v1.44Zm0,6.14h13.78v-1.39h-13.78v1.39Z"/>
    <path d="m500.71,367.72c3.65,6.62,9.36,12.77,15.89,16.32-1.73,1.44-4.22,4.37-5.42,6.34-2.64-1.73-5.09-3.79-7.34-6.19v5.52h-7.25v7.63h-7.44v-7.63h-7.58v-4.94c-2.11,2.21-4.46,4.18-6.96,5.81-1.2-1.73-3.5-4.42-5.09-5.81,6.48-3.65,12.05-10.08,15.6-17.04h-13.59v-7.1h17.62v-8.88h7.44v8.88h17.76v7.1h-13.63Zm-11.57,14.88v-8.11c-1.68,2.93-3.55,5.67-5.62,8.11h5.62Zm13.25,0c-2.16-2.5-4.08-5.28-5.81-8.26v8.26h5.81Z"/>
    <path d="m561,384.52v12.77h-6.53v-11.57l-12.58,2.26-.96-6-3.94,5.09c-.62-1.39-1.63-3.22-2.69-5.04v15.17h-6.43v-15.5c-1.39,4.13-3.07,8.06-4.9,10.85-.58-2.16-2.06-5.33-3.07-7.3,2.21-2.69,4.32-7.2,5.71-11.09h-4.75v-6.48h7.01v-15.65h6.43v13.44c.86-3.17,1.82-7.87,2.26-11.23l5.81,1.2c-1.25,4.03-2.64,8.64-3.79,11.57l-4.27-1.15v1.82h6.67v6.48h-6.67v.19c1.44,1.2,5.42,5.57,6.67,7.06l13.49-2.4v-27.31h6.53v26.16l4.51-.82,1.01,6.48-5.52,1.01Zm-38.5-17.23c-.05-3.12-.86-7.92-1.92-11.52l4.8-1.25c1.2,3.6,2.06,8.26,2.26,11.38l-5.14,1.39Zm21.79-1.58c2.74,1.49,6.38,3.84,8.11,5.62l-3.5,5.57c-1.58-1.82-5.14-4.46-7.87-6.19l3.26-4.99Zm6.19-.82c-1.44-1.87-4.8-4.51-7.44-6.29l3.36-4.71c2.64,1.58,6.1,3.98,7.68,5.76l-3.6,5.23Z"/>
    <path d="m609.05,383.51c-1.68,2.35-3.36,4.8-4.8,6.62h9.79v5.95h-40.66v-5.95h8.59c-.82-2.06-2.21-4.75-3.6-6.82l3.55-1.49h-6v-5.95h13.73v-3.84h-8.26v-2.11c-2.16,1.54-4.42,2.93-6.72,4.18-.86-1.63-2.88-4.22-4.37-5.66,8.21-3.94,15.79-11.19,19.25-16.9h7.3c5.23,7.49,12.67,13.34,20.35,16.32-1.73,1.78-3.31,4.13-4.61,6.29-2.3-1.25-4.66-2.74-6.96-4.37v2.26h-8.54v3.84h13.87v5.95h-6.58l4.66,1.68Zm-24.43-1.68c1.54,2.21,3.12,4.85,3.74,6.77l-3.5,1.54h4.8v-8.3h-5.04Zm16.18-15.84c-2.93-2.54-5.52-5.18-7.3-7.63-1.78,2.5-4.22,5.14-7.1,7.63h14.4Zm-3.7,15.84v8.3h3.55l-2.54-1.06c1.34-1.97,2.98-4.85,3.98-7.25h-4.99Z"/>
  </g>
  <path d="m911.01,389.84c0,3.3-.67,5.04-2.72,6.11s-4.82,1.2-8.79,1.2c-.27-1.83-1.38-4.82-2.32-6.47,2.32.18,5.26.13,6.11.13s1.16-.27,1.16-1.07v-9.19h-25.33v16.55h-6.51v-39.61h38.4v32.34Zm-31.89-15.7h9.1v-10.21h-9.1v10.21Zm25.33,0v-10.21h-9.77v10.21h9.77Z"/>
  <g>
    <path d="m1114.7,359.28c-.06,1.74-.12,3.47-.24,5.08h9.76c1.52,0,3.35-.19,5.06-.5l6.28,3.1c-.18.99-.43,2.79-.43,3.41-.24,7.13-1.04,24.05-3.6,30.56-1.34,3.41-3.9,5.33-8.54,5.33-3.78,0-7.44-.31-10.3-.56l-1.16-10.04c2.87.56,5.98.93,8.29.93,2.07,0,2.74-.74,3.35-2.29,1.46-3.41,2.32-14.2,2.32-20.96h-11.89c-2.2,15.69-7.74,25.54-19.02,33.79l-8.6-7.07c2.87-1.61,6.22-3.91,9.02-6.88,5.31-5.58,7.87-12.03,8.96-19.84h-6.89c-1.89,0-5.79.06-8.6.31v-9.79c2.8.31,6.28.5,8.6.5h7.62c.06-1.55.06-3.22.06-4.9,0-1.36-.24-4.53-.49-6.01h10.85c-.18,1.49-.37,4.34-.43,5.83Z"/>
    <path d="m1196.28,398.71c0,5.08-1.16,7.62-4.27,9.11-3.23,1.55-7.68,1.74-13.9,1.74-.49-2.67-2.26-7.07-3.66-9.49,3.9.31,9.02.25,10.49.25s1.89-.5,1.89-1.74v-7.13h-24.33c-1.65,6.88-4.69,13.52-10.24,18.17-1.34-1.86-4.94-5.27-6.89-6.51,8.96-7.56,9.7-19.16,9.7-28.39v-21.27h41.22v45.26Zm-9.45-16v-5.95h-22.62c-.06,1.86-.18,3.91-.37,5.95h22.99Zm-22.62-20.46v5.95h22.62v-5.95h-22.62Z"/>
    <path d="m1249.33,351.15c3.78,7.63,11.34,16.43,18.05,21.95-2.38,1.92-5.85,5.64-7.56,8.18-.85-.87-1.77-1.8-2.68-2.79-.55,17.42-1.22,24.55-3.23,27.15-1.77,2.36-3.6,3.04-6.1,3.47-2.13.37-5.55.37-9.02.31-.12-2.67-1.34-6.57-2.93-9.11,3.05.25,5.92.31,7.44.31,1.04,0,1.71-.19,2.44-.93,1.1-1.24,1.65-6.39,2.07-17.86h-10c-1.46,11.72-5.49,22.07-21.58,28.27-1.1-2.54-3.66-6.39-5.79-8.37,13.35-4.46,16.52-11.72,17.68-19.9h-9.15v-3.97c-1.4,1.43-2.8,2.73-4.27,3.91-1.65-1.98-5.49-5.64-7.62-7.31,7.56-5.08,14.33-13.83,17.93-23.19l9.63,2.85c-2.87,6.82-6.89,13.45-11.4,18.97h29.33c-4.45-5.64-8.78-12.09-12.01-18.41l8.78-3.53Z"/>
  </g>
  <g>
    <g>
      <path d="m1308.44,344.12c-1.38,1.3-2.66,2.5-4.03,3.5-2.66-2.7-8.36-7.3-11.7-9.5,8.26-5.2,16.03-14,20.16-22.9l14.06,4.2c-.98,2-1.97,3.9-3.15,5.8h57.53v12.7h-8.75v10.4h12.29v12.9h-12.29v10.3h10.82v12.9h-86.35v-12.9h11.41v-10.3h-13.08v-12.9h13.08v-4.2Zm-14.26,60.6c4.13-4.2,8.36-12.1,10.52-19.4l13.96,3.4c-2.07,7.8-6.1,16.1-10.62,21.6l-13.87-5.6Zm26.85-56.4h4.82v-10.4h-4.82v10.4Zm0,23.2h4.82v-10.3h-4.82v10.3Zm14.95,16.2c1.28,6.2,2.46,14.3,2.56,19.3l-14.06,2.1c0-5-.69-13.4-1.77-19.8l13.28-1.6Zm6.59-39.4v-10.4h-4.92v10.4h4.92Zm-4.92,12.9v10.3h4.92v-10.3h-4.92Zm17.8,26.2c2.36,6,4.72,13.9,5.51,19l-14.36,2.8c-.49-5-2.56-13.2-4.62-19.5l13.47-2.3Zm4.03-49.5h-5.11v10.4h5.11v-10.4Zm0,23.3h-5.11v10.3h5.11v-10.3Zm15.54,23.7c4.23,6.2,9.64,14.7,12.1,20.4l-14.75,4.9c-1.97-5.5-6.98-14.4-11.11-21l13.77-4.3Z"/>
      <path d="m1487.42,383.53v26.6h-13.38v-24.1l-25.77,4.7-1.97-12.5-8.06,10.6c-1.28-2.9-3.34-6.7-5.51-10.5v31.6h-13.18v-32.3c-2.85,8.6-6.29,16.8-10.03,22.6-1.18-4.5-4.23-11.1-6.29-15.2,4.52-5.6,8.85-15,11.7-23.1h-9.74v-13.5h14.36v-32.6h13.18v28c1.77-6.6,3.74-16.4,4.62-23.4l11.9,2.5c-2.56,8.4-5.41,18-7.77,24.1l-8.75-2.4v3.8h13.67v13.5h-13.67v.4c2.95,2.5,11.11,11.6,13.67,14.7l27.63-5v-56.9h13.38v54.5l9.24-1.7,2.07,13.5-11.31,2.1Zm-78.87-35.9c-.1-6.5-1.77-16.5-3.93-24l9.83-2.6c2.46,7.5,4.23,17.2,4.62,23.7l-10.52,2.9Zm44.65-3.3c5.61,3.1,13.08,8,16.62,11.7l-7.18,11.6c-3.25-3.8-10.52-9.3-16.13-12.9l6.69-10.4Zm12.69-1.7c-2.95-3.9-9.83-9.4-15.24-13.1l6.88-9.8c5.41,3.3,12.49,8.3,15.74,12l-7.38,10.9Z"/>
      <path d="m1552.23,391.73c0-5.9,4.23-10,10.03-10s10.03,4.1,10.03,10-4.23,10.2-10.03,10.2-10.03-4.3-10.03-10.2Zm.98-49.2l-.59-16.6h19.27l-.59,16.6-2.95,31.6h-12.19l-2.95-31.6Z"/>
    </g>
    <g>
      <path class="cls-14" d="m1308.44,344.12c-1.38,1.3-2.66,2.5-4.03,3.5-2.66-2.7-8.36-7.3-11.7-9.5,8.26-5.2,16.03-14,20.16-22.9l14.06,4.2c-.98,2-1.97,3.9-3.15,5.8h57.53v12.7h-8.75v10.4h12.29v12.9h-12.29v10.3h10.82v12.9h-86.35v-12.9h11.41v-10.3h-13.08v-12.9h13.08v-4.2Zm-14.26,60.6c4.13-4.2,8.36-12.1,10.52-19.4l13.96,3.4c-2.07,7.8-6.1,16.1-10.62,21.6l-13.87-5.6Zm26.85-56.4h4.82v-10.4h-4.82v10.4Zm0,23.2h4.82v-10.3h-4.82v10.3Zm14.95,16.2c1.28,6.2,2.46,14.3,2.56,19.3l-14.06,2.1c0-5-.69-13.4-1.77-19.8l13.28-1.6Zm6.59-39.4v-10.4h-4.92v10.4h4.92Zm-4.92,12.9v10.3h4.92v-10.3h-4.92Zm17.8,26.2c2.36,6,4.72,13.9,5.51,19l-14.36,2.8c-.49-5-2.56-13.2-4.62-19.5l13.47-2.3Zm4.03-49.5h-5.11v10.4h5.11v-10.4Zm0,23.3h-5.11v10.3h5.11v-10.3Zm15.54,23.7c4.23,6.2,9.64,14.7,12.1,20.4l-14.75,4.9c-1.97-5.5-6.98-14.4-11.11-21l13.77-4.3Z"/>
      <path class="cls-14" d="m1487.42,383.53v26.6h-13.38v-24.1l-25.77,4.7-1.97-12.5-8.06,10.6c-1.28-2.9-3.34-6.7-5.51-10.5v31.6h-13.18v-32.3c-2.85,8.6-6.29,16.8-10.03,22.6-1.18-4.5-4.23-11.1-6.29-15.2,4.52-5.6,8.85-15,11.7-23.1h-9.74v-13.5h14.36v-32.6h13.18v28c1.77-6.6,3.74-16.4,4.62-23.4l11.9,2.5c-2.56,8.4-5.41,18-7.77,24.1l-8.75-2.4v3.8h13.67v13.5h-13.67v.4c2.95,2.5,11.11,11.6,13.67,14.7l27.63-5v-56.9h13.38v54.5l9.24-1.7,2.07,13.5-11.31,2.1Zm-78.87-35.9c-.1-6.5-1.77-16.5-3.93-24l9.83-2.6c2.46,7.5,4.23,17.2,4.62,23.7l-10.52,2.9Zm44.65-3.3c5.61,3.1,13.08,8,16.62,11.7l-7.18,11.6c-3.25-3.8-10.52-9.3-16.13-12.9l6.69-10.4Zm12.69-1.7c-2.95-3.9-9.83-9.4-15.24-13.1l6.88-9.8c5.41,3.3,12.49,8.3,15.74,12l-7.38,10.9Z"/>
      <path class="cls-14" d="m1552.23,391.73c0-5.9,4.23-10,10.03-10s10.03,4.1,10.03,10-4.23,10.2-10.03,10.2-10.03-4.3-10.03-10.2Zm.98-49.2l-.59-16.6h19.27l-.59,16.6-2.95,31.6h-12.19l-2.95-31.6Z"/>
    </g>
    <g>
      <path class="cls-4" d="m1308.44,344.12c-1.38,1.3-2.66,2.5-4.03,3.5-2.66-2.7-8.36-7.3-11.7-9.5,8.26-5.2,16.03-14,20.16-22.9l14.06,4.2c-.98,2-1.97,3.9-3.15,5.8h57.53v12.7h-8.75v10.4h12.29v12.9h-12.29v10.3h10.82v12.9h-86.35v-12.9h11.41v-10.3h-13.08v-12.9h13.08v-4.2Zm-14.26,60.6c4.13-4.2,8.36-12.1,10.52-19.4l13.96,3.4c-2.07,7.8-6.1,16.1-10.62,21.6l-13.87-5.6Zm26.85-56.4h4.82v-10.4h-4.82v10.4Zm0,23.2h4.82v-10.3h-4.82v10.3Zm14.95,16.2c1.28,6.2,2.46,14.3,2.56,19.3l-14.06,2.1c0-5-.69-13.4-1.77-19.8l13.28-1.6Zm6.59-39.4v-10.4h-4.92v10.4h4.92Zm-4.92,12.9v10.3h4.92v-10.3h-4.92Zm17.8,26.2c2.36,6,4.72,13.9,5.51,19l-14.36,2.8c-.49-5-2.56-13.2-4.62-19.5l13.47-2.3Zm4.03-49.5h-5.11v10.4h5.11v-10.4Zm0,23.3h-5.11v10.3h5.11v-10.3Zm15.54,23.7c4.23,6.2,9.64,14.7,12.1,20.4l-14.75,4.9c-1.97-5.5-6.98-14.4-11.11-21l13.77-4.3Z"/>
      <path class="cls-4" d="m1487.42,383.53v26.6h-13.38v-24.1l-25.77,4.7-1.97-12.5-8.06,10.6c-1.28-2.9-3.34-6.7-5.51-10.5v31.6h-13.18v-32.3c-2.85,8.6-6.29,16.8-10.03,22.6-1.18-4.5-4.23-11.1-6.29-15.2,4.52-5.6,8.85-15,11.7-23.1h-9.74v-13.5h14.36v-32.6h13.18v28c1.77-6.6,3.74-16.4,4.62-23.4l11.9,2.5c-2.56,8.4-5.41,18-7.77,24.1l-8.75-2.4v3.8h13.67v13.5h-13.67v.4c2.95,2.5,11.11,11.6,13.67,14.7l27.63-5v-56.9h13.38v54.5l9.24-1.7,2.07,13.5-11.31,2.1Zm-78.87-35.9c-.1-6.5-1.77-16.5-3.93-24l9.83-2.6c2.46,7.5,4.23,17.2,4.62,23.7l-10.52,2.9Zm44.65-3.3c5.61,3.1,13.08,8,16.62,11.7l-7.18,11.6c-3.25-3.8-10.52-9.3-16.13-12.9l6.69-10.4Zm12.69-1.7c-2.95-3.9-9.83-9.4-15.24-13.1l6.88-9.8c5.41,3.3,12.49,8.3,15.74,12l-7.38,10.9Z"/>
      <path class="cls-4" d="m1552.23,391.73c0-5.9,4.23-10,10.03-10s10.03,4.1,10.03,10-4.23,10.2-10.03,10.2-10.03-4.3-10.03-10.2Zm.98-49.2l-.59-16.6h19.27l-.59,16.6-2.95,31.6h-12.19l-2.95-31.6Z"/>
    </g>
  </g>
  <g>
    <path d="m1021.99,350.9h6.59c5.12,0,9.76-2.68,9.76-8.66,0-5.25-3.78-8.3-8.91-8.3s-7.93,3.05-8.91,7.44h-17.45c.85-13.91,12.2-24.03,27.57-24.03s27.81,11.35,27.81,23.67c0,9.88-6.34,15.37-10.98,18.05,6.83,3.66,12.2,10.13,12.2,19.88,0,13.91-9.52,25.01-28.06,25.01s-29.16-10.37-29.77-24.52h17.45c.73,4.64,4.39,7.69,10.74,7.69s9.52-4.27,9.52-9.64c0-6.22-3.54-9.76-10.98-9.76h-6.59v-16.84Z"/>
    <path class="cls-13" d="m1021.99,350.9h6.59c5.12,0,9.76-2.68,9.76-8.66,0-5.25-3.78-8.3-8.91-8.3s-7.93,3.05-8.91,7.44h-17.45c.85-13.91,12.2-24.03,27.57-24.03s27.81,11.35,27.81,23.67c0,9.88-6.34,15.37-10.98,18.05,6.83,3.66,12.2,10.13,12.2,19.88,0,13.91-9.52,25.01-28.06,25.01s-29.16-10.37-29.77-24.52h17.45c.73,4.64,4.39,7.69,10.74,7.69s9.52-4.27,9.52-9.64c0-6.22-3.54-9.76-10.98-9.76h-6.59v-16.84Z"/>
    <path class="cls-4" d="m1021.99,350.9h6.59c5.12,0,9.76-2.68,9.76-8.66,0-5.25-3.78-8.3-8.91-8.3s-7.93,3.05-8.91,7.44h-17.45c.85-13.91,12.2-24.03,27.57-24.03s27.81,11.35,27.81,23.67c0,9.88-6.34,15.37-10.98,18.05,6.83,3.66,12.2,10.13,12.2,19.88,0,13.91-9.52,25.01-28.06,25.01s-29.16-10.37-29.77-24.52h17.45c.73,4.64,4.39,7.69,10.74,7.69s9.52-4.27,9.52-9.64c0-6.22-3.54-9.76-10.98-9.76h-6.59v-16.84Z"/>
  </g>
  <g>
    <g>
      <g>
        <path class="cls-2" d="m189.13,493.88s17.51,6.86,22.46,13.57c4.59,6.21,3.58,16.93,1.44,20.52-6.42,10.82-21.82,4.74-23.2,2.88l-39.93-54.06c-1.75-2.37.54-5.48,4.49-8.18,1.77-1.21,5.8-3.07,6.83-1.68l27.91,26.95Z"/>
        <path class="cls-12" d="m189.13,493.88s17.51,6.86,22.46,13.57c4.59,6.21,3.58,16.93,1.44,20.52-6.42,10.82-21.82,4.74-23.2,2.88l-39.93-54.06c-1.75-2.37.54-5.48,4.49-8.18,1.77-1.21,5.8-3.07,6.83-1.68l27.91,26.95Z"/>
      </g>
      <g>
        <path class="cls-2" d="m129.89,487.02s15.87,10.09,19.45,17.62c3.31,6.98.27,17.3-2.51,20.42-8.38,9.39-22.33.47-23.32-1.62l-28.84-60.71c-1.27-2.67,1.57-5.27,5.97-7.16,1.97-.85,6.28-1.91,7.02-.35l22.23,31.79Z"/>
        <path class="cls-12" d="m129.89,487.02s15.87,10.09,19.45,17.62c3.31,6.98.27,17.3-2.51,20.42-8.38,9.39-22.33.47-23.32-1.62l-28.84-60.71c-1.27-2.67,1.57-5.27,5.97-7.16,1.97-.85,6.28-1.91,7.02-.35l22.23,31.79Z"/>
      </g>
      <g>
        <path class="cls-6" d="m291.31,347.39s24.86-36.78,37.67-22.45c13.66,15.28-23.18,45.01-23.18,45.01l-14.48-22.56Z"/>
        <path class="cls-11" d="m292.56,347.55s24.86-36.78,37.67-22.45c13.66,15.28-23.18,45.01-23.18,45.01l-14.48-22.56Z"/>
      </g>
      <g>
        <path class="cls-6" d="m94.73,327.71s-15.43-41.62-31.27-30.74c-16.89,11.61,11.84,49.23,11.84,49.23l19.42-18.48Z"/>
        <path class="cls-11" d="m93.48,327.57s-15.43-41.62-31.27-30.74c-16.89,11.61,11.84,49.23,11.84,49.23l19.42-18.48Z"/>
      </g>
      <path d="m225.49,358.71s11.89-3.31,37.01-6.1c13.01-1.44,26.23-14.32,32.5-17.7l32.08,37.34c-20.55,24.89-44.47,35.09-74.27,29.87l-27.33-43.41Z"/>
      <path d="m151.28,365.11s-9.94-7.31-32.45-18.82c-11.65-5.96-19.45-22.68-24.13-28.06l-40.23,21.38c10.39,30.56,26.15,50.75,55.87,56.42l40.94-30.92Z"/>
      <path d="m276.85,415.85c-4.13,62.56-47.88,71.19-100.91,67.68-53.03-3.5-81.97-24.67-85.28-73.65-2.88-42.72,25.2-90.79,95.83-86.13s93.18,49.37,90.36,92.09"/>
      <g>
        <polygon class="cls-2" points="231.45 365.71 192.91 439.68 155.17 367.14 231.45 365.71"/>
        <polygon class="cls-9" points="231.45 365.71 194.79 438.52 157.06 365.99 231.45 365.71"/>
        <polyline class="cls-10" points="214.57 398.11 195.35 379.44 175.75 398.68"/>
        <g>
          <g>
            <polygon class="cls-6" points="204.29 388.3 199.66 402.15 189.16 402.15 185.43 388.29 194.67 378.22 204.29 388.3"/>
            <polygon class="cls-10" points="203.46 387.85 198.83 401.71 189.16 400.58 186.09 389.86 193.14 379.56 203.46 387.85"/>
          </g>
          <g>
            <polygon class="cls-6" points="197.47 399.74 204.25 412.92 192.47 436.72 181.06 413.22 186.97 399.74 197.47 399.74"/>
            <polygon class="cls-10" points="199.25 399.84 206.03 413.03 192.47 436.72 184.38 413 190.29 399.52 199.25 399.84"/>
          </g>
        </g>
      </g>
      <g>
        <path class="cls-6" d="m80.17,251.64c4.25-64.27,59.79-112.92,124.05-108.68,64.27,4.25,112.92,59.79,108.68,124.05-4.25,64.27-59.79,112.92-124.05,108.68-64.27-4.25-112.92-59.79-108.68-124.05"/>
        <circle class="cls-8" cx="196.53" cy="259.33" r="116.62" transform="translate(-108.4 372.87) rotate(-73.27)"/>
      </g>
      <g>
        <path d="m108.44,136.08c-5.86-26.75,11.07-53.18,37.82-59.04l19.72-4.32c26.27-5.75,52.23,10.49,58.69,36.41h.01s.12.54.12.54c.07.29.15.58.21.87.06.29.11.59.17.88l8.51,39.15-116.42,25.5-7.94-36.52c-.34-1.14-.65-2.29-.91-3.47"/>
        <path d="m105.04,178.76l140.92-30.87c3.2-.7,5.23-3.86,4.52-7.06-.7-3.2-3.86-5.23-7.06-4.52l-140.92,30.87c-3.2.7-5.23,3.86-4.52,7.06.7,3.2,3.86,5.23,7.06,4.52"/>
        <rect class="cls-6" x="117.55" y="137.34" width="107.67" height="14.57" transform="translate(-26.98 40.02) rotate(-12.35)"/>
      </g>
      <g>
        <path class="cls-6" d="m374.66,410.25c-4.36,2.86-10.23,1.64-13.08-2.72l-37.95-57.85c-6.27-9.55-3.59-22.42,5.96-28.68s22.42-3.59,28.68,5.96l5.06,7.71c2.86,4.36,1.64,10.22-2.72,13.08-4.36,2.86-10.22,1.64-13.08-2.72l-5.06-7.71c-.55-.84-1.68-1.07-2.52-.52s-1.07,1.68-.52,2.52l37.95,57.85c2.86,4.36,1.64,10.23-2.72,13.08"/>
        <path d="m331.82,324.4c7.67-5.03,18-2.88,23.03,4.78l5.06,7.71c1.63,2.48.94,5.81-1.54,7.43-2.48,1.63-5.81.94-7.43-1.54l-5.06-7.71c-1.78-2.72-5.45-3.48-8.17-1.7-2.72,1.78-3.48,5.45-1.7,8.16l37.95,57.85c1.63,2.48.94,5.81-1.54,7.44-2.48,1.63-5.81.94-7.43-1.54l-37.95-57.85c-5.03-7.67-2.89-18,4.78-23.03m-4.48-6.82c-11.43,7.5-14.63,22.9-7.13,34.33l37.95,57.85c4.09,6.24,12.49,7.98,18.73,3.89,6.24-4.09,7.98-12.49,3.89-18.73l-27.36-41.71c3.17.48,6.53-.17,9.42-2.06,6.24-4.09,7.98-12.49,3.89-18.73l-5.06-7.71c-7.5-11.43-22.9-14.63-34.33-7.13"/>
      </g>
      <path d="m177.9,467.44s-.21,25.62-10.91,38.07c-8.27,9.63-31.99,6.44-42.53-8.86l-28.14-42.85,9.54-3.33-1.82-21.49,73.86,38.46Z"/>
      <path d="m245.38,472.7s-1.04,22.65-12,34.87c-9.79,10.93-30.34,5.74-45.07-3.08l-34.27-26.83,12.57-10.51-13.79-32.04,92.56,37.58Z"/>
    </g>
    <g>
      <path d="m213.98,244.74h8.78v-49.48h-23.26l6.93-12.42h-12.73l-6.93,12.42h-11.09v49.48h8.78v27.56h-33.55v29.53h25.95l-23.17,23.32v7.89h7.84l22.93-23.08v25.86h29.53v-25.86l22.93,23.08h7.84v-7.89l-23.17-23.32h25.95v-29.53h-33.55v-27.56Zm-27.18-38.36h24.84v8.06h-24.84v-8.06Zm0,19.18h24.84v8.06h-24.84v-8.06Zm55.18,52.3v18.41h-33.55v33.99h-18.41v-33.99h-33.55v-18.41h33.55v-33.12h18.41v33.12h33.55Z"/>
      <rect x="145.02" y="196.63" width="11.12" height="14.16" transform="translate(-101.96 223.69) rotate(-58.05)"/>
      <rect x="240.54" y="198.15" width="14.16" height="11.12" transform="translate(-70.29 161.89) rotate(-31.95)"/>
      <rect x="138.58" y="229.67" width="20.64" height="11.12" transform="translate(-112.69 139.99) rotate(-37.66)"/>
      <rect x="243.74" y="224.91" width="11.12" height="20.64" transform="translate(-89.24 288.87) rotate(-52.34)"/>
      <polygon class="cls-2" points="190.01 330.25 208.41 330.25 208.41 296.27 241.97 296.27 241.97 277.86 208.41 277.86 208.41 244.74 190.01 244.74 190.01 277.86 156.46 277.86 156.46 296.27 190.01 296.27 190.01 330.25"/>
    </g>
  </g>
</svg>