<svg width="12" height="7" viewBox="0 0 12 7" fill="none" xmlns="http://www.w3.org/2000/svg">
<path d="M6.53194 0.46928L11.5319 5.46928C11.6728 5.61018 11.752 5.80127 11.752 6.00053C11.752 6.19979 11.6728 6.39088 11.5319 6.53178C11.391 6.67268 11.1999 6.75183 11.0007 6.75183C10.8014 6.75183 10.6103 6.67268 10.4694 6.53178L6.00132 2.06241L1.53194 6.53053C1.46218 6.60029 1.37935 6.65564 1.2882 6.69339C1.19705 6.73115 1.09935 6.75058 1.00069 6.75058C0.902028 6.75058 0.804332 6.73115 0.71318 6.69339C0.622028 6.65564 0.539205 6.60029 0.469441 6.53053C0.399676 6.46077 0.344336 6.37794 0.306579 6.28679C0.268823 6.19564 0.24939 6.09794 0.24939 5.99928C0.24939 5.90062 0.268823 5.80292 0.306579 5.71177C0.344336 5.62062 0.399676 5.53779 0.469441 5.46803L5.46944 0.46803C5.5392 0.398192 5.62206 0.342812 5.71327 0.305065C5.80448 0.267318 5.90224 0.247947 6.00095 0.248064C6.09966 0.24818 6.19738 0.26778 6.2885 0.305742C6.37962 0.343703 6.46235 0.399278 6.53194 0.46928Z" fill="black"/>
</svg>
